<?xml version="1.0" encoding="utf-8"?>
<!-- Generator: Adobe Illustrator 19.0.0, SVG Export Plug-In . SVG Version: 6.00 Build 0)  -->
<svg version="1.1" id="Layer_1" xmlns="http://www.w3.org/2000/svg" xmlns:xlink="http://www.w3.org/1999/xlink" x="0px" y="0px"
	 viewBox="-387 24.7 66.6 547.6" style="enable-background:new -387 24.7 66.6 547.6;" xml:space="preserve">
<style type="text/css">
	.st0{fill:#FFFFFF;}
</style>
<path id="Path_40" class="st0" d="M-370.6,509.6c0-0.3,0.1-0.6,0.1-0.9c0.5,1.3,1,2.6,0.3,3.8c-0.2,0.4-0.4,0.2-0.7-0.2
	C-370.9,511.6-370.8,510.8-370.6,509.6z M-371.4,500.8c2.3,1,5,1.9,3.4,2.9c-0.8,0.5-2.1,0.7-2.8,1.4
	C-370.9,503.7-371.1,502.2-371.4,500.8z M-372.1,497c-0.6-3.1-0.9-5.6-1.1-7.8c0.2-0.1,0.5-0.2,0.7-0.4c0.9-0.7,0.6-1.3,0.1-1.5
	c-0.3-0.2-0.6-0.2-0.9-0.2c-0.1-1.8-0.1-3.5,0-5.3h0.3c0.8-0.1,4.1-2.7,4.1-2c-0.3,3.1-1.8,8.8,0.8,6.3c1.2-1.1,3.3-1.8,3.6-3.5
	c0.2-1.1-3.8-2-2.7-2.4c2.1-0.7,5.6-0.9,6.8,1c1,1.5-3.3,2.3-3.6,4c-0.3,1.9,3.4,4.2,2,5.6c-1.7,1.8-5.6-1.3-7.5,0.2
	c-1.2,0.9,2.1,2.7,1.8,4.1C-368.1,496.3-370.4,496.6-372.1,497L-372.1,497z M-373.1,479.4c0.2-1.7,0.4-3.3,0.5-5.1
	c0.8,0.2,1.5,0.1,1.9,1.3c0.5,1.5,2.7,1.9,0.6,2.8C-371.3,478.8-372.3,479.2-373.1,479.4L-373.1,479.4z M-372.9,468.4
	c-0.2-4,1.5,1.4-0.2-7c-0.2-1.9,0-3.9,0.5-5.8c0.8,1.9-1.1,3.3-0.4,6.1c0,0.1,0.1,0.4,0.1,0.5c0.6,2.1,2.3-0.4,2.4,1.8
	c0.1,1.8,1.7,4.1,0.4,5.4C-370.8,470.2-371.9,469.3-372.9,468.4L-372.9,468.4z M-374.2,453.7c-0.4,0.4-0.7,0.9-1,1.4
	c-0.6-0.4-1.1-0.7-1.7-1l-1.5-0.8c-3.5-1.9-0.2,2.8-0.2,3.3c-0.1,0.7,0,1.5,0.1,2.2c-0.4,0.1-0.9,0.1-1.3,0
	c-2.5-0.8-1.2-5.5,0.5-7.2c0.3-0.3,0.8-0.5,1.2-0.5C-378.3,452.3-376,452.4-374.2,453.7L-374.2,453.7z M-376.1,445.2
	c-0.7,0.1-1.5,0.2-2.2,0.2c-2.2-0.1-1.7-3-0.2-3.8C-377.9,442.9-377.1,444.1-376.1,445.2L-376.1,445.2z M-379,440.4
	c-0.4,0.1-0.9,0.3-1.3,0.4c-7.3,1.6-0.1-3-1.2-7.4c-0.4-1.8-1.7-2.5,0-2c0.9,0.3,1.8,1.2,2.9,0.9s0.6-1.7,1.3-2.4
	c3.5-3.6-10.4-7.2-4.2-5.9l5,1c0.4,0.1,0.9,0.2,1.4,0.2c0,0.3-0.1,0.7-0.1,1.1c-0.1,1.3-0.8,2.8-0.7,4c-1.6,1.5-2,4.1,1.3,3.7
	c2.7-0.3,4.1-3.3,2.3-4.6c2.6-0.6,0.6,8.9-0.7,9.8c-0.1,0-0.3,0-0.4,0c0,0-0.1-0.1-0.1-0.2c-0.8-1.6-0.7-5.2-2.5-4.8
	c-2.3,0.5-3.2,3.8-2.9,6L-379,440.4L-379,440.4z M-381.3,448.1c-1.9,0.4-2.9-2.2,0.5-1.8C-380.5,446.3-378,447.3-381.3,448.1z
	 M-385,433.3c2.5,0.6,2.7,2.8,0.1,2.5c-1.2-0.2-1.8-0.6-1.8-1.2v-0.2c0,0,0,0,0,0C-386.6,433.6-385.8,433.1-385,433.3L-385,433.3z
	 M-356.2,553.9c1.9-1.6,3.4,0.2,1.9,1.8C-355.6,557.2-357.8,555.4-356.2,553.9z M-376,560.7c1.4,3.4-8-3.8-4.4,0.1l4.7,5.1
	c3.7,4,1.9,5.9-1.3,6.4c-1.9-2.6-3.4-5.6-4.4-8.7c-0.6-1.8-0.9-3.6-1-5.5c1.6-0.5,3.3-1.4,5-0.9C-376.1,557.6-376.5,559.6-376,560.7
	L-376,560.7z M-322.3,535.5c2.6,0,2.5,3.5,0.1,2.6C-325.6,536.9-324.9,535.5-322.3,535.5z M-363.7,527.6L-363.7,527.6
	c-0.6,0.7-1.5,0.7-2.1,0.2c-0.1-0.3-0.2-0.6-0.3-0.9c0.1-0.4,0.2-0.8,0.5-1.1c0.3-0.5,0.8-0.7,1.4-0.7
	C-363.3,525.2-362.8,526.4-363.7,527.6L-363.7,527.6z M-324.5,525.5c-1.1,1.8-3.5,0.7-2.4-2.2C-326,521.1-323,523.1-324.5,525.5
	L-324.5,525.5z M-359.6,512.8c0,1.5-0.8,1.8-1.3,0C-361.5,511-359.6,511.8-359.6,512.8L-359.6,512.8z M-364,510.1
	c3.3-0.2,2.1,3.2,0.1,2.8c-0.6-0.1-1.2-0.4-1.7-0.8C-366.6,511.3-366.3,510.2-364,510.1L-364,510.1z M-369.4,511
	c-0.6-2.5,2.5-2.5,2.8,0C-366.5,513.4-368.6,514.2-369.4,511z M-356.7,511c-1.3,0.5-2.8,0.5-4-0.2c-0.2-0.1-0.4-0.2-0.5-0.4
	c-0.7-0.7-0.7-1.7,0-2.4c0.8-1,2.3-0.7,3.7,0.2S-355.5,510.5-356.7,511L-356.7,511z M-365.6,497.1c0.8,0.1,0.4,1.7-0.1,2.3
	c-0.7,0.7-1.6,1.1-2.6,0.9c-0.6-0.1-3.5-1.4-3.1-1.9C-370.5,497.4-367,496.9-365.6,497.1z M-339.3,492.8c0.9,0.1,0.8,1.7,1.1,2.5
	c1.1,2.5,4.6,3.5,0.9,3.2c-1.6-0.1-2.7-2-3.5-3.4c0-0.1,0-0.2-0.1-0.2C-340.9,493.9-340.3,493-339.3,492.8L-339.3,492.8z
	 M-348.9,495.2c0,1.1-2.1-0.9-3.1-1.4c-2.4-1-0.8-3.2-0.1-2.4C-351,492.6-348.9,493.5-348.9,495.2L-348.9,495.2z M-346.2,491
	c2.6,0.1,2.5,3.6,0.1,2.6C-349.5,492.3-348.8,491-346.2,491z M-341.3,481.9c2.4,0.2,0.9,0.5-0.1,2.9c-0.6,1.3-0.6,3.1-2.3,1.2
	S-344,481.7-341.3,481.9L-341.3,481.9z M-335.1,483.8c-1.4,0.2-3.4-2.3-0.4-2.5C-332.3,481.2-333.5,483.6-335.1,483.8z
	 M-358.4,479.4c-0.6-1.8,1.3-1,1.3,0C-357,480.9-357.8,481.2-358.4,479.4z M-364.9,472.7c-0.1-2,3.3,0.8,3.2,3
	c-0.2,3.2-3.8,3.7-3.9,1.3C-365.7,474.9-364.9,474.8-364.9,472.7L-364.9,472.7z M-357.9,472.2c1.1-3.6,2.4-1,2.9,0.5
	c1.4,4,0.7,9.4-0.3,5.9c-0.3-0.9-0.5-1.8-0.8-2.7c0-0.1-0.1-0.4-0.1-0.5C-356.6,473.4-358.5,474.4-357.9,472.2L-357.9,472.2z
	 M-354.8,445.9c-2.2-1.4,0.3-3.9,2.3-2.2C-350.9,445.1-351.9,447.7-354.8,445.9z M-357.5,453.9c-4.5-0.2-5.4-6.6-0.8-6.7
	C-354.1,447-353.4,454.1-357.5,453.9L-357.5,453.9z M-368.4,445.7c2.2-0.2,1.8,6.8,0.2,6.1C-371.2,450.5-371.4,446-368.4,445.7z
	 M-372.8,444.2c-0.4,0.4-0.9,0.6-1.5,0.5c-0.2,0-0.5-0.1-0.7-0.2c-0.9-0.4-1.4-1.5-0.9-2.5C-374.8,443-373.8,444.2-372.8,444.2z
	 M-355.5,440.9c1.4,2.3-2.5-1.4-2.4,0.9c0.1,1,1.2,3.4,0.2,3.1c-1.9-0.5-2.7-2.8-4-4.1C-365.6,436.7-357.5,437.7-355.5,440.9
	L-355.5,440.9z M-367.9,434.1c0.9,5.6,4,3.4-2.2,6.6C-373,442.1-368.4,431.1-367.9,434.1L-367.9,434.1z M-359.1,432.9
	c-0.2,1.1-2.5,2.4-3.3,1.5v0c-0.9-1.4-0.5-3.2,0.9-4.1C-360.4,429.6-358.8,431.7-359.1,432.9L-359.1,432.9z M-376.6,422.8
	c-0.5-0.6-1-1.2-1.4-2c0.1-0.2,0.2-0.4,0.3-0.5c0.6-0.6,1.2,0.5,1.6,1.3C-376.1,422.1-376.2,422.5-376.6,422.8L-376.6,422.8z
	 M-353.6,396.9c-2,2.3,0.7-9.3,1.8-7.3c0.9,1.6,1.3,2.1,1.2,3.8C-350.7,394.9-352.6,395.7-353.6,396.9L-353.6,396.9z M-365.1,415.1
	c1.5,1.8-0.8,5-2.3,2.1C-369.2,413.7-366.6,413.3-365.1,415.1L-365.1,415.1z M-369.4,415.6c0,0.1-2.5,1.5-3-2.5
	c0-0.2-0.3-0.4-0.2-0.5c0.8-1.2,1.3-4.6,2.4-3.6C-368.6,410.6-369.7,413.4-369.4,415.6L-369.4,415.6z M-364.6,410.2
	c-0.6-0.4,2.4-3.1,3.1-3.2c1.2,1.3,2.3,2.7,3.3,4.2C-360.3,411.1-362.5,410.8-364.6,410.2L-364.6,410.2z M-368.8,383.7
	c0,1.5-2.3,2.3-2.9,0.6c-0.3-1,0.6-1.4,1.5-1.3C-369.5,383-368.8,383.3-368.8,383.7L-368.8,383.7z M-359,396
	c-1.7-0.5-3.3-1.3-4.7-2.5c-1.7-1.4,0-3,2.2-3.6C-358.3,389-356.5,396.6-359,396L-359,396z M-370.1,388.7c7.1-3.9,2,3.9,4.8,5.2
	s5.3,2.1,0.7,3.5C-370.4,399.2-374.8,391.3-370.1,388.7L-370.1,388.7z M-359,385.6c-2,1.9-5.3-1.3-3.3-3.1
	C-360.1,380.6-356.8,383.6-359,385.6L-359,385.6z M-374,373.9c-1.8-1.8,3.8-3.3,4.1-0.6c0.8,6.9,4.7,8.7,3.2,8
	C-369.9,379.9-371.5,376.4-374,373.9L-374,373.9z M-364.1,365.3c0.7-0.5,1.8-0.4,2.3,0.3c0.5,0.7,0.4,1.8-0.3,2.3
	c-2.4,2.1-4.4,0.2-2.4-2.2C-364.4,365.5-364.2,365.4-364.1,365.3z M-362.6,362.1c-0.5,1.1-1.1-1.6-1-2.2c0.4-1.8,3.2-3.4,2.2-0.8
	L-362.6,362.1L-362.6,362.1z M-351.8,341.9c-0.6-1.8,1.3-1,1.3,0C-350.4,343.4-351.2,343.7-351.8,341.9z M-379.3,323.1
	c1.4,0.2,2.5,1.4,2.6,2.8c0,0.3,0,0.6-0.1,0.9c0,0,0,0,0,0c-0.4,1.2-1.6,1.9-2.8,1.5C-382.6,327.8-382,322.7-379.3,323.1
	L-379.3,323.1z M-376.5,342.9c0.4,1.1-4.5,0.6-3.1-1.1C-378.3,340.3-377.2,340.9-376.5,342.9L-376.5,342.9z M-373,321.5
	c-2,2,0.1-2.3,0.1-4.1c0-1.4-1.8-5.1-0.3-3.3c1.2,1.4,3.5,2.4,3.5,4.1C-369.6,319.8-371.9,320.4-373,321.5L-373,321.5z M-374.6,317
	c0.4,3-2.4,4.1-3.4,1.4C-379,315.3-374.9,314.8-374.6,317L-374.6,317z M-384.1,309.8c-3.9,5.4-2.8-11.6-0.4-7.5
	c0.9,1.5,2.6,2.7,2.6,4.4C-381.8,307.9-383.3,308.8-384.1,309.8L-384.1,309.8z M-374,307.2c3.1-1.4,1.9-0.3,1.2,2.6
	c-0.4,1.9-4.8,0.9-6.7,0.6c-1.6-0.3-2.4,0-1.2-0.5C-377.7,308.5-376.9,308.5-374,307.2L-374,307.2z M-370,322.4
	c0.5-0.4,1.3,2.8,1.7,3.4c1,1.5-3.3,2.1-4.5,0.9s-1.4-1.4,0.2-1.5C-371.6,325.1-372,323.9-370,322.4L-370,322.4z M-370.2,332.4
	c-0.1-4.9,1.7-4.8,4.4-1.6C-362.9,334.3-370.2,336.1-370.2,332.4z M-379.1,218.3c0.5-0.5,1.3-0.8,2-0.7c1.5,0.1,3,1.3,1.8,2.6
	C-376.9,221.9-380.8,220.1-379.1,218.3L-379.1,218.3z M-381.2,301.9c-0.8,0.7-2.3,1-2.1-3.3c0-1.1,0.2-4,1.2-3.4
	C-379.5,296.9-378.8,299.9-381.2,301.9L-381.2,301.9z M-365.7,134c-0.3-1.3-1.9-3-0.9-4c0.9-1,3.2,1.5,4.2,0.6
	c0.8-0.7-4.6-1.1-4.1-2.1c0.8-1.5,3.1-1.9,4.8-1.3c1.7,0.6,4.2,1.9,3.9,3.6c-0.2,1.3-4.8,1.8-3.4,2.3c2.7,1,6.1-2.7,6,0
	c-0.1,2.8-3.3,1.1-6.1,1.8C-364.6,135.8-365,137-365.7,134z M-351.3,301.8c-0.7,0.4-2.5-0.5-2.2-1.2c0.4-1.2,2.2-2.5,3.4-1.9
	C-349.2,299.2-350.4,301.2-351.3,301.8z M-360.7,340.5c3.4,6.6,0.8-2,6.4,1.5c3.4,2.2-7.7,2.5-5,4.7c1.1,0.9,3.7,1.4,3.4,2.8
	s-3.4,0-4.3,1.1c-1.2,1.4,0.7,4.6-1,5.4c-2.7,1.4-7.9,2.7-9.4,0.1c-1.4-2.5,3.5-4.7,6.3-5.6c1.1-0.4-0.5,3.6,0.7,3.4
	c1.5-0.3,2.6-2.6,2.1-3.9c-0.4-1.3-4.4-0.6-3.9-1.9c0.6-1.5,5.9,0.5,5-0.9c-1.3-2-4.6-1.5-6.9-2.2
	C-370.3,344-361.9,338.2-360.7,340.5L-360.7,340.5z M-370.4,300.8c0.1,1.1-0.5,2.2-1.5,2.6c-1,0.4-2.2-0.9-3.1-0.3
	c-1.1,0.7-1,5.4-3.9,3.7c-1,2.8,1.5-11.3,6.2-7.8C-372,299.7-370.6,299.9-370.4,300.8L-370.4,300.8z M-376.6,291.4
	c-2.3-1.7-5.7-4.1-3.6-7.9c2.3-4.3,6.8-6,8.7-0.4c3.2,9.5-1.8,5.7-1,10.6c0,0.1-0.2,3.4-0.6,3.5c-0.7,0.3-4.3,1.4-4.5,0.7
	c-0.4-1.6,4-2.9,3.6-4.5C-374.2,292.3-375.7,292-376.6,291.4L-376.6,291.4z M-365.9,295.9c3.8-5.1,1.5-3.3,8.8,1.2
	c6.7,4.1-7.2,8.4-6,4.9c0.5-1.3,2.8-2.7,1.4-3c-2.8-0.5-3.4,2.5-6.6-0.1c-0.8-0.6,2.6-1,2.1-1.9c-0.5-1.1-4.2-0.2-3.6-1.3
	C-369,293.9-366.6,296.7-365.9,295.9L-365.9,295.9z M-373,273.3c-1.5-3.1,2-3.5,2.7-1.3c0.6,2-0.7,6.5-1.8,4.3
	C-372.4,275.8-372.8,273.9-373,273.3L-373,273.3z M-362.6,426.3c-1.3,0.7-1.3-0.8-2.7-0.3c-0.8,0.3-0.5,2.1-1.4,2
	c-2.6-0.3-6.9,0-5.4-2c3.1-3.9,7.4-6.7,12.3-8c0.7-0.2-0.9,1.8-0.2,2.1c1.5,0.8,3.9-0.9,5.1,0.4c0.8,0.9-1.3,2.1-2.5,2.4
	c-1.4,0.2-2.8,0.7-4.2,1.2C-362.5,424.5-361.8,425.9-362.6,426.3L-362.6,426.3z M-374.5,264.8c0.2,0.6-0.7,1.6-1.4,1.7
	c-0.5,0.1-1-0.3-1-1.5c0-1.7,0.4-2.2,1-2C-375.3,263.4-374.7,264-374.5,264.8L-374.5,264.8z M-368.4,266.2c-1.4,4-8,1.8-5,0.5
	c1.4-0.6,3.1-0.4,4.7-0.6C-368.6,266.1-368.3,266.1-368.4,266.2L-368.4,266.2z M-367.9,258.4c2.1,1.7-0.1-0.2-1,1.4
	c0,0.1-0.1,0.2-0.1,0.3c-0.6,1.2-2.9,7.3-4.6,1.4c-0.3-1-0.6-2.1-0.9-3.1C-376,253.3-370.5,256.3-367.9,258.4L-367.9,258.4z
	 M-360.4,258.1c3.8,4.4-13.5-6.7-7.6-7c1.4-0.1,3.2-1.1,4.3-0.2c0.8,0.6-2,1.4-1.6,2.3C-364.6,255.3-361.9,256.3-360.4,258.1
	L-360.4,258.1z M-360.7,252c-3.9-1.4,7.4,1.2,5.4,2.7C-358.2,256.9-354.9,254.1-360.7,252z M-369.3,237.6c-0.3,1.1-0.6,2.2-0.9,3.2
	c-0.8,2.8-1.3-4.2-2.5-1.7c-0.4,0.9-0.4,3.2-1.2,2.6c-1.1-1-0.3-2.7-0.5-4.1C-374.5,235.6-368.5,235-369.3,237.6L-369.3,237.6z
	 M-351.6,236.9c1.1,2.8-1,0.9,0,3.9c0.2,0.6-2.4,0.4-2.4-2.6C-354,236.8-352.5,234.8-351.6,236.9L-351.6,236.9z M-358.5,232.8
	c2.5-0.5,0.8,2.9-0.2,2.5C-360.3,234.5-361.9,233.5-358.5,232.8L-358.5,232.8z M-365.6,233.1c1.2-2.7,3-0.9,2.6,0.3
	C-363.7,235.8-366.4,235-365.6,233.1z M-376.2,215.3c-2.9-0.6-2.9-4.1,0.2-4.2C-373.3,211.1-373.9,215.8-376.2,215.3z M-380.7,208.6
	c2.6,0,2.5,3.5,0.1,2.6C-383.9,210-383.2,208.6-380.7,208.6z M-372.5,157.3c2.2,0.1,4.2,1.8,6.2,2.6c3,1.3-11.7,1.8-8.8,0.7
	c0.8-0.3,1.9-0.2,2.4-0.9S-373.3,157.3-372.5,157.3L-372.5,157.3z M-369.8,134c-0.6-1.8,1.3-1,1.3,0
	C-368.5,135.5-369.3,135.8-369.8,134z M-377.4,78.9h0.4c0.9,0.2,1.6,1.1,1.4,2c0,0.1,0,0.1,0,0.2c0,0,0,0,0,0
	c-0.1,1-0.9,1.7-1.9,1.6C-380.3,82.3-379.9,78.8-377.4,78.9L-377.4,78.9z M-367.3,76c-2.6,0.9-3.4-1.2-2.1-3.5
	C-368,70-364.9,75.1-367.3,76z M-370.4,73.4c-0.2,0.5-3.6,0.1-4.1,0c-4.3-0.9,3-11.1,2.3-5.5C-372.4,69.8-369.6,71.5-370.4,73.4
	L-370.4,73.4z M-376.9,64.6c0.3,1.9-0.5,3.8-0.7,5.6c-0.4,3.5-4.6-3-0.8-4.9C-377.9,65.1-377,64-376.9,64.6z M-379,55.1
	c-3.3,0.4-4.4-4.1-0.7-4.1C-376.3,50.9-375.8,54.8-379,55.1L-379,55.1z M-378.1,47.2c-0.9,0.2-1.8,0-2.4-0.6
	c-0.6-0.5-0.6-1.4,0.7-2.8c1.1-1.1,2-0.9,2.4-0.1C-377,44.9-377.3,46.3-378.1,47.2L-378.1,47.2z M-380.7,39.7c-0.2-2.2,7-1.8,7,0.6
	C-373.7,42.5-380.5,41.8-380.7,39.7z M-377.5,33.5c-0.8,0.7-2.7-0.9-2.5-1.9c0.3-1.5,2.2-3.9,3.4-2.9
	C-375.2,29.7-376.3,32.4-377.5,33.5z M-375.8,191.3c1.6-4.8,2.2-0.8-3.3-4.6c-2.4-1.7,0.9,11.9,1.8,9L-375.8,191.3z M-383.6,90.5
	c0.1,1.4,2.4,1.9,3.6,2.8c4.2,3.3,6.3-9.7-0.4-5C-381.5,89.1-383.7,89.3-383.6,90.5L-383.6,90.5z M-378.2,253.6
	c0.1,0.9-5.2-5.9-4.3-5.6c3.6,1.3,6.8,2.1,6.5,2.4C-376.7,251.5-378.3,252.3-378.2,253.6L-378.2,253.6z M-377.3,96.4
	c-2.8-0.7-3.4,2.2-0.8,3.9c2.1,1.3,5.6-2.7,3.2-3.3C-375.6,96.9-376.4,96.6-377.3,96.4L-377.3,96.4z M-372.6,172.4
	c2.7-1.1-1.3-6.2-2.7-3.2c-0.8,1.6-1.6,1.1-1.3,1.7C-376.2,171.6-374.3,173.1-372.6,172.4L-372.6,172.4z M-372.2,121.8
	c2.6,0.9,7.8-3.1,3.4-3.8l-3.4-0.6C-376.2,116.8-374.7,121-372.2,121.8L-372.2,121.8z M-386.3,316.1c0.8,2.5,3.1,2.5,3.8,0
	C-381.7,313.5-386.9,314.1-386.3,316.1z M-384,137.1c3.4,1.5,4.4-0.7,2.2-3.2C-383.4,132.2-386.8,135.9-384,137.1L-384,137.1z
	 M-376.3,359c-0.8-1.9-4.9,2-3.1,3C-376.9,363.6-375.1,361.7-376.3,359z M-379.6,165.5c0.6,0.7,1.2,1.3,1.8,1.9
	c0.4-3.7,1.5-2.6-0.7-3.5C-380.1,163.4-379.9,164.2-379.6,165.5L-379.6,165.5z M-369.8,143.7c-0.9-0.8-3.4-2.2-1.9,1.7
	C-370.5,148.3-369.1,144.3-369.8,143.7z M-386.5,438.6c1.9,0.1,1.8,5.7-0.1,5.3l-0.3,0v-5.3L-386.5,438.6z M-386.8,314.2
	c1.3-1.1,3.2-2.9,5.8-1.3c3.7,2.2,0.7,5,2.3,7.2c0.3,0.4,0.9-0.4,2,2.3c1,2.4,2,4.9,3,7.3c0.7,1.6,0.5,6.1-0.7,4.6
	c-6.5-7.7-15.7-4.3-8.4-0.4c0.9,0.5,2.6,0.5,2.6,1.4c0,1.3-1.8,1.7-2.8,2.6c-2.1,2,1.9,10.9,4.1,9.8c2.5-1.3,4.8-4.9,7.5-3.9
	c2.5,1,3.6,5.5,1.9,7.5c-1.3,1.5-3.2-3.1-5.3-3.6c-1.1-0.2-2.9,1-2.5,2s2.6-0.7,3.3,0s-0.6,1.8-0.8,2.7c-1.5,4.7-1.5,6.9,3,8.9
	c0.6,0.3,1.8,0.1,1.8,0.8c0,1.2-0.7,2.8-1.9,3.2c-1,0.2-1.4-2.6-2.3-2.1c-1.1,0.7-0.5,2.6-0.7,3.9c-0.7,3.6,6.1-3.8,6.6-1.4
	c1,5.8-13.3,3-7.4,7c0.5,0.4-0.1,2.3-0.1,2.9c0.3,3.4,1.4,4.9,1.2,8.2c-0.5,8.8,1.7,3.3,1,6.8c-0.6,3.2-5.6,3.5-3.3,4.7
	c2,1.1,5,1.1,6,3.1c0.6,1.1-2.1,1.4-3.1,2.1c-3.4,2.2,4.3-0.1,5.3,1.1c3.8,4.8,7.8,5.1,3.4,5c-2-0.2-4-0.2-6-0.2
	c-0.5,0-0.7,0.5-1.1,0.8c-9.2,6.4,3.9,8.5-6.4,9.6c-0.4,0-0.7,0-1.1,0c-0.8-1.1-1.7-2.2-2.6-3.2c0.3,0,0.5-0.1,0.6-0.1
	c0.2,0,2.1-2.3,2.3-2.4c2.2-1.5,1.1-2.8,0-4.5c-1.5-2.3-2.8-2.1-2.4-0.2c0.1,0.7,0.2,1.4,0.4,2c0.7,4.1-1.3,3.4-2.4,2.8
	c-1.1-1.7-2.1-1.8-3.1-1.6v-14.1c0.3-0.7,0.5-1.5,0.6-2.3c0.2-3.4,0-6.8-0.6-10.1v-12c4.6-1.6,2.3-4.3,0-7v-43.1
	c0.3,0,0.4-0.5,0.4-1.2c0-0.3-0.2-0.6-0.4-0.8v-4.7L-386.8,314.2z M-386.9,206.2c0.4,0.7,2,1.9,2,2.9v0.5c0.3,7.3-2,0.4-0.5,6.1
	l3.4,12.2c1.2,4.4,3.8,8.8,4.5,12c2.7,11.2,6.2,4.5,5.1,10.4l-0.6,3.3c-0.3,1.5-1.1-1.7-3.1,0.8c-1.7,2.2-2.8-0.4-2.8,1.7
	c-0.1,10.8-0.9,5.3-0.7,13c0,2.2-3.4,3.1-1.2,3c1.4-0.1,4.6-1.4,4-0.2c-1.2,2.3-5.1,2.5-6.4,4.7c-1.2,2.3-0.3,5.1-0.5,7.7
	c-0.3,4.6-2.1,1.2-2,6.1c0.1,3.3,0,0.3,1,2.5c1,2.2,0.8,0,0.4,2c-0.1,0.4-0.2,0.9-0.3,1.4c0,0.2-0.1,0.3-0.1,0.5
	c-0.6,1-0.8,3.2-1.9,2.9c-0.2-0.1-0.3-0.2-0.5-0.3L-386.9,206.2L-386.9,206.2z M-387,201.7c0.3,0.6,0.8,1.1,1.4,1.4
	c1.3,0.6,1.9-2.3,3.3-2.5c1-0.1,1.5,1.1,1.7,2.1c0.3,1.5,0.9,3.4-0.4,4.1c-1.4,0.8-3.1-0.7-4.7-1.1c-0.4-0.1-0.8-0.2-1.3-0.1V201.7
	L-387,201.7z M-386.9,68.6c1.1,0.1,3.7-1.8,4.1-0.7c0.3,0.9,0.7,1.8,1,2.7c0,0.1,0,0.2,0,0.4c0,0.1,0,0.3,0,0.3
	c0.3,3,2.9,2.4,0.9,3.1c-1,0.4-3.1,0-3.1,1.2c0,1.2,1.9,2.3,3.1,2.1c1.7-0.3,0.5-1.3,1.7-2.4c5.2-4.5-0.9,2.4-1,4.9
	c-0.1,3.6,1.9,3,3.6,4.9c5.5,6.3,8.1,4,6.1,7.9c-0.9,1.8-1.8,3.4-2.7,5.1c-3.8,7.5,5.2,5.9,5.8,11.4c0.5,4.3,4.4,11.2-0.2,13.4
	c-1.6,0.8-4.5,0.6-4.8,2.3c-0.3,1.3,4.2-0.6,4.2,0.8c0,4.5-5.1,1-3.4,7.8c1.7,7.2-0.8,2.3-2.7,0.3c-3.2-3.5-10.1,9.2-1.6,6.8
	c2.9-0.8,5.2-1,8.1-1.8c3-0.8-1.2,2.4-0.9,4.3c0.7,4.4,3.9,7.4-0.6,6.6c-8.3-1.7-1.2-5.3-4.2-6.2c-1.6-0.4-3.4-2.1-4.8-1.3
	c-1.4,0.7-0.9,3-1.4,4.5c-0.3,0.9-0.1-0.1-0.1,1c-0.1,2-1.3,2.9,0.1,2.8c1.1-0.1,1.8,0.1,2.8,0c3.7-0.4-1.8-3.5,0.3-3.2
	c2.9,0.4,5.5,2.9,1.9,3.8c-7.2,1.8,5.3,3-0.2,5.5c-1.7,0.8-6,1.2-5.5,3.1c0.7,2.8,4.8,3.5,7.2,5.2c1.6,1.1,0,4.4,0.7,3.2
	c2.3-3.9,7.4-9.5,3.7-1.6c-1,2.2,1.4,1.8,1.5,4.1c0.2,1.9-1.8,2.6-1.6,4.5c0.1,1.7,0.7,2.3-0.4,1.6c-1.6-1.1-3-3-5-3.3
	c-1.3-0.1-1.6-1.2-2.7-0.3c-1.1,0.9,1,2.8,1.2,2.9c0.9,0.4,0.2,0.6,1.7,1c0.1,0,3.5-0.6,3.1,0.6c-1.6,3.7-2.6,7.7-2.8,11.8
	c-0.1,2.5,2.1,4.3,2.1,6.8c0,1.2-2.7-1.7-3.7-0.9c-2,1.6-1.1,5.4-3.4,6.6c-1.3,0.7-0.8-2.8-1.1-4.2c-1-3.7-2.6,2.1-5,1.4
	c-0.6-0.2-1.5-0.8-2-0.9v-22.7c1.1,1.8,2.5,3.3,4.2,4.5c0.7,0.5-0.7-0.5-2.9,1.6c-2,1.9-1.4,1.1,2.4,2.2c3.4,1,0.9-0.7,3.9,0.3
	l0.4,0.2c1.1,0.6,1,3.7,2,3.1c0.7-0.5,0.8-1.5,0.4-2.2c-0.8-1.9-1.4-2-2.9-3.4c-2.5-2.3,5.5-3.9,0.6-5.6c-2.7-0.9-3.6-2.2-6.3-3.1
	c-0.6-0.2-1.2-0.3-1.8-0.3V145c0.4,1.5,5.5,4.9,5.4,1.8c-0.1-1.1-0.1-2.1-0.1-3.2c-0.1-2.4-0.8,1-2.6,0.9c-0.6,0-1.1-0.1-1.7-0.1
	c-0.6,0-0.9,0.1-1,0.3L-386.9,68.6L-386.9,68.6z M-387,55c2.3,0.9,5.2,1,6.6,2.9c0.8,1-3.3-0.1-3.7,1.1c-0.6,1.7-0.3,4.9,1.6,5.3
	c2.1,0.5,2.7-4.5,4.8-4c1.7,0.4-2.2,3.9-2.5,5.6c-0.5,3.2-5.3-3.2-6.9-0.1V55L-387,55z M-387,34.9c1.3,2,5.9,0.4,5.4,1.9
	c-1.6,4.5-3.2,9-4.8,13.5c-0.1,0.4-0.3,0.8-0.5,1.1V34.9L-387,34.9z M-379.6,24.6c-1.2,1.4-5-1.3-4.9,2.5c0,1.9-1.7,3.8-2.4,5.6v-8
	L-379.6,24.6z"/>
</svg>
