<svg id="Layer_1" data-name="Layer 1" xmlns="http://www.w3.org/2000/svg" viewBox="0 0 772.78 587.52"><defs><style>.cls-1{fill:#e72735;fill-rule:evenodd;}</style></defs><path id="Path_2497" data-name="Path 2497" class="cls-1" d="M98.77,20.05A4.18,4.18,0,0,1,100,23.11a5.31,5.31,0,0,1-1.82,4,7.26,7.26,0,0,1-5.11,1.67,7.42,7.42,0,0,1-5-1.58,4.81,4.81,0,0,1-1.82-3.71A4.24,4.24,0,0,1,87,20.64,7.41,7.41,0,0,1,89.1,19a8.82,8.82,0,0,1-2.53-1.75,4.6,4.6,0,0,1-1.15-3.42,6.34,6.34,0,0,1,2-4.69A7.7,7.7,0,0,1,93,7.21a9,9,0,0,1,5.5,1.66,5.59,5.59,0,0,1,2.25,4.81,5.23,5.23,0,0,1-1,3.22A6.38,6.38,0,0,1,97,19a5.57,5.57,0,0,1,1.82,1.07Zm-9-9.46a3.43,3.43,0,0,0-1.31,2.94,3.73,3.73,0,0,0,1.32,3.1,5.28,5.28,0,0,0,3.4,1.06,4.91,4.91,0,0,0,3.29-1.08,3.67,3.67,0,0,0,1.28-3,3.89,3.89,0,0,0-1.16-2.81A4.8,4.8,0,0,0,93,9.61,5,5,0,0,0,89.74,10.59Zm.48,10.33a3.26,3.26,0,0,0-1.06,2.34,3,3,0,0,0,1,2.14,4.14,4.14,0,0,0,3,1,3.93,3.93,0,0,0,2.94-1,3.43,3.43,0,0,0,.89-2.3,2.67,2.67,0,0,0-1.18-2.31A4.65,4.65,0,0,0,93.12,20,4.24,4.24,0,0,0,90.22,20.92Zm21.17,1.71v2a11,11,0,0,0-2.43.24,8.43,8.43,0,0,0-1.82.66,4.8,4.8,0,0,0-1.79,3.08h-2.2V7.81h3V22.63ZM349.74,561.72a4.09,4.09,0,0,1,1.21,3,5.25,5.25,0,0,1-1.81,4,7.23,7.23,0,0,1-5.12,1.68,7.41,7.41,0,0,1-5-1.59,4.76,4.76,0,0,1-1.82-3.71,4.3,4.3,0,0,1,.81-2.86,7.42,7.42,0,0,1,2.1-1.63,8.82,8.82,0,0,1-2.53-1.75,4.63,4.63,0,0,1-1.15-3.43,6.28,6.28,0,0,1,2-4.68,7.66,7.66,0,0,1,5.64-1.93,9,9,0,0,1,5.5,1.66,5.6,5.6,0,0,1,2.25,4.8,5.36,5.36,0,0,1-1,3.22,6.38,6.38,0,0,1-2.86,2.08A5.6,5.6,0,0,1,349.74,561.72Zm-9-9.46a3.41,3.41,0,0,0-1.31,2.93,3.71,3.71,0,0,0,1.32,3.1,5.28,5.28,0,0,0,3.4,1.07,4.91,4.91,0,0,0,3.29-1.08,3.69,3.69,0,0,0,1.28-3,3.88,3.88,0,0,0-1.17-2.81,4.81,4.81,0,0,0-3.59-1.2A5,5,0,0,0,340.71,552.26Zm.47,10.33a3.19,3.19,0,0,0-1.05,2.33,3,3,0,0,0,1,2.14,4.15,4.15,0,0,0,3.05,1,3.93,3.93,0,0,0,2.94-1,3.43,3.43,0,0,0,.89-2.3,2.7,2.7,0,0,0-1.18-2.31,4.67,4.67,0,0,0-2.75-.84A4.26,4.26,0,0,0,341.18,562.59Zm21.18,1.71v2a10.43,10.43,0,0,0-2.43.23,8.43,8.43,0,0,0-1.82.66,4.72,4.72,0,0,0-1.79,3.08h-2.2V549.48h3V564.3ZM348.22,20.05a4.13,4.13,0,0,1,1.21,3.06,5.24,5.24,0,0,1-1.82,4,7.23,7.23,0,0,1-5.11,1.67,7.4,7.4,0,0,1-5-1.58,4.78,4.78,0,0,1-1.82-3.71,4.29,4.29,0,0,1,.81-2.86A7.41,7.41,0,0,1,338.54,19,8.77,8.77,0,0,1,336,17.25a4.6,4.6,0,0,1-1.15-3.42,6.3,6.3,0,0,1,2-4.69,7.69,7.69,0,0,1,5.63-1.93A9,9,0,0,1,348,8.87a5.59,5.59,0,0,1,2.25,4.81,5.36,5.36,0,0,1-1,3.22A6.38,6.38,0,0,1,346.4,19,5.57,5.57,0,0,1,348.22,20.05Zm-9-9.46a3.48,3.48,0,0,0-1.31,2.94,3.77,3.77,0,0,0,1.33,3.1,5.32,5.32,0,0,0,3.4,1.06,4.91,4.91,0,0,0,3.29-1.08,3.71,3.71,0,0,0,1.27-3A3.89,3.89,0,0,0,346,10.81a4.77,4.77,0,0,0-3.59-1.2,5,5,0,0,0-3.23,1Zm.48,10.33a3.21,3.21,0,0,0-1.05,2.34,3,3,0,0,0,1,2.14,4.14,4.14,0,0,0,3.05,1,3.9,3.9,0,0,0,2.94-1,3.34,3.34,0,0,0,.89-2.3,2.65,2.65,0,0,0-1.18-2.31,4.62,4.62,0,0,0-2.74-.84A4.27,4.27,0,0,0,339.66,20.92Zm21.17,1.71v2a10.92,10.92,0,0,0-2.42.24,8.43,8.43,0,0,0-1.82.66,4.72,4.72,0,0,0-1.79,3.08h-2.2V7.81h3V22.63Zm243.39-2.58a4.11,4.11,0,0,1,1.21,3.06,5.27,5.27,0,0,1-1.82,4,7.25,7.25,0,0,1-5.11,1.67,7.42,7.42,0,0,1-5-1.58,4.8,4.8,0,0,1-1.81-3.71,4.29,4.29,0,0,1,.81-2.86A7.41,7.41,0,0,1,594.54,19,8.77,8.77,0,0,1,592,17.25a4.56,4.56,0,0,1-1.15-3.42,6.33,6.33,0,0,1,2-4.69,7.73,7.73,0,0,1,5.64-1.93A9,9,0,0,1,604,8.87a5.63,5.63,0,0,1,2.25,4.81,5.36,5.36,0,0,1-1,3.22A6.38,6.38,0,0,1,602.4,19a5.67,5.67,0,0,1,1.82,1.07Zm-9-9.46a3.48,3.48,0,0,0-1.31,2.94,3.77,3.77,0,0,0,1.33,3.1,5.3,5.3,0,0,0,3.4,1.06,4.91,4.91,0,0,0,3.29-1.08,3.71,3.71,0,0,0,1.27-3A3.93,3.93,0,0,0,602,10.8a4.85,4.85,0,0,0-3.59-1.2,5.05,5.05,0,0,0-3.23,1Zm.48,10.33a3.21,3.21,0,0,0-1,2.34,3,3,0,0,0,1,2.14,4.14,4.14,0,0,0,3,1,3.92,3.92,0,0,0,2.94-1,3.44,3.44,0,0,0,.89-2.31,2.67,2.67,0,0,0-1.18-2.3,4.65,4.65,0,0,0-2.75-.84,4.24,4.24,0,0,0-2.9,1Zm21.17,1.71v2a11,11,0,0,0-2.43.24,8.43,8.43,0,0,0-1.82.66,4.72,4.72,0,0,0-1.79,3.08h-2.2V7.81h3V22.63ZM126.1,18l24.59-3.95,24.58-3.94V25.89l-24.58-3.95Zm505.44,0,24.59-3.94,24.58-4V25.89l-24.58-3.95ZM61,81.53H49.74c-7.42,0-13.48-5.69-13.48-12.64V45.22c0-7,6.06-12.64,13.48-12.64H61c7.42,0,13.49,5.68,13.49,12.64V68.89c0,7-6.07,12.64-13.49,12.64Zm83.8,0H133.54c-7.42,0-13.49-5.69-13.49-12.64V45.22c0-7,6.07-12.64,13.49-12.64h11.28c7.42,0,13.49,5.68,13.49,12.64V68.89c0,7-6.07,12.64-13.49,12.64Zm83.8,0H217.34c-7.42,0-13.49-5.69-13.49-12.64V45.22c0-7,6.07-12.64,13.49-12.64h11.28c7.42,0,13.48,5.68,13.48,12.64V68.89c0,7-6.06,12.64-13.48,12.64Zm83.8,0H301.14c-7.42,0-13.49-5.69-13.49-12.64V45.22c0-7,6.07-12.64,13.49-12.64h11.28c7.42,0,13.48,5.68,13.48,12.64V68.89c0,7-6.06,12.64-13.48,12.64Zm83.8,0H384.93c-7.42,0-13.49-5.69-13.49-12.64V45.22c0-7,6.07-12.64,13.49-12.64h11.28c7.42,0,13.49,5.68,13.49,12.64V68.89c0,7-6.07,12.64-13.49,12.64Zm83.8,0H468.73c-7.42,0-13.49-5.69-13.49-12.64V45.22c0-7,6.07-12.64,13.49-12.64H480c7.42,0,13.49,5.68,13.49,12.64V68.89c0,7-6.07,12.64-13.49,12.64Zm83.8,0H552.53c-7.42,0-13.49-5.69-13.49-12.64V45.22c0-7,6.07-12.64,13.49-12.64h11.28c7.42,0,13.49,5.68,13.49,12.64V68.89c0,7-6.07,12.64-13.49,12.64Zm83.8,0H636.33c-7.42,0-13.49-5.69-13.49-12.64V45.22c0-7,6.07-12.64,13.49-12.64h11.28c7.42,0,13.49,5.68,13.49,12.64V68.89c0,7-6.07,12.64-13.49,12.64ZM59.32,551.4H48c-7.42,0-13.48-5.69-13.48-12.64V515.09c0-7,6.06-12.64,13.48-12.64H59.32c7.42,0,13.48,5.68,13.48,12.64v23.67C72.8,545.71,66.74,551.4,59.32,551.4Zm83.8,0H131.83c-7.42,0-13.48-5.69-13.48-12.64V515.09c0-7,6.06-12.64,13.48-12.64h11.29c7.41,0,13.48,5.68,13.48,12.64v23.67c0,7-6.07,12.64-13.48,12.64Zm83.8,0H215.63c-7.42,0-13.49-5.69-13.49-12.64V515.09c0-7,6.07-12.64,13.49-12.64h11.28c7.42,0,13.49,5.68,13.49,12.64v23.67c0,7-6.07,12.64-13.49,12.64Zm83.8,0H299.43c-7.42,0-13.49-5.69-13.49-12.64V515.09c0-7,6.07-12.64,13.49-12.64h11.28c7.42,0,13.49,5.68,13.49,12.64v23.67c0,7-6.07,12.64-13.49,12.64Zm83.8,0H383.23c-7.42,0-13.49-5.69-13.49-12.64V515.09c0-7,6.07-12.64,13.49-12.64h11.28c7.42,0,13.49,5.68,13.49,12.64v23.67c0,7-6.07,12.64-13.49,12.64Zm83.8,0H467c-7.42,0-13.49-5.69-13.49-12.64V515.09c0-7,6.07-12.64,13.49-12.64h11.28c7.42,0,13.48,5.68,13.48,12.64v23.67c0,7-6.06,12.64-13.48,12.64Zm83.8,0H550.83c-7.42,0-13.49-5.69-13.49-12.64V515.09c0-7,6.07-12.64,13.49-12.64h11.28c7.42,0,13.48,5.68,13.48,12.64v23.67c0,7-6.06,12.64-13.48,12.64ZM659,512q.07,15,0,29.88a13.39,13.39,0,0,1-13.07,9.56H634.63c-7.42,0-13.48-5.69-13.48-12.64V515.09c0-7,6.06-12.64,13.48-12.64h11.28A13.39,13.39,0,0,1,659,512Zm17.63,72.18L0,580.64V0L592.69,2.16c62.93.22,115-2,176.86,1.45-1.21,11.93-18.18,26.55-19.33,38.51s13.5,21.25,12.4,33.24-16.26,22.88-17.3,34.9,12.06,25.12,11.09,37.16-18.85,20-19.76,32.06,15.14,28.23,14.29,40.33-15.94,22-16.72,34.11S747,280.4,746.29,292.55s-16.8,22.3-17.43,34.48,14.19,26.42,13.63,38.64-18.58,23.93-19.06,36.19,16.55,25,16.15,37.33-16.93,25-17.25,37.33,15.56,24.25,15.31,36.61-15.1,27.22-15.25,39.62,14.39,22.33,14.32,34.77l-4.89-.28-4.9-.27Z"/></svg>