<svg id="Layer_1" data-name="Layer 1" xmlns="http://www.w3.org/2000/svg" viewBox="0 0 231.61 56.39"><defs><style>.cls-1,.cls-2{fill:#fff;}.cls-2{fill-rule:evenodd;}</style></defs><g id="Group_544" data-name="Group 544"><g id="Group_543" data-name="Group 543"><path id="Path_213" data-name="Path 213" class="cls-1" d="M93.34,41.68c-1.08,0-1.73-.64-1.73-2.3l0-15.13c0-7.27-5.71-10.07-14.07-10a27.05,27.05,0,0,0-14.4,4.05l0,8.5a18.14,18.14,0,0,1,12.24-5.57c4.53,0,6,2.44,5.77,5.54-13.9,4.35-19.73,5.94-19.72,13.88l-12,0,0-25.93-10.45,0L39,47.85l27.47-.06a10,10,0,0,0,4.26.92c3.6,0,6.92-1,10.94-3.77.73,2.67,2.39,3.74,5.85,3.74a21.74,21.74,0,0,0,9.79-3V39.8C94.85,41.53,94.06,41.68,93.34,41.68ZM82.28,39.6a8.88,8.88,0,0,1-5.76,2.53,3.45,3.45,0,0,1-3.39-3.52c0-3.32,2.94-4.76,9.13-7Z"/><path id="Path_214" data-name="Path 214" class="cls-2" d="M121,16.41A22.23,22.23,0,0,0,110.25,14C102,14,96.49,18.11,96.51,24.23,96.53,35.11,113,34.21,113,39c0,1.51-1.94,2.45-5,2.46-4,0-7.35-1.36-10.74-2.79l0,7.35a30.18,30.18,0,0,0,11.89,2.43c8.64,0,13.53-3.92,13.52-10.84,0-11.09-16.52-11.2-16.52-14.88,0-2.3,2.37-2.6,3.74-2.6A23.3,23.3,0,0,1,121,23.83Z"/><rect id="Rectangle_10" data-name="Rectangle 10" class="cls-1" x="124.66" y="14.43" width="10.44" height="33.21" transform="translate(-0.05 0.23) rotate(-0.1)"/><path id="Path_215" data-name="Path 215" class="cls-2" d="M150.15,14.31l-10.44,0,.06,33.28,10.45,0,0-16.35h.15l12.92,16.33,12.82,0L162.5,30.79l12.93-16.45-12.24,0L150.33,30.81h-.15Z"/><path id="Path_216" data-name="Path 216" class="cls-2" d="M12.25,14.7,2,14.78,2.06,48l10.24-.09,0-16.31h.14L25.31,47.87l12.79,0L24.56,31.13l12.9-16.4-12.21,0L12.42,31.16h-.14Z"/><path id="Path_217" data-name="Path 217" class="cls-1" d="M196.22,20.83l-9.61,0,0,14.06c0,3.27,1.76,5.37,4.78,5.36a12.67,12.67,0,0,0,6.52-2v7.62a20.52,20.52,0,0,1-9,2.12c-6.45,0-12-3.17-12-12.53l0-14.65-6.53,0L186.68,0l-.08,14.25h11.28l5.74,0,6.47,18,6.46-18,10.11,0L212.81,47.54l-5.32,0Z"/></g></g></svg>