<?xml version="1.0" encoding="utf-8"?>
<!-- Generator: Adobe Illustrator 19.0.0, SVG Export Plug-In . SVG Version: 6.00 Build 0)  -->
<svg version="1.1" id="Layer_1" xmlns="http://www.w3.org/2000/svg" xmlns:xlink="http://www.w3.org/1999/xlink" x="0px" y="0px"
	 viewBox="0 0 602.2 221.6" style="enable-background:new 0 0 602.2 221.6;" xml:space="preserve">
<style type="text/css">
	.st0{fill:#FFFFFF;}
	.st1{fill:#EB008B;}
	.st2{fill:#FFF100;}
	.st3{fill:#00ADEE;}
	.st4{fill:#00A551;}
	.st5{fill:#2E3191;}
</style>
<path class="st0" d="M586.2,145.9c2.3,0,4.4,0.7,4.4,3c0,2.3-2,3.6-4.4,3.6h-11v-6.6H586.2z M586.7,155.3c2.4,0,4.4,1.2,4.4,3.5
	c0,2.3-1.9,3.1-4.4,3.1h-11.4v-6.6H586.7z M586.7,164.7c4.1,0,7.4-1.7,7.4-5.7c0-3.1-1.9-4.7-4.5-5.1c2.4-0.6,4.1-2.3,4.1-5.2
	c0-4-3.5-5.6-7.4-5.6h-14v21.5H586.7z M547.6,164.7v-2.8h-16v-6.6h14.3v-2.8h-14.3v-6.6h16v-2.8h-19v21.5H547.6z M496,145.9
	c2.7,0,4.8,1.3,4.8,4.3c0,3.2-2.2,4.4-4.8,4.4h-10.1v-8.7H496z M503.8,164.7l-6.1-7.3c3.5-0.4,6.1-2.7,6.1-7.1c0-5-3.4-7.1-7.8-7.1
	h-13.1v21.5h3v-7.2h8.2l6,7.2H503.8z M457.3,164.7v-12h-11.4v2.4h8.8v5.8c-2.3,1-4.7,1.5-7,1.5c-5.1,0-9-2.4-9-8.4
	c0-6,4.1-8.4,9.4-8.4c2.7,0,5.5,0.6,7.9,1.7l0.8-2.6c-2.7-1.3-5.7-1.9-8.8-1.9c-6.9,0-12.3,3.2-12.3,11.2c0,7.9,5.3,11.2,12,11.2
	c2.7,0,5.2-0.5,7.6-1.5l0.5,1.1H457.3z M407.2,157.1h-11l5.5-10.4L407.2,157.1z M411.2,164.7h3.3l-11.5-21.5h-2.8l-11.5,21.5h3.3
	l2.5-4.8h13.9L411.2,164.7z M367.1,164.7v-2.8h-15.7l15.7-16.3v-2.5h-19.2v2.8H363l-15.7,16.3v2.5H367.1z"/>
<path class="st0" d="M538.7,114h-11l5.5-10.4L538.7,114z M542.7,121.6h3.3l-11.5-21.5h-2.8l-11.5,21.5h3.3l2.5-4.8h13.9L542.7,121.6
	z M497.3,100.1h-3v21.5h3V100.1z M450.4,118.8v-15.9h7.5c4.9,0,8.9,2.3,8.9,8c0,5.7-4,8-8.9,8H450.4z M457.9,121.6
	c6.6,0,11.8-3.2,11.8-10.8c0-7.6-5.2-10.8-11.8-10.8h-10.5v21.5H457.9z M422.8,121.6v-2.8h-16v-6.6H421v-2.8h-14.3v-6.6h16v-2.8h-19
	v21.5H422.8z M378,121.6v-21.5h-3.1l-11.5,19l-11.5-19h-3.2v21.5h3v-16.5l10.1,16.5h3.2l10.1-16.5v16.5H378z"/>
<path class="st0" d="M531.7,70.9h-11l5.5-10.4L531.7,70.9z M535.8,78.5h3.3L527.7,57h-2.8l-11.5,21.5h3.3l2.5-4.8h13.9L535.8,78.5z
	 M490.4,57h-3v21.5h3V57z M455.1,59.8c2.7,0,4.8,1.3,4.8,4.3c0,3.2-2.2,4.4-4.8,4.4H445v-8.7H455.1z M462.9,78.5l-6.1-7.3
	c3.5-0.4,6.1-2.7,6.1-7.1c0-5-3.4-7.1-7.8-7.1h-13.1v21.5h3v-7.2h8.2l6,7.2H462.9z M398,75.7V59.8h7.5c4.9,0,8.9,2.3,8.9,8
	c0,5.7-4,8-8.9,8H398z M405.5,78.5c6.6,0,11.8-3.2,11.8-10.8c0-7.6-5.2-10.8-11.8-10.8H395v21.5H405.5z M364.4,70.9h-11l5.5-10.4
	L364.4,70.9z M368.5,78.5h3.3L360.3,57h-2.8l-11.5,21.5h3.3l2.5-4.8h13.9L368.5,78.5z"/>
<path id="XMLID_100_" class="st1" d="M36.7,180.9c0,17.8,14.4,32.2,32.2,32.2h186c17.8,0,32.2-14.4,32.2-32.2v-18
	c0-17.8-14.4-32.2-32.2-32.2h-186c-17.8,0-32.2,14.4-32.2,32.2V180.9z"/>
<path class="st2" d="M257.2,90.7c6.2-0.6,23.2-3.8,28.4-21C280.4,86.9,263.4,90.1,257.2,90.7 M257.1,90.7c-0.1,0-0.2,0-0.3,0
	C256.9,90.8,257,90.8,257.1,90.7 M256.8,90.8c-0.1,0-0.2,0-0.3,0C256.6,90.8,256.7,90.8,256.8,90.8 M256.5,90.8
	c-0.4,0-0.7,0-0.9,0.1C255.8,90.8,256.1,90.8,256.5,90.8 M255.5,90.9c0,0-0.1,0-0.1,0C255.4,90.9,255.4,90.9,255.5,90.9 M255.3,90.9
	C255.2,90.9,255.2,90.9,255.3,90.9C255.2,90.9,255.2,90.9,255.3,90.9 M255.1,90.9C255.1,90.9,255.1,90.9,255.1,90.9
	C255.1,90.9,255.1,90.9,255.1,90.9 M255,90.9C255,90.9,255,90.9,255,90.9C255,90.9,255,90.9,255,90.9 M287.1,58.7v-18
	c0,0,0-32.2-32.2-32.2H40.3c0,0-32.2,0-32.2,32.2v18c0,0,0,32.2,32.2,32.2h46.2c6.4-21.1,30.7-21.1,30.7-21.1h168.4
	C286.5,66.6,287.1,62.9,287.1,58.7"/>
<path class="st3" d="M117.1,152.2c-0.6,0-1.1,0-1.7,0C116,152.2,116.6,152.2,117.1,152.2 M114.9,152.1c-0.4,0-0.7,0-1.1-0.1
	C114.2,152.1,114.6,152.1,114.9,152.1 M113.3,152c-0.3,0-0.7-0.1-1-0.1C112.6,151.9,112.9,152,113.3,152 M111.7,151.8
	c-0.4,0-0.8-0.1-1.2-0.2C110.9,151.7,111.3,151.8,111.7,151.8 M110.2,151.6c-0.5-0.1-1-0.2-1.4-0.3
	C109.3,151.5,109.7,151.5,110.2,151.6 M108.4,151.3c-0.3-0.1-0.7-0.2-1-0.2C107.8,151.1,108.1,151.2,108.4,151.3 M107,150.9
	c-0.3-0.1-0.6-0.2-0.9-0.2C106.4,150.8,106.7,150.8,107,150.9 M105.6,150.5c-0.3-0.1-0.6-0.2-0.9-0.3
	C105.1,150.3,105.3,150.4,105.6,150.5 M104.4,150.1c-0.4-0.1-0.8-0.3-1.2-0.5C103.6,149.8,104,150,104.4,150.1 M103.1,149.6
	c-0.3-0.1-0.7-0.3-1-0.4C102.4,149.3,102.7,149.4,103.1,149.6 M101.7,149c-0.2-0.1-0.5-0.2-0.7-0.4
	C101.2,148.7,101.4,148.8,101.7,149 M100.6,148.4c-0.2-0.1-0.5-0.3-0.7-0.4C100.1,148.1,100.3,148.2,100.6,148.4 M99.5,147.8
	c-0.3-0.2-0.6-0.3-0.8-0.5C99,147.4,99.2,147.6,99.5,147.8 M98.5,147.2c-0.3-0.2-0.6-0.4-0.9-0.7C97.9,146.7,98.2,147,98.5,147.2
	 M97.4,146.3c-0.2-0.2-0.4-0.3-0.6-0.5C96.9,146,97.1,146.2,97.4,146.3 M96.4,145.6c-0.2-0.2-0.4-0.3-0.6-0.5
	C96,145.3,96.2,145.4,96.4,145.6 M95.6,144.9c-0.2-0.2-0.4-0.4-0.6-0.6C95.2,144.5,95.4,144.7,95.6,144.9 M94,143.3
	c0.2,0.3,0.5,0.5,0.8,0.8C94.5,143.9,94.2,143.6,94,143.3 M114.9,69.9c-6.2,0.6-23.2,3.8-28.4,21C91.6,73.7,108.7,70.5,114.9,69.9
	 M318.8,120v-18c0,0,0-32.2-32.2-32.2H117.1c0,0-0.1,0-0.1,0c0.1,0,0.1,0,0.1,0h168.4c-6.4,21.1-30.7,21.1-30.7,21.1H86.5
	c-1,3.2-1.5,6.9-1.5,11.1v18c0,0,0,5.8,2.5,12.5c-0.2-0.6-0.4-1.2-0.6-1.8h168.1c19.7,0,27.4,12.1,30.3,21.5h1.4
	C286.6,152.2,318.8,152.2,318.8,120 M114.9,69.9c0.1,0,0.2,0,0.3,0C115.1,69.9,115,69.9,114.9,69.9 M115.2,69.9c0.1,0,0.2,0,0.3,0
	C115.4,69.9,115.3,69.9,115.2,69.9 M115.5,69.8c0.5,0,0.9-0.1,1.2-0.1C116.4,69.8,116,69.8,115.5,69.8 M116.7,69.8c0,0,0.1,0,0.1,0
	C116.8,69.8,116.8,69.8,116.7,69.8 M116.9,69.8c0,0,0.1,0,0.1,0C116.9,69.8,116.9,69.8,116.9,69.8 M93.9,143.2
	c-0.2-0.2-0.4-0.5-0.6-0.7C93.5,142.8,93.7,143,93.9,143.2 M93.1,142.3c-0.2-0.2-0.3-0.4-0.5-0.6C92.8,141.9,92.9,142.1,93.1,142.3
	 M92.4,141.5c-0.2-0.2-0.3-0.4-0.5-0.6C92.1,141.1,92.2,141.3,92.4,141.5 M91.8,140.7c-0.4-0.6-0.8-1.1-1.2-1.7
	C91,139.5,91.3,140.1,91.8,140.7 M90.5,138.8c-0.1-0.2-0.3-0.5-0.4-0.7C90.2,138.3,90.3,138.6,90.5,138.8 M89.9,137.9
	c-0.1-0.2-0.3-0.5-0.4-0.7C89.7,137.4,89.8,137.7,89.9,137.9 M89.4,137c-0.1-0.3-0.3-0.6-0.4-0.8C89.2,136.5,89.3,136.7,89.4,137
	 M89,136.2c-0.3-0.6-0.6-1.2-0.8-1.8C88.4,135,88.7,135.6,89,136.2 M88.1,134.2c-0.1-0.3-0.2-0.5-0.3-0.8
	C87.9,133.7,88,134,88.1,134.2 M87.7,133.3c-0.1-0.3-0.2-0.5-0.3-0.8C87.5,132.8,87.6,133.1,87.7,133.3"/>
<path id="XMLID_55_" class="st4" d="M285.6,69.8H117.1c0,0-24.3,0-30.7,21.1h168.4C254.9,90.9,279.2,90.9,285.6,69.8"/>
<path id="XMLID_54_" class="st5" d="M285.2,152.2c-3-9.4-10.6-21.5-30.3-21.5H86.8c3,9.4,10.6,21.5,30.3,21.5H285.2z"/>
</svg>
