<svg id="Layer_1" data-name="Layer 1" xmlns="http://www.w3.org/2000/svg" xmlns:xlink="http://www.w3.org/1999/xlink" viewBox="0 0 530.18 792.93"><defs><style>.cls-1{fill:url(#linear-gradient);}.cls-2{fill:url(#linear-gradient-2);}.cls-3{fill:url(#linear-gradient-3);}.cls-4{fill:url(#linear-gradient-4);}.cls-5{fill:url(#linear-gradient-5);}.cls-6{fill:url(#linear-gradient-6);}.cls-7{fill:url(#linear-gradient-7);}.cls-8{fill:url(#linear-gradient-8);}.cls-9{fill:url(#radial-gradient);}.cls-10{fill:#e6e6e6;}</style><linearGradient id="linear-gradient" x1="-1411.15" y1="1442.11" x2="-1410.15" y2="1442.11" gradientTransform="matrix(26.17, 0, 0, -32.05, 36961.05, 46822.87)" gradientUnits="userSpaceOnUse"><stop offset="0" stop-color="#e6e6e6"/><stop offset="0.5" stop-color="#fff"/><stop offset="0.98" stop-color="#e6e6e6"/></linearGradient><linearGradient id="linear-gradient-2" x1="-1389.93" y1="1421.38" x2="-1388.93" y2="1421.38" gradientTransform="matrix(528.18, 0, 0, -790.65, 734132, 1124209.56)" xlink:href="#linear-gradient"/><linearGradient id="linear-gradient-3" x1="-1406.53" y1="1437.64" x2="-1405.53" y2="1437.64" gradientTransform="matrix(32.99, 0, 0, -40.43, 46444.9, 58724.06)" xlink:href="#linear-gradient"/><linearGradient id="linear-gradient-4" x1="-1389.93" y1="1421.38" x2="-1388.93" y2="1421.38" gradientTransform="matrix(527.19, 0, 0, -791.63, 732753.92, 1125601.33)" xlink:href="#linear-gradient"/><linearGradient id="linear-gradient-5" x1="-1389.96" y1="1421.4" x2="-1388.96" y2="1421.4" gradientTransform="matrix(513.58, 0, 0, -772.76, 713861.66, 1098785.85)" xlink:href="#linear-gradient"/><linearGradient id="linear-gradient-6" x1="-1402.4" y1="1433.65" x2="-1401.4" y2="1433.65" gradientTransform="matrix(43.02, 0, 0, -52.7, 60370.96, 76165.79)" xlink:href="#linear-gradient"/><linearGradient id="linear-gradient-7" x1="-1395.82" y1="1427.28" x2="-1394.82" y2="1427.28" gradientTransform="matrix(83.42, 0, 0, -102.21, 116481.67, 146530.61)" xlink:href="#linear-gradient"/><linearGradient id="linear-gradient-8" x1="-1389.96" y1="1421.4" x2="-1388.96" y2="1421.4" gradientTransform="matrix(512.59, 0, 0, -773.75, 712487.64, 1100186.47)" xlink:href="#linear-gradient"/><radialGradient id="radial-gradient" cx="-1394.02" cy="1427.26" r="0.46" gradientTransform="matrix(102.4, 0, 0, -102.41, 142825.41, 146813.84)" gradientUnits="userSpaceOnUse"><stop offset="0" stop-color="#fff"/><stop offset="1" stop-color="#b3b4b4"/></radialGradient></defs><g id="Group_506" data-name="Group 506"><g id="Group_500" data-name="Group 500"><path id="Path_44" data-name="Path 44" class="cls-1" d="M37.2,583.07a3,3,0,0,0-.22-.28l26.17,32.06-9.86-12.08Z"/><path id="Path_45" data-name="Path 45" class="cls-2" d="M316.18,188.8c22.6,54.39,29,105.77,23.71,152.31C333,401.87,306.3,454.37,270.08,494.42s-81.92,67.68-126.81,78.75C87.61,586.9,33.27,575.1,0,530l37.2,50.48a.39.39,0,0,0,.08.1l16,21.73L70,624.93l-6.84-9.28,57.42,77.92-.2-.27,36.89,50.05c33.26,45.14,87.6,56.93,143.27,43.21,44.88-11.07,90.59-38.69,126.81-78.75s62.93-92.55,69.81-153.31c5.26-46.54-1.11-97.92-23.72-152.31-11.17-26.86-14.4-53.3-11.54-78.58,5.27-46.56,31.19-89.2,66.29-123.29v-48l-6.45-8.75c-2.41-3.78-1-8.6,3.52-12.29.64-.48,1.28-1,1.93-1.43.32-.23.66-.43,1-.63V119.6a304.15,304.15,0,0,0-33,26.77q-3.7,3.48-7.3,7.07l-83.29-113q3.57-3.6,7.29-7.07a306.5,306.5,0,0,1,40.81-32H437.72a15.76,15.76,0,0,1-3,3.07c-.65.47-1.29,1-1.93,1.43-4.9,3.39-9.69,3.42-12.51.1l-3.38-4.6H357.15c-28,31.39-48,68.69-52.51,108.92C301.78,135.5,305,161.94,316.18,188.8Zm6.26-10-.36-1.9a9.55,9.55,0,0,1-.18-2.61c.09-.74.59-2.87,3.43.76l7.53,10.22a40.49,40.49,0,0,1,5.74,14l.36,1.9a13.56,13.56,0,0,1,.29,2.62c-.07,2-1.08,1.77-3-.72l-7.53-10.22a42.47,42.47,0,0,1-6.29-14.09ZM340.38,226a83.25,83.25,0,0,1-7.84-14.51l-.48-1.16c-.11-.27-.22-.54-.34-.81a12.86,12.86,0,0,1-1-3.48c0-.76.43-1.13,2.42,1.47l7.53,10.22a81.68,81.68,0,0,1,7.58,14.2l.34.82.48,1.16c1.38,3.46,1.18,3.85,1,4.26-.48.05-1.12-.64-2.11-1.95Zm96.07,126q6.71,16.14,11.54,31.92l-83.28-113q-4.87-15.76-11.55-31.92a156.89,156.89,0,0,1-12.23-70.63l83.29,113A157,157,0,0,0,436.45,352ZM369,364.52l-7.52-10.21a25.23,25.23,0,0,1-4.16-13.52c0-.59,0-1.18.06-1.77,0-.22,0-.51,0-.73.05-.59.66-5.63,4.55-.68l7.53,10.22a25.9,25.9,0,0,1,4.4,13.6l-.06,1.77c-.27,4.11-2.22,4.64-4.83,1.33Zm2.14,29.13c-.11.81-.24,1.62-.36,2.43-1.05,5.67-3.57,7.29-6.26,4L357,389.87c-2.5-3.76-3.54-10-2.73-16.2.12-.81.24-1.63.37-2.44.65-4.14,2.18-8.15,5.73-3.68l7.53,10.22c3.95,5.75,3.59,13,3.26,15.88Zm2-59.79c0,.5-.4,4.8-4,.18l-7.54-10.22a31.58,31.58,0,0,1-5-13.8l-.15-1.84a13.77,13.77,0,0,1,0-1.44c0-1.14.45-4.53,3.78-.25l7.53,10.22a32.25,32.25,0,0,1,5.25,13.88c.05.62.1,1.23.14,1.84a11.54,11.54,0,0,1,0,1.44Zm-7.33-31.42-7.53-10.22a40.74,40.74,0,0,1-5.87-14.07l-.36-1.9a11.62,11.62,0,0,1-.26-2.63c.07-1.41.67-2.44,3.09.69l7.53,10.22a41.83,41.83,0,0,1,6.16,14.14c.12.63.24,1.27.35,1.9a9.61,9.61,0,0,1,.21,2.62c-.08.94-.59,2.75-3.31-.75Zm-7-32.63-7.53-10.22a55.62,55.62,0,0,1-6.82-14.3l-.59-2a12.39,12.39,0,0,1-.67-3.56c.17-1.68,1.88.55,2.53,1.38l7.53,10.23a57.17,57.17,0,0,1,7.12,14.37l.6,2a13.15,13.15,0,0,1,.6,3.17c0,.91-.42,2-2.76-1.06ZM345,413.52c.24-.74.47-1.5.7-2.25,1.32-4.08,4-7.45,7.24-3.53L360.45,418c2.59,3.91,3.27,10.08,1.74,15.71-.23.76-.46,1.51-.7,2.26-1.85,5.25-4.93,6.57-7.65,3.29L346.32,429c-2.47-3.76-3-9.69-1.34-15.49Zm31.89-22.23c.12-1.1.24-2.21.35-3.31l83.31,113c-.12,1.11-.23,2.21-.36,3.32a271.33,271.33,0,0,1-39.78,113.56l-83.29-113A271.33,271.33,0,0,0,376.87,391.3Zm1.07-11.81c2.17-31.15-.88-64.34-10.45-99l83.29,113c9.57,34.69,12.62,67.88,10.46,99Zm71.4-5.6a82.89,82.89,0,0,1-7.84-14.51c-.15-.39-.31-.77-.47-1.16s-.23-.54-.34-.81a12.86,12.86,0,0,1-1-3.48c0-.76.42-1.13,2.42,1.47l7.52,10.22a82,82,0,0,1,7.59,14.2l.33.82c.17.38.33.77.48,1.16,1.38,3.46,1.17,3.87,1,4.26-.48.05-1.11-.65-2.11-1.95Zm-11.65-33.09a42.61,42.61,0,0,1-6.29-14.1c-.12-.63-.24-1.27-.35-1.9a10,10,0,0,1-.19-2.61c.09-.74.6-2.88,3.43.75l7.52,10.22a40.37,40.37,0,0,1,5.75,14.05l.36,1.9a12.16,12.16,0,0,1,.29,2.62q-.1,3-3-.72Zm12.41-60.86c-.19.75-.38,1.49-.56,2.23-1.44,5.32-3.88,6.58-6.5,3.37l-7.53-10.22c-2.65-4-3.63-10.07-2.49-15.56.19-.74.37-1.49.56-2.23,1.22-4.43,4.07-6.95,7.17-3.21l7.53,10.22c2.93,4.43,2.86,10.86,1.83,15.41ZM433.45,291.3,441,301.52a25.76,25.76,0,0,1,4.1,13.82c0,.62,0,1.23,0,1.85,0,.23,0,.54,0,.76-.07,1-.64,5.7-4.38.94l-7.52-10.22a26.88,26.88,0,0,1-4.58-13.9c0-.62,0-1.23,0-1.85C428.72,289.25,430.45,287.52,433.45,291.3ZM330.31,450.38l1-2.08c2-4.05,5.41-6.47,8.5-2.75l7.53,10.22c2.54,3.87,2.73,9.74.48,14.94-.33.7-.66,1.4-1,2.08-2.55,4.8-6.11,5.8-8.85,2.5l-7.54-10.22C328,461.33,327.94,455.7,330.31,450.38ZM311,483.9c.42-.62.83-1.24,1.24-1.87,2.51-3.65,6.44-5.66,9.58-1.91l7.54,10.23c2.5,3.83,2.26,9.37-.6,14.1l-1.25,1.87c-3.19,4.35-7.07,5-9.87,1.64l-7.54-10.23c-2.42-3.73-2.08-9,.9-13.83Zm-23.12,29.9,1.46-1.65c2.92-3.23,7.29-4.78,10.46-1l7.54,10.22c2.46,3.8,1.87,9-1.49,13.18-.48.56-1,1.1-1.45,1.66-3.95,4.11-8.5,4.65-11.32,1.34l-7.53-10.23C283.25,523.67,284.17,518.36,287.92,513.8Zm-29.83,29.07c.62-.51,1.24-1,1.86-1.57,3.75-3.09,9-4.52,12.19-.74l7.54,10.22c2.38,3.75,1.09,9-3.21,12.93l-1.86,1.58c-4.65,3.6-9.53,3.73-12.41.31l-7.54-10.21c-2.34-3.69-1-8.49,3.43-12.52Zm-33,23.81,2-1.23c4-2.43,9.58-3.16,12.82.68l7.54,10.21c2.36,3.71.82,8.34-3.84,11.52l-2,1.24c-5,2.77-10,2.32-13-1.13l-7.54-10.23C218.77,574.1,220.29,569.86,225.08,566.68Zm-34.79,17.78,2.07-.88c4.22-1.7,9.93-1.67,13.18,2.2L213.07,596c2.36,3.67.67,7.68-4.19,10-.69.29-1.38.59-2.08.87-5.11,1.88-10.31.82-13.22-2.68L186,594C183.72,590.36,185.34,586.72,190.29,584.46Zm-34.85,11.15,1.79-.41a13.22,13.22,0,0,1,12.94,3.9l7.54,10.23c.4.63,3.77,6.19-4,8.28L172,618a12.82,12.82,0,0,1-12-4.55l-7.54-10.22c-2.36-3.56-1.21-6.49,3-7.65Zm-30.22,4.28,1.75-.1a15.14,15.14,0,0,1,11.9,5.46l7.53,10.22c2.39,3.56,1.22,6.27-2.91,6.73-.59,0-1.17.08-1.76.1a15.6,15.6,0,0,1-11.81-5.86l-7.53-10.23C120,602.71,121.11,600.29,125.22,599.89Zm-29.14-1.16,1.66.21a19.48,19.48,0,0,1,11.58,6.83L116.85,616c2.41,3.54,1.37,5.7-2.58,5.37-.56-.07-1.12-.14-1.67-.23a20.18,20.18,0,0,1-11.44-7.25l-7.53-10.22c-2.4-3.5-1.48-5.34,2.46-4.93Zm-27.33-6.92c.51.2,1,.39,1.54.57a28,28,0,0,1,11.07,8.27l7.53,10.22a10,10,0,0,1,1,1.72c.28.62,1.42,3.66-3.11,2.21l-1.55-.57c-4.5-1.86-8.67-5.86-10.88-8.72l-7.53-10.22a13.26,13.26,0,0,1-1-1.69c-.59-1.25-1-3.15,3-1.78ZM44,578.89c.45.31.9.62,1.36.92a49.72,49.72,0,0,1,10.39,9.78l7.54,10.22a10.67,10.67,0,0,1,1.41,2.48c.23.79.17,1.83-2.81-.06l-1.38-.93a52.93,52.93,0,0,1-10.14-10.25l-7.53-10.22a9.89,9.89,0,0,1-1.56-2.66c-.25-1.26,1.91.18,2.72.72Zm-1.73,6.47a9,9,0,0,1-2.14-2c-.39-.43-.78-.87-1.16-1.31-1.07-1.24-3.29-3.82-9.23-11.85L22.16,560c-1.69-2.3-1.7-2.34-1.77-2.56.27.24.68.7,2,2.22l1.16,1.3c4.08,4.54,7.29,8.37,9.53,11.36l7.53,10.22a11.62,11.62,0,0,1,1.68,2.7.83.83,0,0,1-.07.13Zm.49,2c20.41,23.81,47.41,36.77,77.27,40.35l83.3,113c-29.86-3.59-56.87-16.55-77.29-40.36ZM151.19,733.21a9,9,0,0,1-2.14-2l-1.17-1.31c-1.07-1.25-3.3-3.83-9.23-11.86l-7.52-10.22c-1.69-2.29-1.7-2.34-1.77-2.55.26.24.68.7,2,2.21.38.44.77.88,1.16,1.31,4.09,4.54,7.29,8.37,9.53,11.36l7.53,10.21a12.25,12.25,0,0,1,1.68,2.71S151.22,733.18,151.19,733.21Zm19.61,16.88c-.46-.3-.92-.62-1.37-.93a52.75,52.75,0,0,1-10.15-10.26l-7.53-10.21A10.18,10.18,0,0,1,150.2,726c-.26-1.26,1.82.13,2.71.72l1.37.93a49.21,49.21,0,0,1,10.39,9.78l7.53,10.21a10.32,10.32,0,0,1,1.41,2.48c.23.8.18,1.84-2.81-.06Zm25,12.57-1.54-.57c-4.5-1.87-8.68-5.87-10.89-8.73l-7.52-10.22a11.24,11.24,0,0,1-1-1.68c-.6-1.25-1-3.15,2.94-1.79.51.19,1,.39,1.55.57a27.89,27.89,0,0,1,11.07,8.26l7.53,10.22a11.51,11.51,0,0,1,1,1.72c.27.63,1.41,3.67-3.12,2.22Zm27.46,6.56-1.67-.23a20.26,20.26,0,0,1-11.44-7.26l-7.53-10.22c-2.4-3.49-1.48-5.34,2.45-4.93l1.67.22a19.52,19.52,0,0,1,11.57,6.82l7.53,10.22c2.42,3.55,1.38,5.71-2.58,5.38Zm29.23.84-1.76.1a15.62,15.62,0,0,1-11.82-5.86l-7.53-10.23c-2.37-3.5-1.28-5.92,2.83-6.32l1.76-.11a15.2,15.2,0,0,1,11.9,5.46l7.53,10.22c2.38,3.56,1.22,6.27-2.91,6.74Zm-40.92-28.58-83.29-113a172.55,172.55,0,0,0,52-5.1,226.94,226.94,0,0,0,49.54-18.83l83.3,113a228.24,228.24,0,0,1-49.55,18.83,173.19,173.19,0,0,1-52,5.1Zm71.17,24-1.79.41a12.81,12.81,0,0,1-12-4.55l-7.53-10.22c-2.37-3.56-1.21-6.48,3-7.64l1.79-.42A13.2,13.2,0,0,1,279.13,747l7.53,10.22c.41.62,3.78,6.19-4,8.29Zm35.13-11.62c-.69.3-1.38.59-2.08.87-5.11,1.88-10.31.82-13.23-2.69L295,741.81c-2.32-3.6-.7-7.23,4.24-9.5.7-.28,1.39-.57,2.08-.87,4.22-1.7,9.93-1.68,13.18,2.2L322,743.85c2.35,3.67.67,7.69-4.19,10Zm34.72-18.13-2,1.23c-5,2.77-10.06,2.32-13-1.13l-7.53-10.22c-2.33-3.64-.81-7.88,4-11.06.67-.4,1.33-.82,2-1.23,4-2.43,9.59-3.16,12.82.67l7.53,10.22c2.37,3.71.83,8.34-3.83,11.52Zm32.87-24.15c-.62.53-1.23,1-1.86,1.57-4.65,3.61-9.53,3.73-12.42.32l-7.53-10.22c-2.35-3.69-1-8.48,3.43-12.51l1.86-1.58c3.75-3.09,9-4.52,12.19-.74l7.53,10.22c2.39,3.75,1.11,9-3.2,12.94Zm-62.41.57-83.29-113a276.86,276.86,0,0,0,67.33-54.52,280.65,280.65,0,0,0,24-30.53l83.29,113a281.88,281.88,0,0,1-24,30.53A277.2,277.2,0,0,1,323,712.14Zm91.83-29.72-1.45,1.65c-3.95,4.12-8.5,4.65-11.32,1.34l-7.53-10.22c-2.33-3.66-1.42-9,2.33-13.53.49-.55,1-1.1,1.45-1.66,2.93-3.22,7.3-4.78,10.47-1l7.53,10.21c2.47,3.8,1.89,9-1.48,13.19Zm22.91-30.11-1.25,1.86c-3.19,4.36-7.07,5-9.88,1.64l-7.53-10.22c-2.42-3.73-2.08-9,.89-13.83l1.25-1.87c2.5-3.65,6.44-5.66,9.57-1.91l7.54,10.22c2.5,3.83,2.27,9.37-.59,14.11Zm19-33.74c-.33.69-.66,1.39-1,2.08-2.55,4.79-6.11,5.79-8.86,2.5l-7.53-10.22c-2.45-3.75-2.5-9.38-.13-14.69.34-.69.67-1.39,1-2.08,2-4,5.42-6.47,8.5-2.76l7.53,10.22c2.55,3.87,2.74,9.74.49,15Zm14.38-37-.7,2.26c-1.86,5.25-4.93,6.57-7.65,3.28l-7.53-10.21c-2.48-3.75-3-9.69-1.34-15.49.24-.75.47-1.5.7-2.26,1.32-4.07,4-7.44,7.24-3.51l7.54,10.22c2.59,3.91,3.27,10.07,1.75,15.71Zm9-40c-.12.82-.25,1.63-.37,2.44-1,5.67-3.57,7.28-6.26,4L466,537.72c-2.5-3.75-3.55-10-2.73-16.2.13-.81.25-1.62.37-2.43.65-4.14,2.18-8.15,5.72-3.68l7.54,10.21c3.95,5.76,3.6,13,3.26,15.88Zm2.7-30.44c-.28,4.1-2.22,4.63-4.84,1.32l-7.53-10.22a25.36,25.36,0,0,1-4.16-13.51c0-.59,0-1.18.06-1.77,0-.22,0-.52,0-.73.05-.59.66-5.63,4.55-.69l7.53,10.22a26,26,0,0,1,4.4,13.61c0,.59,0,1.18,0,1.77Zm-.69-30.77a13.65,13.65,0,0,1,0,1.43c0,.51-.4,4.81-4,.17l-7.53-10.21a31.59,31.59,0,0,1-5-13.8c-.05-.62-.09-1.23-.15-1.84,0-.43-.05-1,0-1.44.05-1.14.45-4.53,3.79-.25l7.53,10.21A32.28,32.28,0,0,1,482,478.45c.06.62.11,1.23.15,1.84Zm-4.56-33.76c.12.63.25,1.26.36,1.9a10.47,10.47,0,0,1,.21,2.62c-.09.94-.6,2.74-3.33-.76l-7.52-10.22A40.61,40.61,0,0,1,461.45,426l-.36-1.9a13,13,0,0,1-.27-2.63c.08-1.41.68-2.44,3.1.68l7.53,10.22a41.66,41.66,0,0,1,6.15,14.15Zm-15.32-47.3a57,57,0,0,1,7.13,14.37c.2.65.4,1.31.59,2a13.25,13.25,0,0,1,.6,3.17c0,.9-.42,2-2.76-1.07l-7.53-10.21a55.49,55.49,0,0,1-6.83-14.3c-.19-.66-.39-1.31-.58-2a12.4,12.4,0,0,1-.68-3.56c.18-1.68,1.89.55,2.53,1.39Zm1.74-156c-.35.69-.7,1.39-1,2.09-2.65,5-5.85,6-8.57,2.77l-7.52-10.22c-2.57-3.9-2.73-9.78-.43-15,.34-.7.69-1.4,1-2.09,2.16-4.1,6-6.3,9.12-2.57l7.52,10.21c2.42,3.73,2.37,9.38-.12,14.77ZM494.1,158l1.73-1.7c3.39-3.16,8.56-4.78,11.9-.84l7.53,10.22c2.37,3.7,1.25,8.7-2.91,13l-1.73,1.69c-4.35,4-8.78,4.44-11.57,1.15l-7.53-10.23c-2.45-3.82-1.43-9.06,2.58-13.34Zm-8.83,51.26-1.43,1.9c-3.58,4.51-7.51,5.29-10.25,2L466.05,203c-2.48-3.86-2-9.44,1.27-14.23l1.43-1.9c2.83-3.6,7.39-5.7,10.7-1.79L487,195.26c2.39,3.72,1.74,9.08-1.7,14ZM479.73,162c-28.91,31.6-49.73,69.4-54.68,110.26l-83.29-113c4.95-40.86,25.77-78.66,54.67-110.26ZM385.14,10.12l1.73-1.69c3.39-3.16,8.56-4.78,11.89-.84l7.54,10.22c2.36,3.7,1.24,8.7-2.91,13l-1.73,1.7c-4.36,4-8.79,4.44-11.58,1.15l-7.53-10.22C380.11,19.65,381.13,14.41,385.14,10.12ZM358.36,40.87l1.43-1.9c2.83-3.6,7.38-5.7,10.7-1.78L378,47.41c2.39,3.72,1.74,9.07-1.71,14l-1.42,1.91c-3.59,4.51-7.51,5.29-10.25,2L357.1,55.11C354.6,51.25,355.1,45.66,358.36,40.87ZM337.5,75c.34-.7.69-1.4,1-2.1,2.16-4.1,6-6.3,9.11-2.57l7.54,10.22c2.42,3.73,2.36,9.38-.13,14.77-.36.69-.7,1.39-1,2.1-2.65,5-5.86,6-8.56,2.77L337.92,90C335.36,86.07,335.2,80.2,337.5,75Zm-13.44,36.9c.18-.75.37-1.5.56-2.24,1.22-4.43,4.07-7,7.16-3.2l7.54,10.22c2.92,4.42,2.85,10.85,1.81,15.4-.19.74-.37,1.48-.55,2.23-1.45,5.32-3.88,6.57-6.5,3.37l-7.53-10.22c-2.66-4-3.63-10.08-2.49-15.57Zm-4.46,33.16c.16-3.67,1.89-5.41,4.9-1.62L332,153.67a25.84,25.84,0,0,1,4.09,13.82c0,.62,0,1.23,0,1.85,0,.23,0,.53,0,.76-.08,1-.65,5.7-4.38.94l-7.53-10.22a26.88,26.88,0,0,1-4.58-13.89c0-.63,0-1.25,0-1.86Z"/><path id="Path_46" data-name="Path 46" class="cls-3" d="M71,625,38,584.55h0Z"/><path id="Path_47" data-name="Path 47" class="cls-4" d="M317.16,189.87c22.61,54.38,29,105.76,23.71,152.29-6.88,60.75-33.59,113.24-69.8,153.29s-81.93,67.67-126.81,78.74C88.59,587.91,34.25,576.11,1,531l37,50.18.29.39,83.3,113c-.08-.1-.14-.19-.2-.28l36.88,50c33.26,45.12,87.6,56.93,143.26,43.2,44.89-11.07,90.6-38.68,126.82-78.74s62.93-92.53,69.8-153.28c5.27-46.54-1.1-97.92-23.71-152.3-11.17-26.86-14.4-53.29-11.54-78.57,5.23-46.12,30.71-88.38,65.3-122.31V152l-5.47-7.42c-2.41-3.78-1-8.6,3.52-12.29l1.93-1.43h0v-9.5a304.69,304.69,0,0,0-32,26.07q-3.71,3.47-7.29,7.07l-83.29-113c2.39-2.39,4.81-4.75,7.29-7.06A307.55,307.55,0,0,1,455.29,1.3h-15.9a14.3,14.3,0,0,1-3.67,4.15l-1.93,1.44c-4.89,3.38-9.69,3.42-12.51.1L417.09,1.3h-58c-28.5,31.61-48.87,69.31-53.48,110C302.76,136.57,306,163,317.16,189.87Zm6.27-10c-.13-.63-.25-1.26-.37-1.89a10,10,0,0,1-.18-2.61c.09-.74.59-2.87,3.43.76l7.53,10.22a40,40,0,0,1,5.74,14l.36,1.9a12.82,12.82,0,0,1,.29,2.62q-.11,3-3-.72L329.71,194a42.29,42.29,0,0,1-6.28-14.1Zm17.93,47.19a82.19,82.19,0,0,1-7.83-14.51l-.48-1.15c-.12-.27-.22-.55-.34-.82a12.86,12.86,0,0,1-1-3.48c0-.76.43-1.12,2.41,1.48l7.54,10.22a82,82,0,0,1,7.58,14.2c.11.27.22.54.34.81l.48,1.16c1.38,3.46,1.17,3.85,1,4.27-.49,0-1.12-.65-2.11-2Zm96.07,126Q444.15,369.19,449,385L365.69,272Q360.83,256.2,354.14,240a156.85,156.85,0,0,1-12.23-70.62l83.28,113a157,157,0,0,0,12.24,70.62ZM370,365.57l-7.54-10.22a25.27,25.27,0,0,1-4.15-13.51l.06-1.77a5.85,5.85,0,0,1,0-.73c.06-.59.65-5.63,4.54-.68l7.53,10.22a25.7,25.7,0,0,1,4.4,13.6c0,.59,0,1.18-.05,1.77-.28,4.1-2.22,4.63-4.83,1.32Zm2.13,29.12c-.11.81-.24,1.62-.36,2.44-1.05,5.66-3.57,7.28-6.26,4L358,390.91c-2.5-3.75-3.55-10-2.73-16.2.12-.81.25-1.62.37-2.43.65-4.15,2.18-8.15,5.73-3.68l7.53,10.22c3.95,5.74,3.59,13,3.25,15.87Zm2-59.78c0,.51-.4,4.8-4,.18l-7.53-10.22a31.39,31.39,0,0,1-5-13.8c0-.61-.09-1.23-.14-1.84a13.77,13.77,0,0,1,0-1.44c0-1.14.44-4.52,3.78-.25l7.54,10.22A32.22,32.22,0,0,1,374,331.64c.06.62.1,1.23.16,1.84,0,.43,0,1,0,1.43Zm-7.34-31.42-7.53-10.22a40.89,40.89,0,0,1-5.87-14.06l-.36-1.9a11.16,11.16,0,0,1-.26-2.64c.07-1.4.67-2.43,3.09.69l7.53,10.22a41.92,41.92,0,0,1,6.16,14.14l.36,1.9a10.47,10.47,0,0,1,.21,2.62c-.1.94-.61,2.75-3.33-.75Zm-7-32.62-7.54-10.22a56,56,0,0,1-6.82-14.3c-.19-.66-.39-1.31-.59-2a12.39,12.39,0,0,1-.67-3.56c.17-1.68,1.88.55,2.53,1.39l7.53,10.22a57.47,57.47,0,0,1,7.13,14.36c.2.66.4,1.31.59,2a12.67,12.67,0,0,1,.59,3.17c0,.9-.41,2-2.76-1.06ZM346,414.57c.23-.75.47-1.5.7-2.26,1.31-4.08,4-7.44,7.24-3.52L361.44,419c2.59,3.91,3.27,10.08,1.75,15.71-.23.76-.47,1.51-.7,2.26-1.86,5.25-4.94,6.57-7.65,3.3l-7.53-10.23c-2.47-3.76-3-9.69-1.34-15.48Zm31.88-22.23c.13-1.1.24-2.21.36-3.32L461.5,502c-.11,1.12-.23,2.22-.36,3.33a271.23,271.23,0,0,1-39.77,113.54l-83.29-113a271.31,271.31,0,0,0,39.77-113.56Zm1.08-11.81c2.16-31.15-.89-64.33-10.46-99l83.3,113c9.56,34.69,12.61,67.87,10.45,99Zm71.39-5.6a82.19,82.19,0,0,1-7.83-14.51l-.48-1.16c-.12-.26-.23-.54-.34-.81a12.76,12.76,0,0,1-1-3.48c0-.76.42-1.12,2.41,1.48l7.53,10.21a82.41,82.41,0,0,1,7.59,14.2c.11.28.22.55.34.82s.31.77.47,1.16c1.38,3.47,1.17,3.87,1,4.27-.48,0-1.11-.66-2.1-2Zm-11.65-33.08a42.38,42.38,0,0,1-6.28-14.1c-.13-.64-.25-1.27-.37-1.9a10,10,0,0,1-.18-2.61c.09-.74.59-2.87,3.42.76l7.54,10.21a40.54,40.54,0,0,1,5.74,14.05l.36,1.9a12.16,12.16,0,0,1,.29,2.62c-.07,2-1.08,1.76-3-.72ZM451.08,281c-.19.74-.38,1.48-.56,2.23-1.45,5.31-3.88,6.57-6.5,3.36l-7.52-10.21c-2.66-4-3.64-10.08-2.49-15.56.18-.75.36-1.49.56-2.23,1.21-4.43,4.07-7,7.16-3.21l7.52,10.22c2.93,4.41,2.87,10.84,1.83,15.39Zm-16.65,11.36L442,302.57a25.71,25.71,0,0,1,4.1,13.83c0,.61,0,1.23,0,1.84,0,.23,0,.54,0,.76-.08,1-.64,5.7-4.38.94l-7.53-10.21a27,27,0,0,1-4.58-13.9c0-.61,0-1.23,0-1.85.16-3.68,1.9-5.41,4.89-1.63ZM331.29,451.41c.34-.69.67-1.38,1-2.08,2-4.05,5.42-6.47,8.51-2.75l7.53,10.22c2.54,3.87,2.72,9.73.48,14.94-.33.7-.67,1.39-1,2.08-2.56,4.79-6.11,5.8-8.86,2.5l-7.53-10.22C329,462.36,328.93,456.72,331.29,451.41ZM312,484.93c.42-.62.83-1.25,1.24-1.87,2.51-3.66,6.45-5.66,9.59-1.91l7.53,10.22c2.5,3.84,2.26,9.37-.6,14.1-.41.63-.82,1.25-1.24,1.87-3.2,4.36-7.07,5-9.88,1.64l-7.53-10.22c-2.42-3.73-2.08-9,.89-13.83Zm-23.11,29.9c.48-.55,1-1.1,1.45-1.66,2.92-3.22,7.3-4.77,10.47-1l7.53,10.22c2.47,3.81,1.88,9-1.48,13.18l-1.46,1.66c-3.95,4.11-8.49,4.65-11.31,1.34l-7.54-10.22c-2.33-3.67-1.41-9,2.34-13.54Zm-29.83,29.06,1.86-1.57c3.75-3.09,9-4.53,12.2-.74l7.52,10.22c2.39,3.75,1.1,8.94-3.2,12.93l-1.86,1.58c-4.65,3.6-9.53,3.72-12.42.31l-7.53-10.22C253.3,552.72,254.61,547.92,259.08,543.89Zm-33,23.8,2-1.23c4.05-2.43,9.59-3.16,12.83.68l7.53,10.22c2.37,3.7.82,8.33-3.84,11.51-.66.41-1.33.83-2,1.23-5,2.77-10.05,2.33-13-1.13l-7.53-10.22c-2.34-3.64-.81-7.87,4-11Zm-34.79,17.77,2.08-.86c4.21-1.71,9.92-1.69,13.17,2.2L214.06,597c2.35,3.66.67,7.68-4.19,10l-2.08.87c-5.12,1.87-10.31.82-13.23-2.69L187,595c-2.32-3.6-.7-7.24,4.24-9.5Zm-34.84,11.16,1.79-.41a13.21,13.21,0,0,1,12.94,3.91l7.53,10.22c.41.62,3.77,6.19-3.95,8.28L173,619a12.8,12.8,0,0,1-12-4.55l-7.53-10.22C151,600.71,152.19,597.78,156.43,596.62Zm-30.22,4.28,1.75-.1a15.15,15.15,0,0,1,11.9,5.45l7.54,10.23c2.39,3.56,1.22,6.27-2.91,6.73l-1.76.11a15.67,15.67,0,0,1-11.82-5.87l-7.53-10.22C121,603.72,122.09,601.3,126.21,600.9Zm-29.14-1.17,1.67.22a19.52,19.52,0,0,1,11.57,6.82L117.85,617c2.4,3.54,1.37,5.7-2.59,5.36l-1.67-.22a20.26,20.26,0,0,1-11.44-7.26l-7.53-10.22c-2.4-3.49-1.49-5.33,2.45-4.93Zm-27.33-6.9,1.54.57a27.89,27.89,0,0,1,11.07,8.26l7.54,10.22a11.45,11.45,0,0,1,1,1.72c.27.62,1.41,3.67-3.12,2.21l-1.54-.57c-4.5-1.86-8.68-5.86-10.89-8.72L67.84,596.3a11.24,11.24,0,0,1-1-1.68c-.6-1.25-1-3.16,2.94-1.79ZM44.94,579.9l1.36.93a49.42,49.42,0,0,1,10.39,9.77l7.54,10.22a10.32,10.32,0,0,1,1.41,2.48c.23.79.17,1.84-2.82-.06-.46-.3-.91-.61-1.37-.93a52.38,52.38,0,0,1-10.14-10.25l-7.54-10.22a10.13,10.13,0,0,1-1.55-2.66c-.26-1.26,1.9.18,2.71.72Zm-1.73,6.47a9,9,0,0,1-2.14-2c-.39-.43-.78-.87-1.16-1.31-1.07-1.24-3.29-3.81-9.23-11.85L23.15,561c-1.69-2.29-1.7-2.34-1.76-2.55.26.24.67.7,2,2.21L24.55,562c4.08,4.54,7.29,8.36,9.53,11.35l7.54,10.23a11.71,11.71,0,0,1,1.67,2.7Zm.48,2c20.42,23.81,47.43,36.77,77.28,40.35l83.3,113c-29.86-3.59-56.87-16.54-77.28-40.36ZM152.17,734.21a9,9,0,0,1-2.14-2c-.39-.43-.78-.86-1.16-1.3-1.07-1.24-3.3-3.82-9.23-11.86l-7.53-10.21c-1.69-2.29-1.7-2.34-1.77-2.56.27.24.68.7,2,2.21l1.16,1.31c4.09,4.55,7.3,8.37,9.53,11.36l7.53,10.22a12,12,0,0,1,1.69,2.7Zm19.61,16.86-1.36-.92a52.48,52.48,0,0,1-10.15-10.26l-7.54-10.21a10.47,10.47,0,0,1-1.55-2.67c-.26-1.26,1.82.13,2.71.72l1.38.93a49.61,49.61,0,0,1,10.38,9.77l7.53,10.22a10.85,10.85,0,0,1,1.42,2.47c.22.81.17,1.85-2.82,0Zm25,12.58c-.52-.19-1-.39-1.55-.57-4.5-1.87-8.68-5.87-10.89-8.73l-7.52-10.22a11.68,11.68,0,0,1-1.05-1.67c-.6-1.26-1-3.16,2.94-1.79.52.18,1,.37,1.55.57a27.77,27.77,0,0,1,11.07,8.25l7.53,10.22a11.51,11.51,0,0,1,1,1.72c.27.63,1.42,3.67-3.11,2.22Zm27.45,6.55-1.66-.22a20.3,20.3,0,0,1-11.45-7.26l-7.52-10.22c-2.4-3.49-1.49-5.34,2.45-4.94.55.09,1.11.16,1.66.23a19.57,19.57,0,0,1,11.58,6.82l7.52,10.22c2.42,3.55,1.38,5.7-2.57,5.37Zm29.23.85-1.76.1a15.64,15.64,0,0,1-11.82-5.88l-7.53-10.21c-2.36-3.5-1.28-5.93,2.83-6.33l1.76-.1a15.19,15.19,0,0,1,11.9,5.46l7.53,10.21c2.39,3.57,1.22,6.28-2.91,6.75Zm-40.92-28.58-83.29-113a172.55,172.55,0,0,0,52-5.1,227.21,227.21,0,0,0,49.55-18.83l83.3,113a228.24,228.24,0,0,1-49.55,18.83,173.25,173.25,0,0,1-52,5.1Zm71.18,24-1.8.42a12.82,12.82,0,0,1-12-4.56l-7.52-10.21c-2.37-3.55-1.21-6.48,3-7.64l1.79-.42A13.25,13.25,0,0,1,280.12,748l7.53,10.22c.41.63,3.77,6.19-3.95,8.28Zm35.13-11.61-2.08.87c-5.12,1.88-10.31.82-13.23-2.7L296,742.8c-2.33-3.59-.7-7.23,4.24-9.5l2.08-.87c4.21-1.71,9.92-1.68,13.17,2.2L323,744.84c2.36,3.68.68,7.69-4.18,10Zm34.71-18.13c-.67.42-1.33.83-2,1.23-5,2.77-10.06,2.33-13-1.13L331,726.59c-2.33-3.64-.81-7.88,4-11.06.67-.41,1.34-.82,2-1.24,4.05-2.41,9.58-3.15,12.82.68l7.53,10.22c2.37,3.71.83,8.33-3.83,11.52Zm32.88-24.15-1.86,1.58c-4.66,3.6-9.53,3.73-12.43.31l-7.52-10.21c-2.35-3.68-1-8.48,3.43-12.51l1.85-1.57c3.76-3.1,9-4.53,12.2-.74l7.53,10.21c2.39,3.75,1.1,9-3.2,12.93Zm-62.41.58-83.3-113a277.06,277.06,0,0,0,67.34-54.51,282.65,282.65,0,0,0,24-30.52l83.3,113a285.1,285.1,0,0,1-24,30.53A277.2,277.2,0,0,1,324,713.14Zm91.83-29.72-1.45,1.65c-4,4.11-8.5,4.65-11.33,1.34l-7.53-10.22c-2.33-3.66-1.41-9,2.34-13.53l1.45-1.65c2.93-3.23,7.3-4.79,10.47-1l7.53,10.21c2.47,3.81,1.89,9-1.48,13.19Zm22.9-30.12c-.41.63-.82,1.25-1.24,1.87-3.19,4.36-7.07,5-9.88,1.64l-7.53-10.21c-2.43-3.73-2.09-9,.89-13.83.42-.62.83-1.25,1.24-1.87,2.51-3.66,6.45-5.66,9.58-1.91l7.53,10.22C441.84,643,441.61,648.58,438.74,653.3Zm19-33.73c-.33.7-.66,1.39-1,2.09-2.55,4.78-6.11,5.79-8.86,2.49l-7.52-10.21c-2.45-3.75-2.5-9.38-.14-14.7.34-.69.67-1.38,1-2.08,2-4,5.42-6.46,8.5-2.75l7.54,10.21c2.54,3.88,2.73,9.75.48,15Zm14.38-37c-.23.76-.46,1.51-.7,2.26-1.86,5.24-4.93,6.57-7.65,3.28l-7.54-10.21c-2.46-3.76-3-9.69-1.33-15.48.24-.76.47-1.5.7-2.26,1.31-4.08,4-7.45,7.24-3.53l7.53,10.22c2.59,3.92,3.28,10.09,1.75,15.72Zm9-40-.36,2.43c-1,5.67-3.57,7.28-6.26,4L467,538.74c-2.5-3.75-3.54-10-2.73-16.2.12-.81.24-1.62.37-2.43.65-4.15,2.18-8.15,5.73-3.69l7.53,10.22c3.95,5.75,3.59,13,3.25,15.88Zm2.7-30.44c-.28,4.1-2.22,4.63-4.83,1.31l-7.54-10.21a25.27,25.27,0,0,1-4.15-13.51l.06-1.77c0-.23,0-.51,0-.74,0-.58.66-5.62,4.54-.68l7.53,10.22a25.85,25.85,0,0,1,4.4,13.61c0,.6,0,1.18-.05,1.77Zm-.68-30.77a13.68,13.68,0,0,1,0,1.43c0,.5-.4,4.8-4,.18l-7.53-10.22a31.38,31.38,0,0,1-5-13.8l-.15-1.84a13.66,13.66,0,0,1,0-1.43c0-1.14.44-4.53,3.78-.26l7.53,10.22A32.38,32.38,0,0,1,483,479.47c.05.62.1,1.23.14,1.85Zm-4.56-33.76.36,1.9a10,10,0,0,1,.2,2.62c-.09.94-.6,2.74-3.32-.76L468.3,441.1A40.81,40.81,0,0,1,462.43,427l-.36-1.9a11.62,11.62,0,0,1-.26-2.63c.07-1.41.67-2.43,3.09.69l7.53,10.21a42,42,0,0,1,6.16,14.15Zm-15.33-47.3a57.23,57.23,0,0,1,7.14,14.37l.59,2a12.6,12.6,0,0,1,.59,3.16c0,.9-.42,2-2.76-1.06l-7.53-10.22a55.63,55.63,0,0,1-6.82-14.3l-.6-2a12.73,12.73,0,0,1-.67-3.56c.18-1.68,1.89.55,2.53,1.39Zm1.75-156c-.36.7-.7,1.4-1,2.09-2.66,5-5.86,6-8.57,2.78l-7.52-10.22c-2.57-3.9-2.74-9.78-.44-15l1-2.09c2.17-4.1,6-6.3,9.12-2.57l7.53,10.22C467.55,233.2,467.5,238.85,465,244.24ZM495.09,159l1.72-1.69c3.4-3.16,8.57-4.78,11.9-.84l7.53,10.21c2.37,3.71,1.26,8.71-2.91,13l-1.72,1.7c-4.36,4-8.79,4.43-11.58,1.14l-7.53-10.22c-2.45-3.81-1.43-9,2.58-13.33Zm-8.84,51.26c-.48.63-.95,1.27-1.42,1.9-3.59,4.51-7.52,5.29-10.26,2L467,204c-2.49-3.86-2-9.44,1.27-14.23.47-.64.94-1.27,1.42-1.9,2.83-3.6,7.39-5.7,10.7-1.79L488,196.32C490.35,200,489.69,205.4,486.25,210.3ZM480.71,163C451.81,194.61,431,232.4,426,273.26l-83.3-113c5-40.86,25.77-78.65,54.68-110.25ZM386.13,11.21l1.72-1.69c3.4-3.16,8.56-4.78,11.9-.85l7.53,10.23c2.37,3.7,1.25,8.7-2.91,13l-1.73,1.7c-4.35,4-8.78,4.44-11.57,1.15l-7.54-10.22c-2.43-3.83-1.42-9.06,2.59-13.35ZM359.35,42c.47-.64.94-1.27,1.42-1.9,2.83-3.6,7.39-5.7,10.7-1.79L379,48.49c2.38,3.72,1.72,9.08-1.71,14-.48.63-1,1.26-1.43,1.9-3.59,4.51-7.51,5.29-10.25,2l-7.53-10.22c-2.5-3.86-2-9.45,1.26-14.23ZM338.49,76.09c.34-.7.68-1.4,1-2.1,2.16-4.1,6-6.3,9.12-2.57l7.53,10.22c2.42,3.72,2.37,9.38-.13,14.76l-1,2.1c-2.65,5-5.85,6-8.56,2.78l-7.53-10.22c-2.56-3.91-2.73-9.78-.43-15ZM325,113c.18-.74.37-1.48.56-2.23,1.22-4.43,4.07-6.95,7.17-3.2l7.53,10.22c2.92,4.42,2.86,10.85,1.82,15.39-.19.75-.38,1.49-.56,2.24-1.45,5.31-3.87,6.57-6.5,3.36l-7.52-10.22c-2.66-4-3.64-10.07-2.5-15.56Zm-4.46,33.17c.16-3.67,1.89-5.41,4.89-1.63L333,154.74a25.72,25.72,0,0,1,4.09,13.81c0,.62,0,1.24,0,1.85,0,.23,0,.54,0,.76-.07,1-.63,5.7-4.37,1l-7.53-10.23A26.94,26.94,0,0,1,320.54,148c0-.62,0-1.23,0-1.85Z"/><path id="Path_48" data-name="Path 48" class="cls-5" d="M319.24,130.36c-2.86,25.34.37,51.85,11.53,78.78,22.62,54.52,29,106,23.72,152.69-6.88,60.91-33.59,113.54-69.81,153.69s-81.92,67.85-126.81,79c-55.67,13.76-110,1.93-143.27-43.32L37.14,581.8c0,.07.1.13.14.2L79,638.79,81,641.4l-1-1.29,40.57,55.19-.15-.21,22.23,30.25c33.26,45.25,87.6,57.08,143.27,43.31,44.89-11.1,90.6-38.78,126.81-78.94s62.93-92.78,69.81-153.7c5.27-46.65-1.1-98.16-23.71-152.69-11.17-26.92-14.4-53.43-11.54-78.77,5.47-48.41,33.14-92.6,70.23-127.38q5.21-4.87,10.65-9.5v-15l-6.44-8.77c-2.41-3.79-1-8.63,3.52-12.33l1.93-1.43c.33-.23.66-.39,1-.59v-9.65a304.78,304.78,0,0,0-33,26.84q-3.72,3.48-7.3,7.08L404.56,40.51q3.58-3.6,7.29-7.08A306.34,306.34,0,0,1,452.66,1.3h-15a15.16,15.16,0,0,1-3,3.07l-1.93,1.44c-4.9,3.4-9.69,3.43-12.51.1L416.91,1.3H391.3L389.47,3C352.38,37.77,324.71,82,319.24,130.36ZM358.36,41l1.42-1.91c3.6-4.4,7.9-5.11,10.71-1.79L378,47.52c2.39,3.73,1.74,9.1-1.71,14l-1.42,1.91c-3.59,4.52-7.51,5.31-10.25,2L357.1,55.24C354.6,51.37,355.1,45.77,358.36,41ZM337.5,75.19c.34-.7.69-1.4,1-2.1,2.67-4.86,6.34-5.9,9.11-2.58l7.54,10.25c2.41,3.73,2.36,9.4-.13,14.8-.36.7-.7,1.4-1,2.1-2.65,5-5.86,6-8.56,2.78L337.92,90.2C335.36,86.29,335.2,80.39,337.5,75.19Zm-13.44,37c.18-.75.37-1.5.56-2.24,1.51-5.17,4.46-6.5,7.16-3.21L339.32,117c2.91,4.43,2.85,10.88,1.81,15.44-.19.74-.37,1.49-.55,2.24-1.45,5.32-3.88,6.59-6.5,3.37l-7.53-10.24c-2.66-4-3.63-10.1-2.49-15.6Zm112.38,240.7q6.72,16.19,11.55,32L364.7,271.58q-4.86-15.81-11.55-32a158,158,0,0,1-12.23-70.81l83.29,113.3a158,158,0,0,0,12.23,70.81Zm-79-13c.29-5.09,2.73-3.65,4.13-2l.46.58,7.53,10.25a26,26,0,0,1,4.4,13.64c0,.59,0,1.19-.05,1.77-.28,4.12-2.23,4.65-4.84,1.33l-7.53-10.24a25.4,25.4,0,0,1-4.15-13.55c0-.59,0-1.18.05-1.77Zm-.74-29.07-.15-1.85c-.33-5.79,2.33-3.31,2.86-2.76a12.82,12.82,0,0,1,.88,1.07l7.54,10.25a32.36,32.36,0,0,1,5.24,13.91l.15,1.85c.28,6-2.77,3-3.11,2.68a13.06,13.06,0,0,1-.9-1.07l-7.54-10.25a31.73,31.73,0,0,1-5-13.83Zm20.19,81.48c.12-1.11.24-2.22.35-3.33l83.3,113.31-.36,3.32a272.41,272.41,0,0,1-39.78,113.85l-83.29-113.3a272.41,272.41,0,0,0,39.78-113.85Zm1.07-11.84c2.17-31.23-.88-64.5-10.45-99.29l83.29,113.31c9.57,34.78,12.62,68.05,10.46,99.28Zm-58.34-235c.26-4.28,2.27-5,4.9-1.63L332,154a26,26,0,0,1,4.09,13.86c0,.61,0,1.23,0,1.85-.28,6.45-3.58,2.74-3.95,2.29l-.46-.58-7.53-10.25a27,27,0,0,1-4.58-13.93l0-1.85Zm2.84,33.85-.36-1.9c-.89-5.64,1.66-3.57,2-3.31a11.14,11.14,0,0,1,1.29,1.45l7.53,10.25a40.69,40.69,0,0,1,5.74,14.08l.36,1.9c.75,4.24-.19,4.32-1.11,3.65a8.49,8.49,0,0,1-1.59-1.74l-7.53-10.24a42.72,42.72,0,0,1-6.29-14.14ZM332.54,212l-.48-1.16c-.11-.27-.22-.54-.34-.81-1.63-4.16-.93-4.25-.38-3.94a8.87,8.87,0,0,1,1.79,1.93l7.53,10.24a81.67,81.67,0,0,1,7.58,14.24l.34.81.48,1.17c1,2.43,1.25,3.52,1.07,4.16-.35.17-.6.29-2.22-1.84l-7.53-10.25A82.59,82.59,0,0,1,332.54,212Zm12,33.86c-.19-.66-.38-1.31-.58-2-.93-3.19-.91-4.57.05-4.08a7.93,7.93,0,0,1,1.8,1.9L353.32,252a57.29,57.29,0,0,1,7.13,14.41c.2.65.4,1.31.59,2,1.11,4,.45,4.4-.29,4a7.38,7.38,0,0,1-1.87-1.91l-7.54-10.25A56,56,0,0,1,344.52,245.9Zm8,33-.36-1.91c-.74-4.28.26-4.36,1.22-3.69A8,8,0,0,1,355,275l7.54,10.25a42.18,42.18,0,0,1,6.16,14.17c.11.64.23,1.27.35,1.91.77,4.7-.77,4.1-1.47,3.62a8,8,0,0,1-1.64-1.75l-7.54-10.25a41.12,41.12,0,0,1-5.87-14.09Zm1.82,95.75c.12-.81.24-1.63.37-2.45,1-6,2.94-7.2,5.73-3.68l7.53,10.24c3.94,5.77,3.59,13.05,3.25,15.92l-.36,2.44c-1.05,5.69-3.57,7.3-6.26,4L357,390.84c-2.5-3.76-3.55-10-2.74-16.24Zm-9.32,40c.24-.75.47-1.5.7-2.27,1.82-5.39,4.6-6.74,7.24-3.53L360.47,419c2.58,3.92,3.27,10.1,1.74,15.75-.23.76-.47,1.51-.7,2.27-1.86,5.26-4.93,6.59-7.65,3.3l-7.54-10.24c-2.47-3.77-3-9.72-1.34-15.53ZM330.31,451.5c.33-.69.66-1.39,1-2.09,2.55-5,5.81-6,8.5-2.75l7.53,10.24c2.54,3.88,2.73,9.76.48,15-.33.7-.66,1.4-1,2.09-2.55,4.8-6.11,5.81-8.86,2.51l-7.53-10.25C328,462.48,327.94,456.83,330.31,451.5ZM311,485.1c.41-.62.83-1.24,1.24-1.87,3.18-4.46,6.85-5.19,9.58-1.91l7.53,10.24c2.5,3.85,2.26,9.4-.6,14.14-.41.63-.82,1.25-1.24,1.87-3.19,4.37-7.07,5-9.88,1.65L310.14,499c-2.42-3.74-2.08-9.05.9-13.86Zm-23.12,30c.49-.55,1-1.1,1.46-1.66,3.69-3.92,7.7-4.3,10.47-1l7.53,10.25c2.47,3.81,1.88,9-1.48,13.21l-1.46,1.67c-3.95,4.12-8.5,4.66-11.31,1.34l-7.54-10.25C283.25,525,284.17,519.65,287.92,515.08ZM258.1,544.22c.62-.51,1.24-1,1.85-1.57,4.72-3.76,9.4-4,12.2-.74l7.53,10.25c2.39,3.75,1.09,9-3.21,13-.61.53-1.23,1-1.86,1.58-4.65,3.61-9.52,3.73-12.41.31l-7.54-10.24c-2.35-3.7-1-8.5,3.43-12.54Zm-33,23.87,2-1.23c5.09-2.93,10-2.67,12.82.68l7.54,10.24c2.36,3.72.82,8.36-3.85,11.55-.66.41-1.32.83-2,1.23-5,2.78-10.05,2.34-13-1.13l-7.54-10.25C218.77,575.53,220.29,571.28,225.08,568.09Zm-34.8,17.82c.7-.29,1.39-.57,2.08-.87,5.3-2,10.35-1.18,13.18,2.2l7.53,10.25c2.36,3.68.67,7.7-4.19,10l-2.08.87c-5.11,1.88-10.31.82-13.23-2.69L186,595.44c-2.32-3.6-.7-7.26,4.24-9.53ZM229.8,606l83.29,113.3a227,227,0,0,1-49.55,18.88,172.85,172.85,0,0,1-52,5.12L128.24,630a172.81,172.81,0,0,0,52-5.11A227.25,227.25,0,0,0,229.8,606Zm-74.36-8.94,1.79-.41c7.88-1.66,12.17,3,12.94,3.91l7.54,10.25c.4.64,3.77,6.21-4,8.3l-1.79.42A12.77,12.77,0,0,1,160,615l-7.54-10.24c-2.36-3.57-1.21-6.5,3-7.67Zm-30.22,4.3,1.75-.1a15.24,15.24,0,0,1,11.9,5.47L146.41,617c2.39,3.58,1.22,6.29-2.91,6.76l-1.76.1A15.6,15.6,0,0,1,129.93,618l-7.54-10.24C120,604.22,121.11,601.78,125.22,601.39Zm-29.13-1.17,1.66.22a19.59,19.59,0,0,1,11.57,6.84l7.54,10.25c2.41,3.55,1.37,5.71-2.59,5.38l-1.66-.23a20.21,20.21,0,0,1-11.44-7.27l-7.55-10.25c-2.39-3.5-1.47-5.35,2.46-4.94Zm-29-7.4a9.22,9.22,0,0,1,1.71.47l1.54.57a28.06,28.06,0,0,1,11.07,8.28l7.54,10.25c3.46,5-.69,4.31-.87,4.28a10.52,10.52,0,0,1-1.22-.34l-1.54-.57c-4.5-1.87-8.68-5.88-10.88-8.74l-7.54-10.25c-2.64-3.78-1-4.1.19-3.95ZM41.54,579.1A6.8,6.8,0,0,1,44,580.33l1.37.93a49,49,0,0,1,10.39,9.8l7.53,10.24c2.24,3.18,1.49,3.55.83,3.49a6.64,6.64,0,0,1-2.23-1.06l-1.37-.93a53.09,53.09,0,0,1-10.15-10.27l-7.53-10.26C42.11,581.33,40.53,579.11,41.54,579.1Zm.69,7.72a9.09,9.09,0,0,1-2.15-2c-.39-.43-.77-.87-1.16-1.31-1.07-1.25-3.29-3.83-9.22-11.89l-7.54-10.24c-1.22-1.68-1.6-2.19-1.79-2.52.17.07.21.09,2,2.18.38.44.76.87,1.16,1.3,6.21,6.95,8.7,10.29,9.53,11.39L40.63,584a12,12,0,0,1,1.68,2.71l-.09.13Zm.48,2c20.41,23.87,47.42,36.86,77.28,40.45l83.29,113.31C173.42,739,146.41,726,126,702.12ZM151.19,735a9,9,0,0,1-2.15-2l-1.16-1.32c-1.07-1.24-3.3-3.83-9.23-11.88l-7.53-10.24c-1.22-1.68-1.6-2.2-1.79-2.53.17.08.21.09,2,2.18l1.16,1.32c6.22,6.95,8.72,10.28,9.53,11.39l7.53,10.23a12.13,12.13,0,0,1,1.69,2.72A.83.83,0,0,0,151.19,735ZM173,753A6.44,6.44,0,0,1,170.8,752l-1.37-.92a52.91,52.91,0,0,1-10.15-10.29l-7.53-10.24c-.67-1-2.26-3.17-1.25-3.18a7,7,0,0,1,2.41,1.23l1.37.93a49.3,49.3,0,0,1,10.39,9.8l7.53,10.24C174.44,752.7,173.68,753.08,173,753Zm24,11.88a10.52,10.52,0,0,1-1.22-.34l-1.54-.57c-4.5-1.87-8.68-5.89-10.89-8.75L175.81,745c-2.64-3.79-1-4.1.19-4a9.43,9.43,0,0,1,1.71.47l1.54.57a28.13,28.13,0,0,1,11.07,8.28l7.53,10.25c3.47,5-.68,4.31-.86,4.27Zm26.24,6.23-1.67-.22a20.22,20.22,0,0,1-11.44-7.29l-7.53-10.24c-2.4-3.5-1.48-5.35,2.46-4.94l1.66.22a19.64,19.64,0,0,1,11.57,6.84l7.53,10.25c2.41,3.55,1.38,5.72-2.59,5.38Zm29.23.85-1.76.1a15.61,15.61,0,0,1-11.82-5.88L231.35,756c-2.37-3.51-1.28-5.94,2.83-6.34l1.76-.1a15.27,15.27,0,0,1,11.9,5.47l7.53,10.24c2.38,3.58,1.22,6.29-2.92,6.76Zm30.25-4.6-1.79.41a12.79,12.79,0,0,1-12-4.56L261.37,753c-2.37-3.57-1.21-6.5,3-7.67l1.79-.41c7.87-1.66,12.17,3,12.94,3.91l7.53,10.25c.41.62,3.78,6.21-4,8.3Zm35.13-11.65c-.69.3-1.38.59-2.08.87-5.11,1.89-10.31.83-13.23-2.7L295,743.66c-2.32-3.6-.7-7.25,4.24-9.52l2.08-.88c5.3-2,10.35-1.19,13.18,2.21L322,745.71c2.35,3.67.67,7.71-4.19,10Zm34.72-18.17-2,1.23c-5,2.78-10.06,2.33-13-1.14l-7.53-10.25c-2.33-3.65-.81-7.9,4-11.09.67-.4,1.33-.82,2-1.23,5.09-2.93,10-2.68,12.82.67L356.39,726c2.36,3.72.82,8.36-3.83,11.55Zm32.87-24.22c-.62.54-1.23,1.06-1.86,1.58-4.65,3.62-9.53,3.74-12.42.32L363.62,705c-2.35-3.7-1-8.5,3.44-12.55l1.85-1.58c4.72-3.76,9.4-4,12.2-.74l7.53,10.24c2.38,3.76,1.1,9-3.21,13Zm-62.41.58-83.29-113.3A277.23,277.23,0,0,0,307.06,546a281.44,281.44,0,0,0,24-30.6l83.29,113.31a282.41,282.41,0,0,1-24,30.6A277.34,277.34,0,0,1,323,713.91Zm91.84-29.8-1.46,1.66c-3.95,4.12-8.5,4.66-11.32,1.33l-7.53-10.23c-2.33-3.68-1.42-9,2.33-13.57l1.46-1.67c3.69-3.92,7.7-4.3,10.46-1l7.53,10.25c2.47,3.81,1.89,9-1.48,13.22Zm22.9-30.19-1.25,1.87c-3.19,4.37-7.07,5-9.88,1.64L419.1,647.2c-2.42-3.74-2.08-9.06.89-13.87l1.25-1.87c3.18-4.46,6.85-5.19,9.58-1.91l7.53,10.24c2.5,3.84,2.27,9.4-.59,14.14Zm19-33.82c-.33.7-.66,1.39-1,2.09-2.55,4.8-6.11,5.8-8.86,2.5l-7.53-10.25c-2.45-3.76-2.5-9.4-.13-14.73l1-2.08c2.56-5,5.81-6,8.5-2.77l7.53,10.25c2.55,3.88,2.74,9.77.49,15ZM471.16,583l-.7,2.26c-1.86,5.26-4.93,6.59-7.65,3.3l-7.53-10.25c-2.47-3.76-3-9.71-1.33-15.52.23-.75.46-1.51.7-2.27,1.82-5.38,4.6-6.74,7.24-3.52l7.53,10.24c2.59,3.93,3.27,10.11,1.75,15.76Zm9-40.14c-.12.82-.25,1.63-.37,2.44-1,5.69-3.57,7.3-6.26,4L466,539.07c-2.5-3.77-3.54-10-2.73-16.25.13-.81.25-1.63.37-2.44,1-6,2.94-7.21,5.73-3.69l7.53,10.24c3.95,5.77,3.6,13.06,3.26,15.92Zm2.7-30.51c-.28,4.11-2.22,4.64-4.84,1.31l-7.53-10.24a25.49,25.49,0,0,1-4.16-13.54c0-.6,0-1.19.06-1.78.29-5.09,2.74-3.65,4.13-2l.46.58,7.53,10.25a26,26,0,0,1,4.4,13.64c0,.59,0,1.18,0,1.78Zm-.69-30.85c.29,6-2.77,3-3.11,2.68s-.64-.75-.9-1.08l-7.53-10.24a31.71,31.71,0,0,1-5-13.83l-.15-1.85c-.33-5.79,2.33-3.32,2.86-2.76a12.82,12.82,0,0,1,.88,1.07l7.53,10.24A32.29,32.29,0,0,1,482,479.64l.15,1.85Zm-4.56-33.85c.12.63.25,1.26.36,1.9.77,4.7-.77,4.1-1.47,3.61a8,8,0,0,1-1.65-1.74l-7.52-10.24a40.32,40.32,0,0,1-5.87-14.1l-.36-1.91c-.74-4.28.26-4.37,1.22-3.69a8.53,8.53,0,0,1,1.6,1.74l7.53,10.24a41.77,41.77,0,0,1,6.16,14.19Zm-8.19-33c.2.66.4,1.32.59,2,1.11,4,.46,4.38-.3,4a7.55,7.55,0,0,1-1.87-1.91l-7.52-10.24a55.39,55.39,0,0,1-6.82-14.34c-.2-.65-.4-1.31-.59-2-.93-3.19-.9-4.56.05-4.07a7.93,7.93,0,0,1,1.8,1.9l7.53,10.24a57.39,57.39,0,0,1,7.13,14.4ZM457.2,380.76c.12.28.23.54.34.82s.33.77.48,1.16c1,2.44,1.25,3.52,1.07,4.17-.35.16-.6.28-2.22-1.85l-7.53-10.24a82.94,82.94,0,0,1-7.84-14.55l-.48-1.16-.33-.82c-1.64-4.15-.94-4.24-.39-3.94a8.87,8.87,0,0,1,1.79,1.93l7.53,10.24A82,82,0,0,1,457.2,380.76Zm-9.64-32.68.36,1.9c.75,4.23-.19,4.32-1.12,3.64a8.44,8.44,0,0,1-1.58-1.74l-7.53-10.24a42.76,42.76,0,0,1-6.29-14.13l-.36-1.9c-.9-5.64,1.66-3.57,2-3.31a10.38,10.38,0,0,1,1.28,1.45L441.81,334a40.49,40.49,0,0,1,5.75,14.09Zm-19-52.57c0-.62,0-1.24,0-1.86.27-4.27,2.28-4.94,4.9-1.63L441,302.26a25.92,25.92,0,0,1,4.1,13.86c0,.62,0,1.24,0,1.86-.28,6.45-3.58,2.73-4,2.28-.14-.16-.31-.4-.46-.58l-7.52-10.24a27,27,0,0,1-4.58-13.93Zm21.58-14.88c-.2.75-.38,1.49-.56,2.24-1.45,5.33-3.88,6.59-6.5,3.37L435.51,276c-2.66-4-3.63-10.1-2.49-15.6.18-.74.37-1.49.56-2.23,1.51-5.18,4.46-6.5,7.16-3.22l7.53,10.24c2.93,4.43,2.86,10.89,1.82,15.44ZM464,243.79c-.35.7-.7,1.4-1,2.1h0c-2.65,5-5.85,6.05-8.56,2.78l-7.53-10.24c-2.57-3.92-2.73-9.81-.43-15,.34-.7.69-1.4,1-2.1,2.68-4.86,6.34-5.9,9.12-2.57L464.15,229c2.41,3.73,2.36,9.41-.13,14.81Zm30.08-85.42,1.73-1.7c4.35-3.91,9-4.25,11.9-.85l7.53,10.25c2.37,3.71,1.25,8.72-2.91,13.07l-1.73,1.7c-4.35,4-8.78,4.45-11.57,1.15l-7.53-10.25c-2.45-3.82-1.43-9.07,2.58-13.37Zm-8.83,51.39c-.48.63-.95,1.27-1.43,1.91-3.58,4.52-7.51,5.3-10.25,2l-7.54-10.25c-2.48-3.87-2-9.47,1.27-14.27l1.43-1.9c3.59-4.4,7.89-5.12,10.7-1.79L487,195.74c2.39,3.73,1.74,9.1-1.7,14Zm-5.55-47.42C450.81,194,430,231.92,425.05,272.88l-83.29-113.3c4.95-41,25.76-78.86,54.67-110.54ZM398.76,7.6l7.54,10.25c2.36,3.71,1.25,8.72-2.91,13.07l-1.73,1.7c-4.35,4-8.79,4.44-11.58,1.15l-7.53-10.25c-2.44-3.83-1.42-9.08,2.59-13.37l1.73-1.7C391.15,4.6,395.93,4.26,398.76,7.6Z"/><path id="Path_49" data-name="Path 49" class="cls-6" d="M37.14,586.51l-.16-.19L80,639l-1-1.19Q58.08,612.18,37.14,586.51Z"/><path id="Path_50" data-name="Path 50" class="cls-7" d="M38,601.71l83.28,102,.14.17-83.28-102Z"/><path id="Path_51" data-name="Path 51" class="cls-8" d="M320.22,131.44c-2.85,25.33.37,51.84,11.55,78.76,22.6,54.52,29,106,23.71,152.67-6.88,60.91-33.6,113.52-69.81,153.67s-81.93,67.84-126.81,78.93c-55.67,13.77-110,1.93-143.27-43.3L38.11,582.8l.15.21,83.3,113.29-.17-.22,22.25,30.25c33.26,45.24,87.6,57.07,143.26,43.31,44.89-11.1,90.6-38.78,126.82-78.93s62.93-92.77,69.8-153.68c5.27-46.64-1.1-98.15-23.71-152.67-11.18-26.92-14.4-53.42-11.54-78.76,5.47-48.41,33.14-92.58,70.23-127.36q4.74-4.44,9.67-8.66V152.39L522.71,145c-2.41-3.79-1-8.62,3.52-12.32l1.93-1.44h0v-9.53a302,302,0,0,0-32,26.13q-3.72,3.48-7.3,7.08L405.54,41.6q3.57-3.6,7.29-7.08A307.51,307.51,0,0,1,455.29,1.3h-15.9a14.33,14.33,0,0,1-3.67,4.16L433.79,6.9c-4.89,3.39-9.69,3.43-12.5.1l-4.2-5.7H393.47c-1,.92-2,1.84-3,2.78C353.36,38.85,325.69,83,320.22,131.44Zm39.13-89.38c.47-.64.94-1.28,1.42-1.91,3.59-4.4,7.89-5.12,10.7-1.79L379,48.61c2.39,3.72,1.73,9.1-1.7,14-.48.63-1,1.27-1.43,1.91-3.59,4.52-7.52,5.3-10.25,2l-7.53-10.25c-2.5-3.86-2-9.46,1.26-14.26ZM338.48,76.27l1-2.1c2.68-4.86,6.34-5.9,9.12-2.58l7.53,10.25c2.42,3.73,2.37,9.4-.13,14.8-.35.7-.7,1.4-1,2.1-2.65,5-5.85,6.06-8.56,2.79l-7.53-10.25c-2.56-3.91-2.73-9.8-.43-15Zm-13.44,37c.18-.74.37-1.49.56-2.23,1.52-5.18,4.47-6.5,7.17-3.22l7.53,10.25c2.92,4.43,2.86,10.88,1.82,15.43-.19.75-.38,1.49-.56,2.24h0c-1.45,5.33-3.87,6.59-6.5,3.38l-7.53-10.25C324.88,124.88,323.9,118.75,325,113.25ZM437.43,353.92q6.7,16.18,11.55,32L365.69,272.63q-4.86-15.81-11.55-32a157.67,157.67,0,0,1-12.23-70.8L425.2,283.13A157.6,157.6,0,0,0,437.43,353.92Zm-79-13c.29-5.09,2.74-3.65,4.13-2,.15.17.32.41.46.59l7.53,10.24a25.85,25.85,0,0,1,4.4,13.63c0,.6,0,1.19-.05,1.78-.27,4.11-2.22,4.65-4.83,1.32l-7.54-10.24a25.4,25.4,0,0,1-4.15-13.55l.06-1.77Zm-.74-29.07c0-.61-.09-1.23-.14-1.84-.33-5.79,2.32-3.32,2.85-2.77.29.3.63.74.89,1.07l7.53,10.25A32.22,32.22,0,0,1,374,332.47l.15,1.84c.28,6-2.76,3-3.11,2.68a13.06,13.06,0,0,1-.9-1.07l-7.53-10.25a31.62,31.62,0,0,1-5-13.83Zm20.19,81.47c.13-1.1.24-2.22.36-3.33L461.5,503.27c-.11,1.12-.23,2.22-.35,3.33a272.51,272.51,0,0,1-39.78,113.83L338.08,507.14a272.5,272.5,0,0,0,39.77-113.83Zm1.08-11.84c2.16-31.23-.89-64.5-10.45-99.27l83.29,113.29c9.56,34.77,12.61,68,10.45,99.27Zm-58.35-235c.26-4.27,2.27-4.94,4.89-1.63L333,155.12A25.86,25.86,0,0,1,337.1,169c0,.62,0,1.24,0,1.85-.28,6.45-3.58,2.74-4,2.29-.13-.17-.31-.41-.45-.58l-7.53-10.25a27,27,0,0,1-4.58-13.92C320.55,147.74,320.56,147.12,320.58,146.5Zm2.85,33.85c-.13-.63-.25-1.27-.37-1.9-.89-5.63,1.66-3.57,2-3.31a11.14,11.14,0,0,1,1.29,1.45l7.53,10.25a40.15,40.15,0,0,1,5.74,14.08l.36,1.9c.76,4.23-.19,4.31-1.11,3.64a8.78,8.78,0,0,1-1.59-1.74l-7.53-10.24a42.53,42.53,0,0,1-6.28-14.13Zm10.1,32.76-.48-1.16c-.12-.27-.23-.54-.34-.82-1.64-4.15-.95-4.25-.39-3.93a8.38,8.38,0,0,1,1.79,1.92l7.54,10.25a83,83,0,0,1,7.58,14.23l.33.82c.17.38.32.77.48,1.16,1,2.43,1.25,3.52,1.07,4.16-.34.17-.6.29-2.21-1.84l-7.54-10.25a82.45,82.45,0,0,1-7.83-14.54Zm12,33.85c-.19-.66-.38-1.31-.58-2-.92-3.19-.9-4.57.05-4.08a7.93,7.93,0,0,1,1.8,1.9l7.54,10.25a57.7,57.7,0,0,1,7.12,14.4c.2.66.4,1.31.59,2,1.11,4,.45,4.39-.3,4a7.55,7.55,0,0,1-1.87-1.91l-7.53-10.25A55.46,55.46,0,0,1,345.51,247Zm8,32.94-.36-1.91c-.74-4.28.26-4.36,1.23-3.68a8.77,8.77,0,0,1,1.6,1.73l7.53,10.25a42,42,0,0,1,6.15,14.17c.13.64.25,1.27.36,1.9.76,4.7-.77,4.1-1.47,3.62a8,8,0,0,1-1.64-1.74L359.34,294A40.7,40.7,0,0,1,353.47,279.9Zm1.82,95.74c.12-.81.25-1.63.36-2.44,1-6,3-7.2,5.74-3.7l7.53,10.25c3.95,5.76,3.59,13.05,3.25,15.91l-.36,2.45c-1.06,5.68-3.57,7.3-6.26,4L358,391.88c-2.5-3.76-3.55-10-2.73-16.24ZM346,415.59c.23-.75.47-1.5.7-2.26,1.82-5.39,4.6-6.74,7.24-3.53l7.53,10.25c2.59,3.91,3.27,10.1,1.75,15.74-.23.76-.47,1.52-.7,2.27-1.86,5.26-4.94,6.59-7.65,3.3l-7.54-10.25c-2.47-3.76-3-9.7-1.33-15.51Zm-14.68,36.94,1-2.08c2.55-4.95,5.81-6,8.51-2.76l7.53,10.25c2.54,3.87,2.72,9.75.48,15-.33.7-.66,1.4-1,2.09-2.56,4.8-6.11,5.81-8.86,2.51l-7.53-10.25C329,463.5,328.92,457.86,331.29,452.53ZM312,486.13c.41-.62.83-1.24,1.24-1.87,3.18-4.46,6.85-5.19,9.59-1.91l7.53,10.24c2.5,3.85,2.26,9.4-.6,14.14-.41.63-.82,1.25-1.24,1.87-3.19,4.37-7.06,5-9.88,1.64L311.13,500c-2.42-3.74-2.09-9.06.89-13.87Zm-23.11,30c.48-.55,1-1.1,1.45-1.66,3.7-3.92,7.71-4.3,10.47-1l7.53,10.24c2.47,3.82,1.89,9-1.48,13.22l-1.46,1.66c-3.95,4.12-8.49,4.66-11.31,1.34l-7.54-10.24C284.24,526,285.16,520.67,288.91,516.1Zm-29.83,29.14,1.86-1.58c4.72-3.76,9.39-4,12.2-.74l7.53,10.25c2.39,3.76,1.1,9-3.21,13l-1.86,1.58c-4.65,3.61-9.52,3.74-12.41.32l-7.54-10.25c-2.35-3.69-1-8.5,3.43-12.54Zm-33,23.86,2-1.23c5.09-2.93,10-2.67,12.83.67l7.53,10.25c2.37,3.71.82,8.35-3.84,11.55l-2,1.23c-5,2.78-10.05,2.33-13-1.14l-7.53-10.23C219.75,576.54,221.28,572.29,226.06,569.1Zm-34.79,17.82c.69-.29,1.39-.57,2.08-.87,5.29-2,10.34-1.18,13.17,2.2l7.54,10.25c2.35,3.67.67,7.7-4.19,10l-2.08.88c-5.12,1.87-10.31.82-13.23-2.7L187,596.45C184.7,592.84,186.33,589.19,191.27,586.92ZM230.78,607l83.3,113.29a227.84,227.84,0,0,1-49.55,18.87,172.88,172.88,0,0,1-52,5.12L129.23,631a172.85,172.85,0,0,0,52-5.12A227,227,0,0,0,230.78,607Zm-74.35-8.94,1.79-.41c7.87-1.66,12.16,3,12.94,3.92l7.53,10.24c.41.63,3.77,6.21-3.95,8.3l-1.79.42a12.81,12.81,0,0,1-12-4.57l-7.53-10.24C151,602.2,152.19,599.27,156.43,598.1Zm-30.23,4.3,1.76-.1a15.27,15.27,0,0,1,11.9,5.47L147.39,618c2.39,3.57,1.22,6.28-2.91,6.74l-1.75.11A15.61,15.61,0,0,1,130.91,619l-7.53-10.25C121,605.22,122.09,602.79,126.2,602.4Zm-29.13-1.18,1.66.23a19.64,19.64,0,0,1,11.57,6.84l7.54,10.25c2.41,3.55,1.37,5.71-2.59,5.38l-1.67-.23a20.27,20.27,0,0,1-11.43-7.27l-7.54-10.25c-2.4-3.5-1.48-5.35,2.46-4.95Zm-29-7.38a9.09,9.09,0,0,1,1.7.46c.52.19,1,.39,1.55.57a28.22,28.22,0,0,1,11.07,8.29l7.53,10.24c3.46,5-.69,4.31-.87,4.28a9.84,9.84,0,0,1-1.21-.34c-.52-.18-1-.38-1.55-.57-4.5-1.86-8.68-5.87-10.88-8.74l-7.53-10.25c-2.65-3.78-1-4.09.19-3.94Zm-25.5-13.72a6.82,6.82,0,0,1,2.4,1.22l1.37.94a49.25,49.25,0,0,1,10.39,9.79l7.53,10.25c2.25,3.18,1.49,3.55.84,3.48a6.78,6.78,0,0,1-2.24-1.06c-.46-.3-.91-.61-1.37-.93a52.53,52.53,0,0,1-10.14-10.28l-7.53-10.24c-.68-.95-2.27-3.17-1.25-3.18Zm.68,7.71a8.85,8.85,0,0,1-2.14-2c-.39-.43-.78-.86-1.16-1.31-1.07-1.24-3.3-3.83-9.23-11.87L23.15,562.4c-1.23-1.68-1.6-2.2-1.79-2.52.17.07.21.09,2,2.17.38.45.77.88,1.16,1.32,6.21,6.94,8.71,10.29,9.53,11.38L41.62,585a11.77,11.77,0,0,1,1.67,2.71Zm.48,2C64.1,613.7,91.12,626.69,121,630.28l83.3,113.29C174.41,740,147.4,727,127,703.12ZM152.17,736a8.85,8.85,0,0,1-2.14-2c-.39-.43-.78-.86-1.16-1.31-1.07-1.24-3.3-3.83-9.24-11.88l-7.52-10.24c-1.23-1.67-1.6-2.19-1.79-2.52.17.07.21.1,2,2.18.39.44.77.88,1.16,1.31,6.22,6.95,8.71,10.29,9.53,11.38l7.53,10.25a11.68,11.68,0,0,1,1.68,2.71.83.83,0,0,1-.08.12ZM174,754a6.69,6.69,0,0,1-2.24-1.06l-1.36-.93a52.85,52.85,0,0,1-10.15-10.28l-7.54-10.24c-.67-1-2.26-3.17-1.24-3.18a7,7,0,0,1,2.4,1.23l1.38.93a49.2,49.2,0,0,1,10.38,9.79l7.53,10.25C175.43,753.69,174.67,754.06,174,754ZM198,765.88a12,12,0,0,1-1.21-.34l-1.55-.57c-4.51-1.87-8.68-5.88-10.89-8.75L176.8,746c-2.65-3.78-1-4.1.18-4a9,9,0,0,1,1.71.47l1.55.57a28.2,28.2,0,0,1,11.07,8.28l7.53,10.25c3.46,5-.69,4.31-.87,4.28Zm26.24,6.23-1.67-.22a20.29,20.29,0,0,1-11.44-7.28l-7.53-10.24c-2.39-3.5-1.48-5.35,2.46-5l1.66.22a19.64,19.64,0,0,1,11.57,6.84l7.53,10.24c2.42,3.57,1.38,5.73-2.58,5.4Zm29.23.85-1.76.1a15.64,15.64,0,0,1-11.82-5.89l-7.53-10.24c-2.36-3.51-1.28-5.94,2.83-6.34l1.75-.1a15.24,15.24,0,0,1,11.9,5.47l7.54,10.24c2.39,3.58,1.22,6.3-2.91,6.76Zm30.26-4.6-1.8.41a12.77,12.77,0,0,1-12-4.56L262.36,754c-2.37-3.56-1.21-6.5,3-7.66l1.79-.42c7.87-1.66,12.16,3,12.94,3.92l7.53,10.24c.41.63,3.77,6.21-3.95,8.31Zm35.13-11.64-2.08.87c-5.12,1.88-10.31.82-13.23-2.7L296,744.65c-2.33-3.6-.7-7.25,4.24-9.52l2.08-.87c5.3-2,10.34-1.19,13.17,2.2L323,746.7c2.36,3.68.68,7.7-4.18,10Zm34.71-18.18-2,1.24c-5,2.77-10.06,2.33-13-1.14l-7.52-10.24c-2.34-3.65-.81-7.9,4-11.09.67-.41,1.34-.82,2-1.24,5.09-2.92,10-2.66,12.83.68L357.37,727c2.37,3.72.83,8.36-3.83,11.55Zm32.87-24.21c-.62.54-1.24,1.06-1.86,1.58-4.65,3.61-9.52,3.74-12.42.32L364.61,706c-2.35-3.69-1-8.5,3.43-12.54l1.86-1.58c4.72-3.77,9.39-4,12.2-.74l7.53,10.24C392,705.13,390.72,710.34,386.41,714.33Zm-62.41.58L240.71,601.62A277.34,277.34,0,0,0,308,547a284.64,284.64,0,0,0,24-30.6l83.29,113.29a284.64,284.64,0,0,1-24,30.6A277.1,277.1,0,0,1,324,714.91Zm91.83-29.79-1.45,1.65c-3.95,4.12-8.5,4.66-11.32,1.35l-7.53-10.25c-2.33-3.67-1.42-9,2.33-13.57.49-.54,1-1.1,1.45-1.65,3.7-3.93,7.71-4.31,10.47-1l7.53,10.24c2.48,3.81,1.9,9-1.47,13.22Zm22.91-30.19-1.24,1.88c-3.2,4.36-7.07,5-9.89,1.64l-7.52-10.25c-2.43-3.74-2.09-9.06.89-13.87.42-.62.83-1.25,1.24-1.87,3.18-4.46,6.85-5.2,9.58-1.91l7.53,10.24c2.51,3.85,2.27,9.4-.59,14.14Zm19-33.81c-.33.7-.66,1.39-1,2.09-2.55,4.8-6.11,5.8-8.85,2.5l-7.53-10.24c-2.45-3.76-2.5-9.4-.13-14.73.33-.7.67-1.39,1-2.09,2.55-4.95,5.81-6,8.5-2.76l7.53,10.24c2.55,3.88,2.73,9.77.49,15ZM472.14,584c-.22.76-.46,1.52-.7,2.27-1.85,5.26-4.93,6.58-7.65,3.29l-7.53-10.24c-2.47-3.76-3-9.71-1.34-15.52.24-.76.48-1.51.7-2.26,1.83-5.39,4.6-6.75,7.24-3.54l7.54,10.25c2.59,3.91,3.28,10.1,1.75,15.75Zm9-40.13c-.12.82-.24,1.63-.37,2.44-1.05,5.69-3.56,7.3-6.26,4L467,540.08c-2.5-3.76-3.54-10-2.72-16.24l.36-2.44c1-6,2.95-7.2,5.73-3.69L477.87,528c4,5.77,3.6,13.06,3.26,15.92Zm2.7-30.51c-.28,4.11-2.22,4.64-4.84,1.31l-7.53-10.23a25.4,25.4,0,0,1-4.15-13.55l.06-1.78c.29-5.09,2.73-3.65,4.13-2,.14.17.31.41.45.58l7.53,10.25a26,26,0,0,1,4.4,13.64c0,.59,0,1.18-.05,1.78Zm-.69-30.85c.29,6-2.77,3-3.11,2.68s-.64-.74-.9-1.07l-7.53-10.24a31.71,31.71,0,0,1-5-13.84c-.05-.61-.09-1.23-.15-1.84-.32-5.79,2.33-3.32,2.86-2.76.29.3.63.74.89,1.07l7.53,10.24A32.35,32.35,0,0,1,483,480.67c.06.61.11,1.23.15,1.84Zm-4.56-33.84c.13.63.25,1.27.36,1.9.77,4.7-.77,4.09-1.47,3.61a8.3,8.3,0,0,1-1.65-1.75L468.3,442.2a40.19,40.19,0,0,1-5.87-14.09l-.36-1.91c-.74-4.28.26-4.37,1.22-3.69a8.31,8.31,0,0,1,1.61,1.74l7.53,10.24a42,42,0,0,1,6.16,14.18Zm-8.19-33c.2.66.4,1.31.59,2,1.12,4,.45,4.39-.3,4a7.5,7.5,0,0,1-1.86-1.91l-7.53-10.24a55.65,55.65,0,0,1-6.82-14.33l-.6-2c-.92-3.19-.9-4.56.06-4.07a7.93,7.93,0,0,1,1.8,1.9l7.53,10.24a57.76,57.76,0,0,1,7.14,14.4Zm-12.2-33.86c.11.28.22.54.34.82s.31.77.47,1.16c1,2.44,1.25,3.52,1.07,4.17-.34.16-.6.28-2.21-1.85l-7.54-10.24a83.56,83.56,0,0,1-7.83-14.55l-.48-1.16c-.12-.27-.23-.54-.34-.81-1.63-4.16-.94-4.25-.38-3.94a8.59,8.59,0,0,1,1.78,1.93l7.53,10.24A82.31,82.31,0,0,1,458.19,381.8Zm-9.65-32.68.36,1.9c.75,4.24-.19,4.32-1.11,3.65a8.75,8.75,0,0,1-1.59-1.74l-7.53-10.24a42.49,42.49,0,0,1-6.28-14.14c-.13-.63-.25-1.26-.36-1.9-.9-5.63,1.66-3.56,2-3.31a11.92,11.92,0,0,1,1.29,1.46L442.8,335a40.3,40.3,0,0,1,5.74,14.08Zm-19-52.56c0-.62,0-1.24,0-1.85.26-4.28,2.27-4.95,4.89-1.63L442,303.32a25.79,25.79,0,0,1,4.1,13.86c0,.61,0,1.23,0,1.85-.27,6.45-3.58,2.73-3.95,2.28l-.46-.58-7.53-10.24a27.14,27.14,0,0,1-4.58-13.93Zm21.58-14.87c-.19.74-.38,1.49-.55,2.24-1.46,5.32-3.89,6.59-6.5,3.37l-7.53-10.25c-2.66-4-3.64-10.1-2.49-15.6.18-.74.36-1.49.56-2.23,1.52-5.17,4.46-6.5,7.16-3.22l7.53,10.25c2.92,4.43,2.85,10.88,1.82,15.44ZM465,244.85c-.35.7-.7,1.4-1,2.1-2.65,5-5.85,6.05-8.56,2.78l-7.53-10.24c-2.56-3.92-2.73-9.81-.43-15,.34-.7.69-1.4,1-2.1,2.68-4.86,6.34-5.9,9.12-2.58l7.52,10.25c2.43,3.72,2.38,9.4-.12,14.8Zm30.08-85.41,1.73-1.7c4.36-3.91,9-4.24,11.9-.85l7.53,10.25c2.36,3.71,1.25,8.72-2.91,13.07l-1.73,1.7c-4.35,4-8.79,4.45-11.58,1.14l-7.52-10.23c-2.45-3.83-1.43-9.08,2.58-13.38Zm-8.83,51.38-1.42,1.91c-3.59,4.52-7.52,5.3-10.26,2L467,204.53c-2.49-3.87-2-9.47,1.27-14.27l1.42-1.91c3.59-4.4,7.89-5.11,10.7-1.78L488,196.81c2.39,3.72,1.73,9.1-1.71,14Zm-5.55-47.41C451.8,195.09,431,233,426,273.94l-83.3-113.29c4.95-41,25.77-78.85,54.68-110.53ZM399.75,8.69l7.53,10.25c2.37,3.72,1.25,8.72-2.91,13.07l-1.73,1.7c-4.35,4-8.78,4.45-11.57,1.15l-7.54-10.25c-2.44-3.82-1.42-9.07,2.59-13.37l1.73-1.7C392.14,5.69,396.92,5.35,399.75,8.69Z"/><path id="Path_52" data-name="Path 52" class="cls-9" d="M120.57,703.13l-.3-.36q-41.64-51-83.29-102l.3.36,83.29,102"/><path id="Path_61" data-name="Path 61" class="cls-10" d="M191.83,560.92a2.67,2.67,0,0,0-1.81,2.14l0,0c-1.88-1-4.63.12-4.83,1.86l0,0-.73-.79-1.27.5c.5.53.79.86,1.18,1.34l3,3.69,1.42-.56-2.49-3c-.9-1.18.48-2.48,2-2.33a2.44,2.44,0,0,1,1.6.9l2.47,3,1.41-.59L191.14,564c-1-1.32.82-2.52,2.23-2.27a2.81,2.81,0,0,1,1.56,1l2.34,2.86,1.4-.62-2.43-3a3.63,3.63,0,0,0-4.41-1"/><path id="Path_62" data-name="Path 62" class="cls-10" d="M203.77,561.79c-2.91,1.23-5-1.36-4.34-2.85.88-1.87,4.6-2,5.52.38.18.45.43,1.62-1.17,2.46h0m-3.65-4.64c-4.24,2.19-2,5.1.16,5.74a5.88,5.88,0,0,0,4-.39h0c4-2,2.25-5.06-.13-5.79a5.69,5.69,0,0,0-4.07.45"/><path id="Path_63" data-name="Path 63" class="cls-10" d="M212.05,551.26l-1.47.79c1.06,4.81,1.06,4.81,1.2,5.27l-.05,0a16.84,16.84,0,0,0-1.69-1l-3.84-2-1.52.76,7.1,3.54,1.35-.7-1.08-6.67"/><path id="Path_64" data-name="Path 64" class="cls-10" d="M214.79,549.76l-1.41.77,4.13,5.06,1.41-.78-4.13-5M212.36,548c-.9.54-.56,1.19,0,1.34a1.34,1.34,0,0,0,1-.15h0c.92-.54.56-1.2,0-1.34a1.29,1.29,0,0,0-1,.16"/><path id="Path_65" data-name="Path 65" class="cls-10" d="M219.58,550c-1.1-2.09,1.62-3.57,3.09-3a2.34,2.34,0,0,1,1,.69q-2,1.2-4,2.36m.49-3.45c-3.72,2.37-1.65,5.4.39,6,2.76.74,5.59-1.69,6.37-2.6-.23-.16-.54-.35-.77-.5,0,0-3.56,3.8-6,1.26,1.61-1,3.75-2.2,5.36-3.13-.51-1-2.5-2.67-5.39-1"/><path id="Path_66" data-name="Path 66" class="cls-10" d="M234.06,544.9c-1.49.91-2.31-.09-2.2-.8s.94-1.49,2.46-2.45l.71.87c.44.56.2,1.63-1,2.38m-3.39-4.84a7.76,7.76,0,0,0-2.13,2l.82.41c.29-.48,2.75-3.39,4.32-1.57l.08.1c-6,4-2.06,5.34-2,5.35a4,4,0,0,0,4.2-2.83l0,0,.65.55,1.21-.81a7.92,7.92,0,0,1-1.1-1.14l-1.54-1.89c-.74-.84-2-1.8-4.54-.19"/><path id="Path_67" data-name="Path 67" class="cls-10" d="M239,534.45a2.5,2.5,0,0,0-1.17,2.53l0,0-.87-.95-1.18.8a19.44,19.44,0,0,1,1.35,1.53l2.82,3.49,1.35-.92-2.2-2.69c-.52-.65-1.08-1.94,1-3.19l-.7-.86a2.46,2.46,0,0,0-.39.22"/><path id="Path_68" data-name="Path 68" class="cls-10" d="M241.76,530.75,240.68,532l.76.93-1.13.8.57.7c.38-.26.76-.54,1.13-.81l2.25,2.76c1.67,2,3.49.42,4.42-.68l-.63-.66c-1.41,1.65-2.24.68-2.51.37l-2.22-2.73,1.89-1.38-.57-.7L242.75,532l-1-1.21"/><path id="Path_69" data-name="Path 69" class="cls-10" d="M248.77,526.68l.58.72,7.45-2.53,0,0-4.12,6.61.59.72c1.44-2.36,3.37-5.5,4.77-7.88l-.47-.59c-2.65.88-6.16,2.09-8.82,2.93"/><path id="Path_70" data-name="Path 70" class="cls-10" d="M257.47,519.68l.59.72,7.28-2.79,0,0-3.95,6.86.59.72c1.38-2.45,3.23-5.71,4.57-8.18l-.48-.58c-2.58,1-6,2.29-8.62,3.22"/><path id="Path_71" data-name="Path 71" class="cls-10" d="M265.92,512.31l.58.72,7.1-3,0,0-3.76,7.11.58.72c1.32-2.54,3.09-5.92,4.36-8.47l-.47-.59c-2.52,1.06-5.87,2.5-8.41,3.52"/><path id="Path_72" data-name="Path 72" class="cls-10" d="M279.84,499.38a3.62,3.62,0,0,0-1.07,2.85l0,0-.72-.77-.9.92c.36.38.67.73,1.16,1.32l3,3.69,1-1-2.49-3.05c-1.08-1.39.29-3.65,1.67-3.45a2,2,0,0,1,1.16.76l2.37,2.91c.34-.35.67-.71,1-1.06l-2.46-3c-1.52-1.68-2.85-1-3.7-.09"/><path id="Path_73" data-name="Path 73" class="cls-10" d="M285.72,497.09c-1.14-2,.57-4.22,2-3.8a1.8,1.8,0,0,1,.88.63q-1.4,1.59-2.85,3.17m-.16-3.91c-2.74,3.32-.36,6.76,1.9,6.61,2.05-.14,3.61-2.78,4-3.79l-.7-.44s-2.2,4.7-4.54,2.2l3.76-4.2c-.42-.9-2.33-2.72-4.45-.37"/><path id="Path_74" data-name="Path 74" class="cls-10" d="M294.69,491.29c-1.85,2-3.58-.15-3.71-1.67-.18-2.05,1.87-3.5,3-2.56l.21.22.74.91a2.5,2.5,0,0,1-.21,3.1M290.93,487c-2.42,3.13-.24,6.82,2.16,6.46a3.82,3.82,0,0,0,2.85-4l0,0,.44.55c2.09,2.79-1.47,5-2.07,5.17l.34,1c.06,0,5.87-3.19,2.31-7.7l-2.4-2.93a15,15,0,0,1-1.08-1.44c-.27.34-.55.68-.83,1l.58.79,0,0a2.41,2.41,0,0,0-2.31,1.07"/><path id="Path_75" data-name="Path 75" class="cls-10" d="M300,485c-1,1.2-1.82.2-1.85-.6a5.17,5.17,0,0,1,1.47-3l.72.88a2.41,2.41,0,0,1-.34,2.77m-3.51-4.93a7.8,7.8,0,0,0-1.3,2.53l.71.36c.15-.57,1.55-4.13,3.1-2.32l.09.1c-3.8,4.9-1.11,6.3-.27,6.2,1.14-.12,2.51-1.88,2.42-3.7l0,0,.6.53.81-1.05a7.48,7.48,0,0,1-1.06-1.12l-1.55-1.89c-.73-.84-1.89-1.72-3.57.38"/><path id="Path_76" data-name="Path 76" class="cls-10" d="M300,473.32l-.63,1.44.76.93-.75,1,.57.7.75-1,2.25,2.76c1.66,2,2.81.1,3.35-1.2-.18-.2-.42-.46-.61-.65-.83,1.93-1.64,1-1.91.67l-2.22-2.73,1.25-1.7-.57-.7-1.25,1.71-1-1.22"/><path id="Path_77" data-name="Path 77" class="cls-10" d="M304,470.28l-.86,1.2,4.13,5,.85-1.2L304,470.28m-2.15-1.51c-.58.88-.09,1.71.48,1.56a.89.89,0,0,0,.46-.35h0c.59-.89.08-1.65-.41-1.58a.85.85,0,0,0-.54.38"/><path id="Path_78" data-name="Path 78" class="cls-10" d="M309.14,462.74,308.3,464c1.94,5.63,1.94,5.63,2.11,6l0,0a13,13,0,0,0-1.43-.76l-3.21-1.51-.9,1.3,5.88,2.51.79-1.17-2.37-7.71"/><path id="Path_79" data-name="Path 79" class="cls-10" d="M311.92,463c-1.2-2.1.16-4.58,1.45-4.25a1.72,1.72,0,0,1,.84.61c-.75,1.22-1.51,2.44-2.29,3.64m-.47-4.16c-2.31,4,.44,7.52,2.53,6.83,1.69-.56,2.77-3.32,3-4.34l-.66-.42c0,.06-1.58,5.24-3.9,2.76l3-4.83c-.58-1.08-2.41-2.58-4,0"/><path id="Path_80" data-name="Path 80" class="cls-10" d="M315.58,446.33a4.11,4.11,0,0,0,.37,4.78l.2.24-.57,1,.57.7c.19-.33.38-.66.56-1l3.56,4.36c.25-.43.49-.86.73-1.29l-3.55-4.35c.32-.57.65-1.14,1-1.7l-.57-.7c-.32.58-.64,1.15-1,1.72l-.22-.28a2.39,2.39,0,0,1,0-3.39,1.54,1.54,0,0,1,.19-.17l-.49-.87a3.76,3.76,0,0,0-.73.95"/><path id="Path_81" data-name="Path 81" class="cls-10" d="M319.21,445.87c-.23.44-.47.88-.71,1.31l4.13,5.05.71-1.31-4.13-5.05m-2.07-1.46c-.48.95,0,1.8.54,1.61a.91.91,0,0,0,.4-.4h0c.48-.95,0-1.81-.55-1.61a.88.88,0,0,0-.41.42"/><path id="Path_82" data-name="Path 82" class="cls-10" d="M319.15,440c-.22.44-.45.88-.7,1.32l6.05,7.41c.24-.44.47-.88.7-1.32L319.15,440"/><path id="Path_83" data-name="Path 83" class="cls-10" d="M326.06,431.94a5.38,5.38,0,0,0-.34,3.49v0c-1.42-.52-2.69,1.94-2.23,4.32,0,0,0,0,0,.05l-.7-.75c-.19.39-.39.77-.59,1.16.68.75.78.86,1.15,1.3l3,3.69.66-1.3-2.5-3.06c-1-1.28-.47-4,.76-3.88a1.59,1.59,0,0,1,.89.61l2.47,3,.63-1.31-2.56-3.14c-1.06-1.37-.31-4,.78-3.81a2,2,0,0,1,1,.74L330.8,436l.6-1.34-2.43-3c-1.5-1.68-2.41-.77-2.92.3"/><path id="Path_84" data-name="Path 84" class="cls-10" d="M314,85.86a6.31,6.31,0,0,0,.11,3.6v0c-1.3-.49-2,2.08-1.22,4.59v0l-.68-.75c-.09.42-.18.83-.28,1.25.46.51.72.8,1.13,1.31l3,3.68c.1-.47.21-.93.32-1.4l-2.5-3c-1-1.29-1-4.19.06-4.08a1.54,1.54,0,0,1,.82.6l2.47,3,.36-1.38L315,90.2c-1.12-1.43-.75-4.09.25-3.94.38.06.76.51.94.72l2.34,2.86c.14-.45.27-.91.41-1.37l-2.42-3c-1.51-1.71-2.23-.74-2.55.37"/><path id="Path_85" data-name="Path 85" class="cls-10" d="M320.3,82.46c-.86,2.18-2.42.68-3-.74-.88-2.11-.06-4.74,1.34-4.26,1.14.4,2.38,2.71,1.69,5h0m-3.72-4.68c-1.32,4.21,1.2,8.25,3,7.21a3.5,3.5,0,0,0,1.24-1.8v0c1.48-4.64-1.22-8.12-2.95-7.24a3.12,3.12,0,0,0-1.33,1.85"/><path id="Path_86" data-name="Path 86" class="cls-10" d="M321.24,66.43c-.21.47-.42.94-.62,1.42,2.2,5.61,2.2,5.61,2.48,6.23l0,0a11.84,11.84,0,0,0-1.32-.7l-2.9-1.34c-.2.49-.39,1-.58,1.47l5.27,2.18c.18-.44.35-.87.54-1.31l-2.85-8"/><path id="Path_87" data-name="Path 87" class="cls-10" d="M322.44,63.79l-.62,1.35,4.12,5,.63-1.35-4.13-5.05m-2-1.44c-.41,1,.1,1.84.59,1.63a.92.92,0,0,0,.37-.41v0c.42-1-.1-1.85-.59-1.63a.86.86,0,0,0-.37.43"/><path id="Path_88" data-name="Path 88" class="cls-10" d="M325.54,62.8c-1.27-2.18-.11-4.77,1.15-4.48a1.64,1.64,0,0,1,.83.58c-.67,1.3-1.34,2.59-2,3.9m-.66-4.32c-1.82,3.92.7,7.89,2.73,7,1.51-.67,2.43-3.57,2.66-4.64l-.65-.4c-.14.55-1.38,5.35-3.55,3,.8-1.54,1.85-3.6,2.65-5.14-.68-1.24-2.5-2.46-3.84.15"/><path id="Path_89" data-name="Path 89" class="cls-10" d="M334,53.3c-.84,1.34-1.58.35-1.71-.25-.24-1.06.5-2.53,1.16-3.58l.72.87a2.87,2.87,0,0,1-.16,3m-3.54-5a8.16,8.16,0,0,0-1,2.81l.67.32c.18-1.22,1.34-4.35,2.73-2.71l.09.1c-3,4.89-1,6.9.11,6.64s2.2-2.28,2-4.14a.05.05,0,0,0,0,0l.6.52c.23-.39.47-.77.72-1.16a8.55,8.55,0,0,1-1.06-1.11l-1.54-1.89c-.74-.85-1.9-1.71-3.35.66"/><path id="Path_90" data-name="Path 90" class="cls-10" d="M335.51,40.4a3.59,3.59,0,0,0-.39,3.06l0,0-.85-.94-.72,1.13c.47.49.86.94,1.33,1.52l2.82,3.49.83-1.29-2.2-2.69a2.86,2.86,0,0,1,.17-3.8l-.7-.86a2.6,2.6,0,0,0-.26.32"/><path id="Path_91" data-name="Path 91" class="cls-10" d="M337,35.82l-.62,1.52.76.93-.74,1.08.57.7.74-1.08,2.25,2.75c1.62,1.94,2.81,0,3.37-1.37l-.61-.65c-.87,2-1.61,1.13-1.93.76l-2.23-2.73,1.28-1.8-.57-.7L338,37l-1-1.21"/><path id="Path_92" data-name="Path 92" class="cls-10" d="M342,30.42l.59.72c1.79-1,4.16-2.44,5.95-3.45l0,0C347.78,30,346.7,33,346,35.24l.59.73c.9-2.69,2.09-6.27,3-8.94l-.47-.59c-2.13,1.2-5,2.76-7.1,4"/><path id="Path_93" data-name="Path 93" class="cls-10" d="M348.58,22.14l.59.72c1.88-1,4.37-2.33,6.26-3.3l0,0c-.89,2.22-2.08,5.15-2.94,7.38l.6.72c1-2.63,2.35-6.14,3.41-8.75l-.48-.59c-2.24,1.14-5.23,2.63-7.46,3.8"/><path id="Path_94" data-name="Path 94" class="cls-10" d="M355.6,14.11l.59.71c2-.93,4.57-2.21,6.55-3.13l0,0c-1,2.17-2.29,5-3.23,7.22l.6.72c1.11-2.57,2.58-6,3.73-8.56l-.47-.59c-2.34,1.08-5.47,2.5-7.79,3.6"/><path id="Path_95" data-name="Path 95" class="cls-10" d="M368,3.83l-.73-.75c-.35.32-.69.65-1,1,.4.42.79.86,1.16,1.32l3,3.68L371.57,8l-2.49-3c-1.09-1.4.54-3.74,2.05-3.56a2,2,0,0,1,1.19.75L374.7,5l1.18-1.1-2.11-2.6H369a3.64,3.64,0,0,0-1,2.51Z"/><path id="Path_96" data-name="Path 96" class="cls-10" d="M149.41,738.45l-.62-.75-.7-.85.38.47.93,1.13"/><path id="Path_97" data-name="Path 97" class="cls-10" d="M149.68,738.69l-.53-.6.76.94c-.21-.26-.43-.51-.65-.77l.57.7.65.77,2.25,2.75c.54.66,2.18,2.66,3.13,3.67-.79-1-1.62-1.87-2.4-2.83l-2.22-2.72,1.11,1.26-.56-.7-1.12-1.26-1-1.22"/><path id="Path_98" data-name="Path 98" class="cls-10" d="M154.15,743.62l.59.72L160.1,750l0,0-2-1.61.58.72L161,751l-.48-.58-6.39-6.75"/><path id="Path_99" data-name="Path 99" class="cls-10" d="M159.8,749.06l.58.72,5.56,5.39,0,0-2.23-1.31.58.72,2.58,1.44-.48-.58-6.62-6.4"/><path id="Path_100" data-name="Path 100" class="cls-10" d="M165.73,754l.59.72,5.75,5.09,0,0-2.42-1,.59.72,2.79,1.09-.48-.59-6.84-6"/><path id="Path_101" data-name="Path 101" class="cls-10" d="M177.24,762.13c-.28-.16-1.11-.64-1-.2V762l0,0-.73-.85-.84-.54,1.16,1.4,3,3.68.95.61-2.49-3c-.52-.64-.43-.77-.26-.76a7.45,7.45,0,0,1,3,2.47l2.37,2.92c.33.18.65.38,1,.57l-2.46-3a15.22,15.22,0,0,0-3.65-3.28"/><path id="Path_102" data-name="Path 102" class="cls-10" d="M183,766.61c-.54-.74-.42-.88-.24-.87a7.19,7.19,0,0,1,3.13,2.42c-1-.5-1.94-1-2.9-1.55m-.15-1.27c-.43-.22-1.44-.73-1.2,0,.52,1.54,4.9,5.59,7.21,6-.22-.24-.45-.68-.76-.75a9.61,9.61,0,0,1-4.57-3.29l3.85,2a15.22,15.22,0,0,0-4.53-4"/><path id="Path_103" data-name="Path 103" class="cls-10" d="M192.34,772.67c-2.16-1.06-4.35-3.78-3.7-3.9s2.32,1.06,3.28,2.24l.74.91c.75.93.32.94.17.92a1.68,1.68,0,0,1-.49-.17m-3.79-4.51c-1-.43-1.37-.35-1.15.24.82,2.21,6,5.86,6.31,5a.22.22,0,0,0,0-.16h0l.45.55c.3.37,1,1.24.39,1.2a8.24,8.24,0,0,1-2.75-1.44c.41.72.47.83,2.14,1.7,1.17.6,1.95.77,2,.43s-.7-1.35-1.11-1.86l-2.4-2.93c-.54-.67-.82-1-1.08-1.37l-.91-.4.57.74h0a9.86,9.86,0,0,0-2.47-1.67"/><path id="Path_104" data-name="Path 104" class="cls-10" d="M198.3,775.35c-1.18-.5-2.21-1.7-1.89-1.87s.76,0,1.72.43l.72.88c.44.54.27.74-.08.7a2.54,2.54,0,0,1-.47-.14m-3.46-4.49a3.35,3.35,0,0,0-1.55-.35l.73.72a4.68,4.68,0,0,1,3.49,1.93l.09.1c-1.19-.45-2.72-1-2.33-.09.63,1.41,4.19,3.63,4.47,2.79a.36.36,0,0,0,0-.1l0,0,.61.67,1,.36c-.15-.17-.48-.53-1.06-1.24l-1.55-1.89a9.74,9.74,0,0,0-3.91-2.92"/><path id="Path_105" data-name="Path 105" class="cls-10" d="M199.12,771.69l-.82-.09.76.93-.91-.32.57.7.91.32,2.25,2.76c1.76,2.13,3.26,2.43,3.83,2.46-.2-.22-.38-.7-.67-.72a3.63,3.63,0,0,1-2.14-1.4l-2.22-2.72,1.54.52-.57-.7-1.54-.53-1-1.21"/><path id="Path_106" data-name="Path 106" class="cls-10" d="M204,774.18l-1.1-.35,4.13,5,1.09.35L204,774.18m-2.27-2.29c-.46-.13-.41.07-.34.2a2.54,2.54,0,0,0,1.28,1h0c.46.13.41-.07.33-.2a2.54,2.54,0,0,0-1.28-1"/><path id="Path_107" data-name="Path 107" class="cls-10" d="M210.79,776.11l-1.17-.3c1.48,3.3,1.48,3.3,1.68,3.67h-.05c-.51-.5-1-.93-1.55-1.44l-3.5-3.18L205,774.5l6.42,5.73,1.06.29-1.72-4.41"/><path id="Path_108" data-name="Path 108" class="cls-10" d="M214,778.53c-.6-.9-.41-1.3.5-1.09a5.37,5.37,0,0,1,2.78,1.84c-1.1-.24-2.2-.49-3.28-.75m.06-1.72c-2.06-.4-1.56.76-1.08,1.48,1.71,2.6,5.46,4.35,7.33,4l-.73-.69a6.07,6.07,0,0,1-5.06-2.38l4.35,1a8.9,8.9,0,0,0-4.81-3.37"/><path id="Path_109" data-name="Path 109" class="cls-10" d="M221.26,776.22c-.78-.11-1.89-.06-.66,1.59a2.56,2.56,0,0,0,.2.26l.2.25-.88-.17.58.7.87.16,3.55,4.35,1.15.2-3.55-4.35,1.52.25-.57-.7-1.54-.25-.22-.27c-.3-.37-1.07-1.35-.12-1.28a3.65,3.65,0,0,1,1,.25c-.53-.83-.53-.83-1.54-1"/><path id="Path_110" data-name="Path 110" class="cls-10" d="M225.89,779.09c-.39,0-.78-.1-1.16-.17l4.12,5.05,1.16.17-4.12-5m-2.3-2.2c-.71-.08-.33.42-.28.48a2.19,2.19,0,0,0,1.21.7h0c.7.08.31-.43.26-.49a2.13,2.13,0,0,0-1.21-.7"/><path id="Path_111" data-name="Path 111" class="cls-10" d="M227.07,777.15,225.9,777l6,7.41,1.17.15-6-7.41"/><path id="Path_112" data-name="Path 112" class="cls-10" d="M238,780.23c-.95-.05-1.41.24-1.35.86h0c-1.74-1.34-4-1.59-4-.43h0l-.73-.82-1-.11c.53.6.82.95,1.17,1.38l3,3.68,1.15.12-2.48-3.06c-.59-.74-.39-1.29.44-1.22a3.85,3.85,0,0,1,2.49,1.51l2.48,3,1.15.09-2.55-3.13c-.61-.77-.32-1.29.64-1.16a4.33,4.33,0,0,1,2.52,1.63l2.33,2.86,1.17.06-2.43-3a5.8,5.8,0,0,0-4-2.31"/><path id="Path_113" data-name="Path 113" class="cls-10" d="M489.39,515.93a6.92,6.92,0,0,0,.73,3.06v0c-1.08-.65-1,1.12-.76,2.22a8.13,8.13,0,0,0,.48,1.36v0l-.67-.76c0,.33,0,.65-.07,1,.53.6.72.83,1.12,1.31l3,3.68c0-.36.06-.72.08-1.08l-2.49-3c-1-1.32-1.34-3.5-.65-3.4.3,0,.66.47.83.67l2.48,3c0-.36,0-.73,0-1.09L491,519.78c-1-1.29-1.29-3.43-.6-3.3.31.06.72.55.94.81l2.34,2.86c0-.37,0-.73,0-1.1l-2.43-3c-1.12-1.3-1.74-1.4-1.85-.3l0,.16"/><path id="Path_114" data-name="Path 114" class="cls-10" d="M493.32,514.1c-.09,1.55-1.23.37-1.46.12-1.74-1.94-2.2-4.87-1.3-4.86s2.7,2.53,2.76,4.73h0m-3.75-4.67c.06,3.78,3,7.6,4,6.66a2,2,0,0,0,.35-1.27v0c-.05-3.67-3-7.61-3.95-6.69a1.89,1.89,0,0,0-.36,1.32"/><path id="Path_115" data-name="Path 115" class="cls-10" d="M489.59,500.05l0,1.2c3.13,5.43,3.13,5.43,3.41,5.89v0c-.34-.28-.69-.55-1.06-.8l-2.3-1.6c0,.41,0,.81,0,1.22l4.1,2.67v-1.09l-4.19-7.53"/><path id="Path_116" data-name="Path 116" class="cls-10" d="M489.52,497.83c0,.38,0,.76,0,1.14l4.12,5c0-.38,0-.76-.05-1.15l-4.11-5m-1.7-1.54c.05.87.68,1.72.89,1.51s.07-.21.07-.3v0c-.06-.89-.7-1.74-.9-1.52a.51.51,0,0,0-.06.33"/><path id="Path_117" data-name="Path 117" class="cls-10" d="M491.05,497.26c-1.47-2.1-1.6-4.18-1-4a1.87,1.87,0,0,1,.77.65c.07,1.12.13,2.24.19,3.36m-1.85-4c.32,3.72,3.26,7.56,4.07,6.59.47-.58.15-2.69-.17-3.89-.15-.14-.35-.31-.51-.44,0,0,.92,3.82-.36,3a2.85,2.85,0,0,1-.64-.61c-.08-1.33.21-3.19-.26-4.44,0,0-1.36-1.95-1.93-1.4a1.73,1.73,0,0,0-.2,1.16"/><path id="Path_118" data-name="Path 118" class="cls-10" d="M492.31,489.25c0,.67-.18.62-.37.46-.35-.28-1.19-1.25-1.44-4.11l.72.87a6.11,6.11,0,0,1,1.09,2.78m-3.79-4.92a13.28,13.28,0,0,0,.55,2.56l.48.35c-.38-1.15-.77-3.13-.16-2.84a1.94,1.94,0,0,1,.51.48l.09.1c.48,4.87,2.4,6.66,2.8,6.16.26-.34.12-1.89-.7-3.65v0l.5.53c0-.35-.07-.7-.1-1.05-.28-.28-.57-.62-1-1.12L490,483.92c-.39-.46-1.3-1.55-1.44-.46a4.11,4.11,0,0,0,0,.86"/><path id="Path_119" data-name="Path 119" class="cls-10" d="M487.71,477.09a8.29,8.29,0,0,0,1.13,2.91v0l-.8-.94c0,.35.08.69.12,1,.27.31.62.72,1.28,1.53l2.84,3.48c0-.39-.09-.78-.14-1.18l-2.2-2.69a6.7,6.7,0,0,1-1.54-3.62l-.7-.85a1.42,1.42,0,0,0,0,.29"/><path id="Path_120" data-name="Path 120" class="cls-10" d="M486.39,472.75l.39,1.44.76.93c0,.34.09.67.13,1l.57.7c0-.34-.09-.67-.13-1l2.24,2.75c.79.95,1.13,1.11,1.19.55a6.53,6.53,0,0,0-.28-1.75l-.57-.64c0,.13.37,1.35,0,1.16a2.06,2.06,0,0,1-.51-.51L488,474.66l-.24-1.7-.57-.7.24,1.69-1-1.21"/><path id="Path_121" data-name="Path 121" class="cls-10" d="M486.09,467.66l.59.72.72-3.3,0,0,2.6,7.38.59.72-3.14-8.78-.49-.59-.9,3.83"/><path id="Path_122" data-name="Path 122" class="cls-10" d="M484.61,459.55l.59.72.54-3.35v0l2.8,7.43.58.72-3.36-8.83-.48-.59-.67,3.88"/><path id="Path_123" data-name="Path 123" class="cls-10" d="M482.85,451.37l.58.71.34-3.4,0,0,3,7.48.59.72-3.6-8.88-.48-.59-.44,3.93"/><path id="Path_124" data-name="Path 124" class="cls-10" d="M479.28,437.08a15.52,15.52,0,0,0,1.42,3.17v0l-.65-.75.3,1.09c.33.37.6.69,1.1,1.31l3,3.68-.35-1.23-2.49-3c-.91-1.13-1.9-3.4-1.7-3.85.12,0,.22-.06.85.69l2.38,2.91c-.12-.42-.24-.83-.37-1.24l-2.46-3c-.37-.44-1.15-1.36-1.2-.7a2.83,2.83,0,0,0,.16.95"/><path id="Path_125" data-name="Path 125" class="cls-10" d="M479.46,434.09c-1.55-2.11-2.28-4.34-1.83-4.23a2.14,2.14,0,0,1,.68.64c.39,1.2.78,2.4,1.15,3.6M477.08,430c1.26,3.7,4.13,7.53,4.53,6.81.25-.48-.65-2.88-1.29-4.29l-.45-.41s1.64,3.72.82,3.36a2.84,2.84,0,0,1-.68-.66,36.23,36.23,0,0,0-1.55-4.76c0-.09-1.29-1.74-1.58-1.41-.12.13-.05.59.2,1.36"/><path id="Path_126" data-name="Path 126" class="cls-10" d="M478.3,427.27c.11.35.39,1.18-.05.93-1.08-.6-3.7-5.29-3.13-5.58.07,0,.23,0,.61.47l.73.91a12.85,12.85,0,0,1,1.84,3.27M474.74,423c1.29,3.51,4.05,7.19,4.47,6.66.24-.32-.45-2.34-1.68-4.36v0l.45.55a11.28,11.28,0,0,1,2.6,5.59c.21.3.48.72.69,1,0,0-.41-3.72-4.09-8.26l-2.4-2.94c-.55-.68-.83-1-1.14-1.43.14.37.27.74.4,1.1l.62.79,0,0c-.13,0-.45-.14.06,1.28"/><path id="Path_127" data-name="Path 127" class="cls-10" d="M475.85,420.41c.06.17.26.72,0,.62,0,0-.87-.46-2.37-4.39l.71.88a12.79,12.79,0,0,1,1.61,2.89m-3.89-5a27.55,27.55,0,0,0,1.22,2.72l.39.33a12,12,0,0,1-1.21-3.05c.08,0,.14,0,.57.47l.08.1c2.09,5.37,3.64,6.76,3.76,6.45s-.6-2.15-1.68-4l0,0,.48.52c-.15-.37-.3-.75-.44-1.12-.31-.34-.66-.75-.95-1.12l-1.54-1.88c-.28-.35-.95-1.14-1-.81a4.16,4.16,0,0,0,.37,1.38"/><path id="Path_128" data-name="Path 128" class="cls-10" d="M468.63,408.25l.73,1.51.77.93c.14.36.28.72.43,1.07l.57.7c-.14-.36-.29-.72-.43-1.07l2.25,2.75c.61.75.75.83.86.85.22-.15-.54-1.74-.78-2.23l-.55-.64a3.79,3.79,0,0,1,.47,1.28c-.08,0-.13,0-.53-.52l-2.22-2.72-.75-1.8-.57-.7.75,1.8-1-1.21"/><path id="Path_129" data-name="Path 129" class="cls-10" d="M467.75,405c.17.43.36.85.53,1.27l4.12,5c-.18-.42-.36-.84-.53-1.27L467.75,405m-1.46-1.47c.4.92,1,1.75,1.08,1.59a1.24,1.24,0,0,0-.1-.39h0c-.4-.91-1.05-1.77-1.09-1.59a.93.93,0,0,0,.12.4"/><path id="Path_130" data-name="Path 130" class="cls-10" d="M464.27,397.12l.6,1.33c1.42,2,2.82,4.06,4.25,6.08l0,0c-.25-.25-.44-.42-.81-.74l-1.7-1.45c.2.45.4.9.59,1.35l2.95,2.4-.54-1.21-5.36-7.79"/><path id="Path_131" data-name="Path 131" class="cls-10" d="M465.14,397.43c-1.61-2.13-2.5-4.15-2.23-4.2.1,0,.33.2.7.65.49,1.18,1,2.36,1.53,3.55m-2.61-4.12c1.54,3.46,4.6,7.47,4.75,6.79s-1.7-4.18-1.71-4.22l-.44-.43c.36.72,1.52,3.06,1.31,3.33-.13,0-.3-.15-.76-.68a49.76,49.76,0,0,0-2-4.7c-.05-.08-1.32-1.72-1.53-1.42-.05.08,0,.38.37,1.33"/><path id="Path_132" data-name="Path 132" class="cls-10" d="M456.84,381.23a15.7,15.7,0,0,0,2.68,4.64l.2.25c.11.31.23.62.34.92l.57.7c-.11-.31-.23-.61-.34-.92l3.55,4.35c-.15-.41-.3-.82-.44-1.22l-3.55-4.35c-.19-.53-.38-1.07-.56-1.6l-.57-.7q.27.81.57,1.62l-.23-.27a7.6,7.6,0,0,1-1.82-3.44l-.63-.86a5.17,5.17,0,0,0,.23.88"/><path id="Path_133" data-name="Path 133" class="cls-10" d="M458,381c.13.41.26.81.4,1.21l4.12,5.05-.4-1.21L458,381m-1.53-1.51c.3.88.92,1.72,1,1.57s0-.26-.06-.36h0c-.31-.9-.93-1.73-1-1.57s0,.11.05.37"/><path id="Path_134" data-name="Path 134" class="cls-10" d="M455,375.39l.36,1.22,6.05,7.41c-.13-.4-.25-.81-.36-1.22L455,375.39"/><path id="Path_135" data-name="Path 135" class="cls-10" d="M454.49,368.34a11.75,11.75,0,0,0,1.32,3.22v0c-.5-.33-.51.11-.44.55a10.8,10.8,0,0,0,1.37,3.33v0l-.65-.75c.1.35.19.7.29,1.05.36.41.68.8,1.1,1.32l3,3.68-.33-1.19-2.48-3c-.8-1-1.87-3.2-1.52-3.6.14,0,.26,0,.78.64l2.47,3c-.1-.4-.19-.79-.28-1.18l-2.56-3.13c-.86-1.07-1.73-3.12-1.35-3.48.17,0,.3,0,.92.78l2.33,2.87-.24-1.18-2.42-3c-.39-.46-1.29-1.52-1.4-.75a2.05,2.05,0,0,0,.07.74"/></g></g></svg>