<svg id="Layer_1" data-name="Layer 1" xmlns="http://www.w3.org/2000/svg" viewBox="0 0 60.79 115.7"><defs><style>.cls-1{fill:#e72735;}</style></defs><path id="Path_2500" data-name="Path 2500" class="cls-1" d="M45.79,2c3.06,0,6.13.16,9.17.3,2,.08,4,.36,5.83.57l-.14,18.3H59.19l-6,0c-1.51,0-3,0-4.54.06-4.87.17-8.45,2-8.7,8.05-.16,4.36-.27,14-.27,14.5l9.9,0c2.42,0,4.79,0,6.44,0h3.93c-1,7-1.89,13.79-2.87,20.57H39.64l-.39,51.37H17.88l.39-51.45H.79L1,43.8H18.51V42.27c0-4.12,0-8.25.14-12.37a50.28,50.28,0,0,1,.67-7.84A23.29,23.29,0,0,1,28.69,6.78,27,27,0,0,1,44.09,2C44.66,2,45.23,2,45.79,2Z"/></svg>