<svg id="Layer_1" data-name="Layer 1" xmlns="http://www.w3.org/2000/svg" viewBox="0 0 448.31 111.7"><defs><style>.cls-1{fill:#1a1818;fill-rule:evenodd;}</style></defs><path id="Path_38" data-name="Path 38" class="cls-1" d="M22.41,41.64a2.74,2.74,0,0,0-.27-1.09c.42,0,1.32-.06,3.25-.28,1.23-.13,2.16.68,1.2.89-2.1.48-.06.19-4.18.48Zm-.1-9.6,1.8.28c.06.51,2,1.46.38,1.23-2.82-.41-3.12-.91-2.18-1.51Zm-8.48,3.68a2.36,2.36,0,0,0,.38-.1c.29-.11.31-.21.36-.32l.3,0c2.67-.35,4,.81,1.52.94a3.82,3.82,0,0,1-2.56-.47Zm2.39-1.86A6.79,6.79,0,0,0,15,33.79a2,2,0,0,0-1.11.2c-1.65-.17-2.08-.86.1-1s3.19.54,2.2.87ZM12.88,32h0c.28-.16.34-.33.29-.49a11.6,11.6,0,0,1,1.76.22,20.39,20.39,0,0,1-2.06.28Zm351-15.83c-2.07-.08-1.73.59.12.46s1.59-.39-.12-.46Zm.59,1.79c-1-.13-1.77-.14-1.64.2s1.08.42,2,.18c1.49-.4.32-.29-.36-.38Zm-1,5.15c3.83-.4,7.49,1.26,3,1.39-3.79.12-6.62-1-3-1.38Zm-1.2-1.84c1.43,0,1,.74-1.55,1-4.41.47-4.75-.16-4.63-.18a32.33,32.33,0,0,1,6.19-.83ZM22.52,34.62c1.3,0,1.42-.38.06-.4S21,34.57,22.52,34.62Zm-1.49.3c.56,0,1.68,0,1.6-.08a5.5,5.5,0,0,0-1.67,0C20.79,34.81,20.85,34.91,21,34.92ZM9.56,30.35c2.42.82,3.2.78,4.88-.06a2.45,2.45,0,0,0,.62-.43l-.86.06C12.13,30.07,10.57,30.21,9.56,30.35ZM9,97.41c.18,0,.14-.09.18-.16s0-.06-.05-.07-.22-.13-.36-.07.12.13.15.2h0s0,.1.12.1Zm-7.13.74s0,0,0,0,.12,0,.12,0a.82.82,0,0,0-.19-.37h0s0,0,0,0c-.2,0-.23,0-.23.1s.2.17.29.22ZM9.61,97s0,0,0,0,0,0,0,0a.34.34,0,0,1-.22,0c-.08,0-.12-.11-.09-.16s.09,0,.12-.09h0s-.1-.1-.12-.16h0s0,0,0,0a.41.41,0,0,1,.27,0c.09,0,.14.1.13.16s-.18.05-.19.09.06.11.08.16Zm-7.27.72c-.14,0-.14-.05-.2-.08a.21.21,0,0,1-.1-.13s0,0,0,0-.1-.08,0-.1a1.77,1.77,0,0,1,1,.1s-.53,0-.52,0,.11.09.05.13a.3.3,0,0,1-.22.08Zm-2.92.25a6.38,6.38,0,0,1-1.07-.13.67.67,0,0,1,.35-.27,3,3,0,0,1,1.22.21s.05,0,0,0a.64.64,0,0,1-.53.16Zm5.67.61a.19.19,0,0,1,.11,0,.3.3,0,0,1,.12.17.19.19,0,0,1-.11,0,.3.3,0,0,1-.12-.17ZM9,98.11A.47.47,0,0,1,8.76,98s-.06,0-.06,0-.11-.1,0-.14a.61.61,0,0,1,.48,0c.18.13.05.12,0,.21a.22.22,0,0,1-.16,0Zm-4.28.19a.44.44,0,0,1,.16,0s0,0,0,0,.5,0,.5,0a2.15,2.15,0,0,1-.67.05c-.09,0-.06-.07,0-.1Zm3.75-1.12c.07,0,0,0,.06,0s0-.07,0-.07-.05,0-.05,0ZM6.54,97s0,0,0,0,0,0,0,0,0,0,0,0-.09-.12,0-.14a.11.11,0,0,1,.14.11h0ZM7,96.9s.06,0,.08,0a.07.07,0,0,1,.05.06s-.07,0-.09,0,0,0,0-.06Zm-2.54.53h0s0,0,0,0,0-.05,0,0a.16.16,0,0,1,.08.1s0,0,0,0,0,0,0,0Zm5.44-.57c.1,0,0,0,.11,0s0,0,0,0,0,0,0,0a.25.25,0,0,1-.12,0c-.05,0-.1-.06-.05-.07Zm366.13,9.51a.38.38,0,0,1,.3-.08c.1,0,.11.09,0,.12s0,0-.12,0h-.2s0,0,0,0H376s.05,0,.05-.06Zm1.06.6c-.17-.12-.15-.14-.17-.14l-.39,0s0,0,0,0-.19,0-.22-.07-.07-.11.08-.16a.9.9,0,0,1,.4,0c.08,0,0,.08.1.1a2.46,2.46,0,0,1,.51.15c.24.1.08.2-.3.12ZM19.24,44.77c.09,0,.05,0,.08,0s0,.15-.13.21,0,0,0,0a.57.57,0,0,1,.13,0s0,0,.08,0,.06,0,.07,0-.2.12-.06.21h.06a1.41,1.41,0,0,0,.32.17c.15,0,.33,0,.42,0s.18.24,0,.26-.25-.06-.48-.07c0,0,0,0,0,0l-.26,0s0,0,0,0,0,0-.1.08.25.07.24.1-.42.09-.29.14.08.07.23.09.3,0,.41,0,2.33,1.64,2.13,1.75-.43.74-1.1.74c-.4,0-.36-.74-.43-.72s-1.2-1.35-1.25-1.32,0,0,0,0c-.43-.08-.4-.56-.39-.77H19s0,0,0,0-.13,0-.14,0a5.25,5.25,0,0,1-.22-.67s.11,0,0-.08h-.06c-.16-.13-.24-.44.11-.45.12,0,0,.1.11.12s.27,0,.39,0Zm-.9-1.51c.16.12.09.3.33.36a5.07,5.07,0,0,0,.87,0c.13,0-.08.17,0,.26s.12,0,.14,0,.05.17,0,.26-.15,0-.2,0,0,0,0,0c-.19,0-.2-.07-.41,0s0,.12-.08.16-.12,0-.13,0,0,.09,0,.13H19s0,0,0,0h.06s0,0,0,0c.33,0,.43,0,.54.05s0,.18-.27.17,0,0-.23-.09-.23,0-.51,0c-.1,0-.12,0-.15,0s0-.25-.05-.37-.07,0-.07,0-1,0-1-.16-.61-.13-.6-.14.5-.16.51-.2-.13-.49.14-.52c.06,0,.83-.09.87-.07s0,.12.06.18,0,0,.05,0Zm.2-.37s-.05,0,0,0a1.13,1.13,0,0,1,.32,0s.06,0,0,0a1.22,1.22,0,0,1-.33,0Zm.57-.61s-.09,0-.12,0,0,0,0,0,.05,0,.06,0,0,0,0,0,.05,0,.06,0-.92.23-1,.26,0,.09-.09.13a.15.15,0,0,1-.13,0c-.1-.07-.16-.15,0-.26s-.14-.18-.15-.28.1,0,.12,0-.06,0,0,0a1.3,1.3,0,0,1,.59,0,3.87,3.87,0,0,1,.67.17ZM18.05,43c-.05,0,0-.05,0-.07s0,0,.06,0-.06-.06.05-.06.16.08.11.15a.36.36,0,0,1-.2,0ZM379.46,106c-.1-.12-.09-.18.05-.24a.73.73,0,0,1,.25,0s0,0,0,0,.17,0,.2,0a.1.1,0,0,1,0,.13H380c-.06.11-.07.07-.22.14a.27.27,0,0,1-.2,0c-.09,0,0,0-.08,0Zm-1.77-.56c0-.15.19-.21.51-.23a.16.16,0,0,1,.15,0c.07,0,.11.11,0,.15a1.09,1.09,0,0,1-.35.15.35.35,0,0,1-.25,0c-.13,0-.14-.1-.18-.14s.06,0,.06,0Zm.36,1.1a.4.4,0,0,1,.42.06c.15.11,0,.17-.12.24a.34.34,0,0,1-.2,0c-.15-.1-.32-.2-.1-.28Zm.48,1c.05,0,.1.05.09.07s-.1,0-.13,0a.05.05,0,0,1,0-.08Zm-3-.36s0,0,0,0a.3.3,0,0,0,.13,0s0,0,0,0h-.13Zm1.36-1.27a.52.52,0,0,1,.26,0c.08,0,.05.06.1.08s0,0,.06,0,0,0,0,0,.06,0,.06,0,.15.1.12.15h-.07s0,.08,0,.1-.14,0-.19,0,0,0,0,0-.18,0-.2,0-.22-.27-.13-.38Zm.87,2.19c.39,0,.6-.09.68-.2l-.18,0s0,0-.08,0c-.24,0-.63,0-.57.06ZM22.47,98.59c-.54.13-.38.68.26.72,1.51.09.91-1-.26-.72Zm408.07-95c.12,0,.34-.06.38,0s.12.23-.09.29a2.64,2.64,0,0,1-1,0c-.16,0-.22-.17-.08-.21a3.08,3.08,0,0,1,.74-.11s0,.07,0,.07ZM417.28,87.84c-.2-.28.3-.16.64-.38a.31.31,0,0,1,.19,0c.1.11.32.25.12.34S417.37,88,417.28,87.84Zm6.21,3.78c.06,0,0-.05,0-.06s-.13,0-.18,0,0-.08,0-.07c-.57,0-.86,0-.71.17s.65,0,.95,0Zm-5-6.9a3.88,3.88,0,0,0-.76,0c-.06,0,0,.06,0,.07a4.84,4.84,0,0,0,.76,0s0-.07,0-.07ZM431.94,4.64c.24.07.37.27.13.34a2.75,2.75,0,0,1-1.53.08c-.35,0-.11,0-.24-.13s-.27-.37,0-.42a2.58,2.58,0,0,1,1.6.13Zm-4.2,2.94c.37.06.63,0,.36-.09s-.63,0-.36.09Zm-2.18,77.84c.12,0,.34-.06.38,0s.12.23-.09.29a2.64,2.64,0,0,1-1,0c-.16,0-.22-.17-.08-.21a2.65,2.65,0,0,1,.74-.11s0,.06,0,.07Zm2,0c-.2-.28.29-.16.63-.38a.31.31,0,0,1,.19,0c.1.11.32.26.13.35s-.88.16-1,0ZM425,84c.23.07.36.27.12.34a2.72,2.72,0,0,1-1.52.08c-.36-.05-.12,0-.24-.13s-.28-.37,0-.42A2.55,2.55,0,0,1,425,84Zm-62,20.3c-.05,0,0-.06,0-.08a.4.4,0,0,0-.19,0c-.08.05-.23.13-.12.16a1.64,1.64,0,0,0,.54,0c.06,0,0-.06,0-.07s-.14,0-.18,0Zm55.38,4c-.67.22-.5.92.37,1,1.49.16.69-1.34-.37-1Zm-43-6.85c-.7-.14-.54-1.29.38-1.06s.62,1.24-.38,1.06Zm.21.56c-.4,0-.69-.38-.32-.44.91-.15,1.43.45.31.44Zm.53,1.46c-.39-1.06,1.29-.74.6,0-.07.07-.57.12-.61,0Zm.21.56c-.26-.46.65-.54.6,0a.85.85,0,0,1-.61,0Zm31.19-9.58c-.52.07.51,1.28,1.08.69.38-.4,0-.85-1.08-.69Zm6.3-88.56c-1,.89-.87,1.27.76,2,4.19.45,2.52-2.47-.77-2ZM23.12,57.46c-.42.12-.32.56.22.6C24.23,58.12,23.87,57.25,23.12,57.46Zm-1.7-7.19c-.1-.25-1-.66-.86-.77a8.47,8.47,0,0,1,1.32-.32c.2,0,.21.61,0,1.06a.64.64,0,0,1-.43,0Zm.38,1.07c-1-.14-.4-.75.44-.56s.42.67-.43.56Zm5.74,1.4c-.29,0-.24-.29,0-.34.65-.14.81.41,0,.34Zm.44.78c-.82-.12-.39-.6.32-.43s.33.53-.32.43ZM419.71,84.11c-.07-.07-.36,0-.47,0s-.08.07,0,.07S419.77,84.16,419.71,84.11Zm.56,4.7-1.09.1c-.41,0-.06.18-.27.29-.05,0-1.1-.07-1.11,0l.83.42h.23c.24,0,.07-.17.2-.25s.65,0,.84-.1-.5-.13-.46-.17.51,0,.5,0Zm-2.26,1a1.22,1.22,0,0,0-.26-.06c-.06,0-.19,0-.19,0s.13-.31,0-.25l-2.08.55.38.35h-.11l-1.41.7c-.12.06.43,0,.63,0s-.07.14,0,.14c.4,0,.14,0,.36-.09,0,0,.21,0,.19,0s-.28-.1-.29-.27c0,0,.15,0,.19,0s-.09-.07,0-.07a7.39,7.39,0,0,0,1.15-.06,10.81,10.81,0,0,0,1.18-.48c.19-.09,0-.24.06-.35s.18,0,.19,0,0-.12,0-.14ZM432.94,6.88l-1,.06c-.48,0-.78.28-.6.46a.91.91,0,0,0,.64.18,2.21,2.21,0,0,0,1.45-.29c.27-.23-.12-.43-.51-.41Zm-65.51,98.69h0Zm.16,0c.05,0,.32-.13.48-.08s.63.31.32.33l-.86,0,0,.1s.15,0,.18,0c.39.29.17.66.56,1,.16.13,1.12.2,1.07.06l-.16-.45c0-.06,0-.1-.06-.17l-1.1-3-1.15-.33.18.34s-.19,0-.19,0c0,.19.22.38.23.57,0,0-.18,0-.18,0a.63.63,0,0,0,.17.43s.16,0,.18,0c.45.33,0,.83.29,1.19ZM430,3l-.44.07.14.11a.31.31,0,0,0,.19,0s-.07,0,0-.07.19,0,.18,0ZM369.22,106.47l-.06-.16A1.66,1.66,0,0,0,369.22,106.47Zm-2.36-4.65,1.8-.1-.2-.16a1.33,1.33,0,0,0-.79,0c-.35.08-.06,0-.36.08,0,0,.09.06,0,.07C367.12,101.72,366.64,101.83,366.86,101.82ZM29.39,40.57h.06a1.1,1.1,0,0,0,.44-.07c.1-.06.11-.22-.07-.21l-.41,0C29.16,40.32,29.17,40.59,29.39,40.57ZM408,93.19l1.93-.1c.14,0,.2-.13.1-.17a1.61,1.61,0,0,0-.65-.17,3,3,0,0,0-1.45.28c-.12,0-.05.17.07.16Zm-42.92,8.68a.4.4,0,0,0,.19,0c.05,0,0-.1-.05-.14a.31.31,0,0,0-.19,0s0,.1.06.14Zm27.44-6.5a3.43,3.43,0,0,0,.56-.07s-.15-.07-.45-.06a2.78,2.78,0,0,0-.57.07s.16.06.46,0Zm5.36-.62,5.3-.66-1,0a17.21,17.21,0,0,0-2.48.24,5.49,5.49,0,0,0-.9.17c-.09,0,.38,0,.22,0-.57.09-1.82.31-1.17.24ZM39,26.19C38,27,41,27.46,47.58,27.34,51.1,27.28,39.61,25.75,39,26.19ZM424.19,90.42c-1.76-.17.84-.52,1.78-.22A8.26,8.26,0,0,1,424.19,90.42Zm-1.84-.24c-3.47-.47,2.37-.85,1.77-.22a9.63,9.63,0,0,1-1.77.22ZM18.8,96.62c-1.23.13-2.92,0-1.91-.14,2.46-.39,5.34-.23,1.91.14ZM17,96.37c-2.45.16-4.45-.54-1.1-.72,2.95-.15,4.59.49,1.1.72Zm4.54.35c1.22-.07,2.43-.11,3.35-.11a18.37,18.37,0,0,1,3,.24c.08,0-.58.05-.54.07.23.07,1.57,0,1.22.15a24.39,24.39,0,0,1-2.69.33c-.4,0-.15-.07-.48-.06s-1.1.12-1.32.1c-1.45-.1-2.09-.31-3.39-.43-.08,0-.4.07-.53.07-.4,0-1,0-.73-.09a15.46,15.46,0,0,1,2.14-.27ZM32.16,26.21c-1.34-.27.91-.64,1.77-.22a8.18,8.18,0,0,1-1.78.22ZM428.33,82c1.18-.13,1.66-.25,1.66-.34l-.64,0c-.14,0-.2,0-.35,0-.74.08-2,.2-1.65.23ZM421,81a5,5,0,0,1,.77-.09,3.12,3.12,0,0,1,.44,0l.19,0c.11,0,.06,0,.16,0a1.54,1.54,0,0,1,.19,0,3.82,3.82,0,0,1,.68,0l-.19,0s.24,0,.13.07-.41,0-.57.07.15,0,.08,0q-.33,0-.66.06c-.7,0-1.26-.08-1.22-.18Zm-1.44,1.18s0,0,.08,0l.39,0s0,0-.08,0a2.6,2.6,0,0,0-.39,0Zm10.08-.82a2.07,2.07,0,0,1,.43,0,2.33,2.33,0,0,1-.38,0c-.18,0-.23,0-.24,0a.55.55,0,0,1,.18,0ZM425.89,81a5.48,5.48,0,0,1,1.4-.11c.69,0,.41.09.15.17a3.49,3.49,0,0,1-.65.06c-.66,0-1.38,0-.91-.12Zm-3.5-.5c-.28-.1.13-.19,1.07-.31a2.56,2.56,0,0,1,.55,0c.32,0,.56,0,.49.07a5.89,5.89,0,0,1-.75.2,3.85,3.85,0,0,1-.68.1,5.16,5.16,0,0,1-.88,0s.2,0,.19,0ZM429,80.2c-.56,0-.66-.08-.35-.15a4,4,0,0,1,.69-.11h.08c.21,0,.5-.06.66-.06a.93.93,0,0,1,.4.06l-.19,0c0,.08-.08.06-.36.15a3.72,3.72,0,0,1-.57.08H429Zm-5.19,1.31-.84,0-1.15.15c-.07,0,0,0-.08,0-.36,0-.63,0-.82,0-.51,0-.45,0-.11-.12s.82-.11,1.24-.13.23,0,.51,0c.84-.05,1-.06,1.92-.09s.68.08-.67.17Zm-4.54,0a2,2,0,0,1,.76-.15c.33,0,.52,0,.41.06l-.3.06-.58.07c-.07,0,0,0-.08,0l-.19,0c.05,0,.12,0,0,0Zm15.2-15.16c.63,1.31-.05,1.24-.74.52-.06,0-.21,0-.32,0a5,5,0,0,1-1.62-.34c-.77-.51.13-.38.79-.7.07,0,.37,0,.32,0s-.57-.3-.7-.46.26,0,.33,0,0-.21.13-.25,1.21,0,1.81,1.24ZM437,69.22c.27-.18-.23-.59-.68-.8a1.38,1.38,0,0,0-.92,0,1.41,1.41,0,0,0-.72.36c-.06.1.33.27.58.3.57.09,1.48.28,1.74.1Zm-4.36-5.09c-.08-.32-.5-.66-.85-1-.14-.13-.47-.22-.59-.35s.29,0,.27,0a1.56,1.56,0,0,0-.77-.9c-.3-.14-.57.13-.85.07s0-.2-.19-.24a3.56,3.56,0,0,0-1,0s.1.06.06.08-.24,0-.32,0,0,.07.06.08.22-.06.33,0,0,.18.18.23.54,0,.72.06.53.44.51.63-.71,0-.59.11A9,9,0,0,0,431.47,64c.1,0,.21,0,.33,0,.33,0,.82.24.79.14Zm-2.45-2.84a10.42,10.42,0,0,0-2-2.39c-.15-.12-.55,0-.7,0-.45.2-.85.24-.53.6.05.06.21-.05.32,0s0,.12.13.16.28-.08.32,0c.18.22.29.47.19.65s-.46,0-.59.11.18.12.13.16-.31,0-.32,0,.27.22.25.31-.25,0-.32,0,0,.07.06.08.22-.06.32,0a2.13,2.13,0,0,0,.85.21c.05,0,0,.08.06.08.45,0,.85-.06,1.3-.06.05,0,0,.08.06.08s.58.08.52,0Zm-2.45-2.86a43.57,43.57,0,0,0-3.32-3.86c-.08-.08-.49-.09-.49,0s.1.68.25.73.23-.06.33,0,.27.23.25.32-.3,0-.32,0,.22.17.19.24-.38-.05-.32,0c.86.84,1.12,1.86,3.07,2.58.12,0,.41.06.36,0ZM423,53c0-.24-.34-.52-.66-.77a.4.4,0,0,0-.32,0c-.21.16-.21.49.25.73C422.57,53.13,423,53.13,423,53Zm23.49,28.08v.27c-.54.11-1.09.2-1.63.27a3.7,3.7,0,0,0-.74-.13l-.49,0a8.94,8.94,0,0,0,2.86-.38Zm0-1.29v1l0,0c-.28-.16,0-.48-.85-.48a4.91,4.91,0,0,0-2.3.48c-.18.12,1.07.18,1.08.31s-.3.1-.61.13c-.29-.3-2,0-1.6-.6s-.41-.19-1.1,0c-1.18.3-4.38-.74-.87-.57,1.2.06,2.16.07,3.35.13s-.26-.15-.46-.3l3.15,0v0h.26Zm0-8v7.29a2.56,2.56,0,0,0-1,.14c-.11.12.52.22,1,.32v.12a17.12,17.12,0,0,0-3.28,0c.32-.27.87-.44-.58-.36-3.31.16-.3.44-1.51.53a12.38,12.38,0,0,1-1.92.12c-.6,0-.47-.25-.7-.37s0,0-.1-.09-.61-.24,0-.23c.44,0,.71,0,1.15,0,1.51,0-.61.3.21.27,1.19,0,2.14-.26.68-.33-3-.13,2.06-.26-.26-.45-.72-.06-2.47-.09-2.33-.25A12.65,12.65,0,0,1,440.6,78c.6-.1-.15-.37.18-.27,1.06.32,3.28.77,1.53.13-.49-.18.5-.16.5-.35s-.81-.21-.8-.37.23-.2-.21-.13a12.77,12.77,0,0,1-1.94.28,5,5,0,0,1-1.09,0c-.47-.07.31-.24.37-.25a4.66,4.66,0,0,1,.64-.08s1.45,0,1.22-.07a3.43,3.43,0,0,1-1.51-1c-.12-.21.69-.36.63-.57s-1.07.15-1.48.09c-.85-.13-.63-.45-1.57-.54-.54-.06-.22.23-.33.35s-.77,0-1.45-.08c-.45-.1-1.35-.24,0-.22a2.87,2.87,0,0,0,.41,0c.42,0,.58-.1.63-.19s.3-.28-.29-.34a3.14,3.14,0,0,0-.75,0v-.19a4.57,4.57,0,0,0,.83,0c1,0,.89-.3-.05-.22a4.19,4.19,0,0,0-.78.11c1.33-.73-.76-1-3.73-1.23-1.1-.11-3.59-.18-7.15-.31-6.37-.24-22.46-.91-33.81-1.14a102.77,102.77,0,0,1-10.24-.9s7.78.81,10.54.8c4.59,0,11.17,0,13.67,0,8.51.17,21.77.65,23.76.58,3.76-.13,8-.25,8.08-.36a1.69,1.69,0,0,1,1.06-.57c.07-.23,0-.46-.46-.66-.1,0-.21.06-.32,0-.76-.27-1.29-.52-1.41-.93,0-.11.46,0,.65,0s-.12-.07-.07-.08c.43,0,1.05-.22,1.35,0a6.16,6.16,0,0,1,1.05,1c.12,0,.18,0,.15-.09l-.05,0c.49-.05,1-.13,1.37-.2.79-.15,0,0-.44-.11l-.05,0a5.88,5.88,0,0,0-.84-.27,1.54,1.54,0,0,0,.29-.23h.46c.06,0,.17,0,.15,0a1.67,1.67,0,0,0-.49-.12c.21-.3.41-.6.6-.91a3.53,3.53,0,0,0,.46,0c.31,0,0-.15-.3-.22l.07-.08.07-.08h.05a28.31,28.31,0,0,0,4.76.61c-1.3.33-1.89.93-1.61,1.37-.53,0-5,.69-3,.7a12.49,12.49,0,0,0,1.73,0c.3-.06-.82-.12-.72-.19a11.67,11.67,0,0,1,1.84-.42l.16-.06a1.51,1.51,0,0,0,.93.44c-.2,0-.48.07-.9.11h-.2c-.55,0-1.09.11-1.17.27s.77.19,1.49.15c.56,0,1-.1.94-.21a1.25,1.25,0,0,0-.78-.2l.94-.07.37,0a6.65,6.65,0,0,1,1.48.08c-.14,1-2.76.42-.24.76a4.21,4.21,0,0,1,.6.11c-.21,0-.42.09-.42.19a.05.05,0,0,0,0,.07l.58-.08Zm0-2v.18c-.41,0-.47-.11,0-.18Zm1.79-13.17-.45,3.7-1.34,8.1c-.23,0-.51,0-.71-.06-.58,0-1.23,0-1.77-.08-.35,0,.6-.19.26-.23-.55,0-1.2.11-1.79.08-.33,0,.36-.29,0-.28-.75,0-2.23.09-2.71.18l.39-.43a3.47,3.47,0,0,0,.85,0,3.31,3.31,0,0,0,.88-.15c0-.08-.28-.19-.68-.22a4.22,4.22,0,0,0-.71,0l.19-.21c.66-.06,1-.26.82-.39s-2-.14-1.45-.19c1.05-.09,3.58.24,3.45,0s-2.1-.12-3.32-.15l.81-.08c.33,0-.06-.15-.69-.3h0c.17-.06-.16-.1-.6-.12-1.42-.3-3.26-.61-2.1-.5a10.24,10.24,0,0,0,1.92.19c.65-.07.33-.28.5-.42.86-.73,4.87-.25,4.06-1-.29-.27-.68.72-2.09,0-.47-.23-1.42-.44-1.42-.69s.94-.11,1.4-.17c1.32-.16-1.1-.06-1.75-.15a7.71,7.71,0,0,0-1.66-.22c-.67,0-.58.25-.86.38-.7.3-.42-.2-1.1-.49,0-.11-.08-.22-.4-.3a1.6,1.6,0,0,0-.69,0c-.1,0-.56,0-.66-.06-1.85-.27-1.11-.55,0-.82a5.55,5.55,0,0,0,.82-.06.76.76,0,0,0-.45-.21v-.08h.19a1.91,1.91,0,0,0,.81,0,.06.06,0,0,0,0-.07l1.15-.11c0,.05.12.1.4.16.72.15,1.72-.05.88-.19a2.93,2.93,0,0,0-1.25,0c-.6,0-1.9-.13-.52-.3a23.82,23.82,0,0,0,3-.38c.52-.16-.64-.42-.07-.59a8.54,8.54,0,0,1,2.94.08c.83.24.28,0,1.26-.28.38-.12-1.45-.12-1.66,0-.1-.1-.42-.21-.5-.3-.24-.32,1.75,0,2.85-.46.51-.22.62-1.69,1.13-1.91.23-.1,2.19-.46,2.39-.23Zm-10.2-45.83c1.15-1.1,1.74-1,1.45-.41,0,.05.25,0,.34,0,.36.09,1.1.1,1.14.33.06.44-.64.31-1.72.54-.11,0-.31,0-.34,0s.16.26.07.4-.23,0-.34,0-.27.18-.47.2-1.24,0-.13-1.06Zm4.21-7.14c-.44.56-1.07,1.15-1,1.69,0,.16.83.09,1.23,0,1.64-.4,1.12-1,2-1.55.07,0-.3,0-.34,0-.23-.2-.26-.22-1.57-.2-.11,0-.32,0-.36.07Zm-1.24,2.1c-.52.79-1.38,1.6-1.4,2.37,0,.19.88,0,1.34,0,.06,0,0-.06.05-.06.23,0,.56.09.68,0,.42-.34.24-.56-.15-.8-.05,0-.3,0-.34,0-.51-.43,1.74-.91,1.48-1.22s-1.14-.2-1.48-.33a.35.35,0,0,0-.18,0Zm-1.54,2.61c-.5.14-.56.49-.4.68s.64,0,1,0a6.13,6.13,0,0,0,1.2-.27c.19-.08,0-.23-.16-.27a4,4,0,0,0-1.61-.13ZM437,12.65a1.39,1.39,0,0,0-.5.83c0,.11.17.2.11.3s-.25,0-.29,0c-.24.25-.63.55-.45.76s.74-.09.93,0-.24.17-.13.2a3.22,3.22,0,0,0,1,.06c.05,0,0,0,0-.06s.22,0,.34,0,.09-.06,0-.07-.3,0-.34,0,.22-.16.14-.2-.6,0-.64-.06.07-.38.35-.54.7,0,.73-.07c.12-.37-.13-.69-.35-1,0,0-.25,0-.34,0C437.35,12.73,437.11,12.56,437,12.65Zm-1.42,2.41a5.17,5.17,0,0,0-1.2,2c0,.1.49,0,.73,0,.7-.15,1.15-.17,1.34-.48,0-.05-.28,0-.35,0s.15-.1.09-.13-.37.05-.34,0a1.55,1.55,0,0,1,.7-.54c.19-.09.5,0,.73-.08s0-.1.08-.13.26,0,.35,0,0-.19.17-.27.23,0,.34,0,.09-.06.05-.07-.29,0-.34,0-.06-.1-.55-.2c0,0,.09-.06,0-.06-.43,0-.92,0-1.36,0,0,0,.09-.06.05-.06s-.46-.09-.53,0Zm-1.43,2.42a20,20,0,0,0-1.93,3.28c0,.07.35.09.45,0,.27-.17.82-.57.74-.61s-.31,0-.34,0,0-.19.18-.27.25,0,.34,0,0-.15.13-.2.32.05.34,0c.29-.72,1.41-1.57.45-2.22-.06,0-.32-.06-.36,0Zm-3.45-3.83a.65.65,0,0,0-.38.65s.23,0,.33,0c.43-.13.87-.4.74-.61S430.87,13.55,430.69,13.65Zm16.65,76.16-9.16,1.85v.68l-3.57,1.71-1.78,1.21h-2l-.26.41-6.93,2.47,7.7-2.42.25-.27,3.06,0,.77-1.26,3.31-1.76.5-.67,9.68-1.85ZM23,29.63a7.46,7.46,0,0,0,3.22,1.17c1.71.26,2,0,.76-.7-.41-.22-.84-.43-1.27-.61-.55,0-1.08,0-1.6.08s-.74.05-1.11.06Z"/></svg>