<svg id="Layer_1" data-name="Layer 1" xmlns="http://www.w3.org/2000/svg" viewBox="0 0 630 682.3"><defs><style>.cls-1{fill:#1a1818;fill-rule:evenodd;}</style></defs><g id="Group_520" data-name="Group 520"><path id="Path_38" data-name="Path 38" class="cls-1" d="M33.66,245.69c0-2.24-.17-4.52-.38-6.81.58,0,1.84-.36,4.54-1.73,1.72-.86,3,4.21,1.69,5.56-2.94,3-.09,1.2-5.85,3Zm-.15-60L36,187.49c.08,3.16,2.82,9.09.54,7.63-4-2.53-4.37-5.7-3.06-9.41Zm-11.85,23a3,3,0,0,0,.53-.65,4.82,4.82,0,0,0,.51-2,3.19,3.19,0,0,1,.42-.3c3.73-2.22,5.6,5,2.12,5.84a3.1,3.1,0,0,1-3.55-2.56A1.84,1.84,0,0,1,21.66,208.72ZM25,197.06a3,3,0,0,0-1.66-.43,1.59,1.59,0,0,0-1.55,1.26c-2.31-1.06-2.91-5.38.13-6.21S26.38,195,25,197.06Zm-4.67-11.49,0-.06a7.06,7.06,0,0,0,.41-3.06c.23.29,2.52.74,2.45,1.36s-2.52,1.33-2.88,1.76ZM511.11,86.65a1.52,1.52,0,1,0-.9,2.91,1.55,1.55,0,0,0,1.06-.06c2.51-.82,2.23-2.43-.16-2.85Zm.82,11.17c-1.44-.8-2.47-.87-2.29,1.27s1.5,2.66,2.8,1.13c2.08-2.5.45-1.87-.51-2.4ZM510.6,130c5.35-2.49,10.47,7.87,4.2,8.68-5.3.7-9.25-6.33-4.2-8.68Zm-1.68-11.54c2,.11,1.44,4.63-2.17,6.35-6.17,3-6.65-1-6.48-1.14,2.77-1.89,5.17-5.41,8.65-5.21ZM33.8,201.79c1.82.21,2-2.32.09-2.52S31.62,201.53,33.8,201.79Zm-2.08,1.87c.78.09,2.34.26,2.24-.48s-1.58-.43-2.33-.27c-.25.05-.17.73.1.76Zm-16-28.54c3.37,5.15,4.47,4.91,6.81-.39a14,14,0,0,0,.88-2.68l-1.21.37a31.69,31.69,0,0,0-6.48,2.7ZM15,594.24c.26,0,.19-.56.26-1a.58.58,0,0,0-.07-.41c-.25-.22-.31-.8-.5-.44s.16.81.21,1.23c0,0-.06,0-.06,0,0,.21,0,.6.16.59ZM5,598.86c0,.06,0,.18,0,.2s.17,0,.16-.07a14.88,14.88,0,0,0-.27-2.3s0,0,0,0,.07.18,0,.2c-.27.22-.32.13-.32.59A3.16,3.16,0,0,0,5,598.87Zm10.76-7.39s-.05,0-.05,0,.07.17,0,.2-.26.1-.32-.08a2.48,2.48,0,0,1-.11-1c0-.22.11-.21.15-.51,0,0,.06,0,.06,0,0-.35-.14-.67-.18-1,0,0,.06,0,.06,0s-.07-.18,0-.2.3-.13.38.05a2.36,2.36,0,0,1,.17,1c0,.23-.24.32-.26.56a5.17,5.17,0,0,0,.11,1ZM5.59,596c-.2-.05-.2-.34-.28-.54a3.28,3.28,0,0,1-.14-.82s.06,0,.06,0c0-.22-.15-.5-.05-.64.23-.32,1.16-.18,1.37.62,0,0-.73-.06-.73,0a2,2,0,0,1,.09.84c-.09.28-.15.62-.32.59Zm-4.08,1.58c-.17,0-1.51-.56-1.51-.84A5.35,5.35,0,0,1,.5,595c.37-.54,1.34.8,1.71,1.36a.28.28,0,0,1,0,.2c-.19.63-.26,1.08-.73,1Zm7.92,3.81c0-.08.12-.14.15-.07a3.26,3.26,0,0,1,.17,1c0,.09-.12.15-.14.07a3.53,3.53,0,0,1-.18-1Zm5.49-2.72c-.24-.3-.15-.06-.36-.71,0,0-.07.07-.08,0-.06-.51-.16-.61,0-.89s.55-.25.67.14c.25.78.07.73,0,1.33,0,.12-.16.18-.22.1Zm-6,1.19a.16.16,0,0,1,.19-.12l0,0s0,.17,0,.2.69-.1.71.18-.73.47-.94.36-.08-.44,0-.64Zm5.24-7c.1.19,0,.16.09.18s0-.43-.07-.41-.07,0-.08.25c0,0,.05,0,.06,0Zm-2.7-1c0,.25,0,.15-.08.26s0-.15,0-.2,0,.05-.06,0c-.07-.53-.13-.75,0-.89s.2.4.2.79c0,0-.06,0-.07,0Zm.66-.73c0-.06.09-.1.11-.05a.83.83,0,0,1,.07.41c0,.06-.09.1-.11,0a.84.84,0,0,1-.08-.41Zm-3.54,3.32s-.05.05-.06,0a.34.34,0,0,1,0-.2c0-.1,0-.33.08-.26a2.17,2.17,0,0,1,.1.62s0,0-.06,0,0-.15,0-.21Zm7.6-3.58c.13-.07,0,0,.15.16,0,0,0,0,.05,0a.32.32,0,0,1,0,.21c0,.07-.13.13-.17.07s-.15-.36-.07-.41Zm512,59.42c.13-.44.31-.67.43-.51a1,1,0,0,1,.06.8c-.1.27,0,.05-.17.21a.24.24,0,0,1-.28.06s0-.12,0-.16-.07,0-.09,0,0,0,0-.42Zm1.48,3.79a7.22,7.22,0,0,0-.24-.9c-.19,0-.37.14-.55.13s0-.13,0-.16-.27-.16-.31-.41c-.13-.66-.1-.68.11-1s.4-.12.56,0,0,.5.14.62a3.77,3.77,0,0,1,.72,1c.33.58.11,1.22-.42.74ZM29.22,265.27c.13.07.06-.07.1.14a1.51,1.51,0,0,1-.18,1.35.18.18,0,0,0,0,.16c.05,0,.12-.09.18-.05s.06.23.11.3.09-.07.09,0c0,.34-.28.77-.08,1.32,0,0,.07-.06.09,0a4.26,4.26,0,0,0,.44,1c.22.3.47,0,.58.35.19.53.26,1.46,0,1.63s-.35-.4-.68-.49c0,0,0-.17,0-.16s-.32.15-.36.25,0,.12,0,.16c-.13.25-.05.17-.15.53-.06.19.34.42.33.64,0,.44-.58.53-.41.85s.11.45.32.57.42-.29.57.19c.32,1,3.26,10.25,3,11-.11.27-.59,4.63-1.52,4.63-.57,0-.52-4.63-.6-4.5s-1.68-8.48-1.76-8.25c0,0,.05.18,0,.16-.59-.49-.55-3.5-.53-4.78,0,0,.07,0,.09,0a.22.22,0,0,0,0-.16c-.06-.07-.18,0-.2-.11-.16-1.38-.2-2.79-.31-4.18a.55.55,0,0,0,.06-.5s-.08.07-.09,0c-.22-.82-.33-2.74.16-2.82.16,0,0,.64.15.78S29.05,265.17,29.22,265.27ZM28,255.77c.23.79.13,1.92.46,2.25.49.5.72.14,1.21.28.19.05-.11,1.08,0,1.62,0,.11.18,0,.2.12a5.24,5.24,0,0,1,0,1.63c0,.16-.21,0-.28-.1s0-.28,0-.32c-.26-.15-.28-.46-.57-.18s0,.7-.11,1c0,.1-.16-.05-.18.05a2.68,2.68,0,0,0,.06.8c0,.05.07-.05.09,0s0,.13,0,.16a.06.06,0,0,0,.08,0s0,0,0,0,0-.15,0-.16c.46-.15.6-.15.77.3s0,1.11-.39,1.07,0-.28-.32-.57-.32.16-.71.33c-.14.07-.17,0-.2-.27-.13-.72,0-1.52-.08-2.27,0-.05-.09.07-.09,0-.09-.79-1.38-.25-1.41-1.05,0-.05-.85-.77-.85-.83,0-.21.7-1,.72-1.24,0-.49-.19-3.07.19-3.28.09-.05,1.16-.57,1.22-.43a7,7,0,0,1,.08,1.12c0,.07.07-.05.08,0Zm.28-2.29a.31.31,0,0,1,0-.32.42.42,0,0,1,.46-.11c.06,0,.08.26,0,.32a.4.4,0,0,1-.45.12ZM29,249.7c0,.11-.13.11-.17.21a.18.18,0,0,0,0,.16s.07-.06.09,0,0,.24,0,.32.08-.06.09,0a12.27,12.27,0,0,1-1.4,1.57c-.17.26,0,.58-.12.85,0,.1-.16,0-.19-.12a2.79,2.79,0,0,1,0-1.62c.15-.54-.2-1.15-.22-1.74,0-.12.14-.1.17-.21s-.08-.27,0-.32c.33-.3.47-.44.81-.2.16.11,1,1,1,1.16Zm-1.48,4.44a.88.88,0,0,1,0-.48s.09,0,.09,0c.06-.33-.08-.39.07-.35s.22.49.16.94c0,.17-.22,0-.28-.09ZM532.92,648.19a2.18,2.18,0,0,1,.08-1.49c.14-.24.3-.28.35-.25s0,.14,0,.16.24,0,.29.1a2.15,2.15,0,0,1,.06.8s-.09,0-.09,0c-.09.67-.1.42-.3.89-.06.13-.21.18-.28.07S533,648.43,532.92,648.19Zm-2.47-3.48c0-1,.27-1.33.72-1.48.14-.05.13.07.2.28a1.65,1.65,0,0,1,.07,1,3.34,3.34,0,0,1-.48.94c-.17.23-.22.36-.35.25s-.2-.6-.26-.92c0,0,.1,0,.1,0Zm.51,6.9c.27-.47.44-.08.58.35a1.89,1.89,0,0,1-.17,1.51c0,.14-.23.06-.28-.09a2.2,2.2,0,0,1-.13-1.76Zm.67,6.54a.93.93,0,0,1,.12.46.09.09,0,0,1-.1.09.12.12,0,0,1-.08,0,1,1,0,0,1,0-.48,0,0,0,0,1,.05,0l0,0Zm-4.25-2.23a.2.2,0,0,0,0,.17.14.14,0,0,0,.18-.05.15.15,0,0,0,0-.16.17.17,0,0,0-.19,0Zm1.92-8c0-.2.25-.17.36-.09s.06.33.13.46.07-.07.09,0,0,.23,0,.32.08-.08.09,0a3,3,0,0,1,.16.94c0,.05-.08,0-.09,0,0,.21,0,.48,0,.66s-.19,0-.27.07,0,.15,0,.16-.26.06-.29-.09a7.24,7.24,0,0,1-.17-2.41Zm1.2,13.67c.55-.07.84-.53,1-1.26l-.25-.3c-.05-.07,0-.29-.11-.3-.33,0-.88-.16-.8.36Zm-496.77-60c-.75.81-.53,4.25.37,4.48,2.12.55,1.28-6.25-.37-4.47ZM604.36,7.71c.17.09.47-.4.53-.12a2.41,2.41,0,0,1-.13,1.77.93.93,0,0,1-1.32-.08l0,0a1.35,1.35,0,0,1-.1-1.29c.35-.49,1-.75,1-.66S604.28,7.66,604.36,7.71ZM585.82,534.46c-.28-1.76.41-1,.89-2.37,0-.14.24-.2.27-.07a3.85,3.85,0,0,1,.17,2.15C586.87,534.76,585.94,535.19,585.82,534.46Zm8.68,23.65c.08-.05,0-.35,0-.43s-.19.15-.26.06,0-.45,0-.43c-.8.18-1.2.17-1,1.1.16.7.91-.07,1.33-.3Zm-7-43.16a1.47,1.47,0,0,0-1.06.23c-.08.05-.05.42,0,.43a1.51,1.51,0,0,0,1.07-.24c.07,0,0-.41,0-.42ZM606.32,14.44a2.45,2.45,0,0,1,.18,2.14c-.84,1.1-1.14,1.17-2.13.48-.5-.34-.17-.14-.34-.8-.29-1.13-.38-2.33.06-2.63,1.28-.89,1.54-.17,2.23.81Zm-5.87,18.35c.51.37.88-.27.5-.55S600.06,32.51,600.45,32.79ZM597.4,519.33c.17.1.46-.39.53-.11a2.41,2.41,0,0,1-.13,1.77.93.93,0,0,1-1.32-.08l0,0a1.38,1.38,0,0,1-.1-1.28c.35-.5,1-.77,1-.67s-.06.38,0,.42Zm2.73.27c-.28-1.77.41-1,.88-2.38,0-.13.24-.2.27-.06a3.9,3.9,0,0,1,.18,2.14c-.29.59-1.22,1-1.33.3Zm-3.47-9.26a2.45,2.45,0,0,1,.18,2.14c-.85,1.1-1.15,1.16-2.13.48-.5-.35-.17-.15-.34-.8-.29-1.13-.38-2.33.06-2.63,1.27-.89,1.54-.17,2.23.81ZM509.93,637.18c-.07-.09,0-.36,0-.45a.14.14,0,0,0-.21,0l-.05.06c-.11.28-.32.76-.17,1s.53,0,.76-.19c.08-.06,0-.35,0-.44S510,637.27,509.93,637.18Zm77.44,25.11c-.94,1.37-.71,5.71.51,6.26,2.09.94,1-8.41-.51-6.26ZM527.2,619.43c-1-.82-.77-8.06.53-6.57,1.14,1.29.87,7.75-.53,6.57Zm.28,3.52c-.55,0-1-2.38-.44-2.76,1.28-.92,2,2.79.45,2.75Zm.75,9.12c-.54-6.61,1.8-4.6.84-.2-.09.42-.8.68-.84.2Zm.29,3.52c-.36-2.86.91-3.38.84-.21,0,.46-.78.68-.84.21Zm43.62-59.9c-.72.45.71,8.06,1.5,4.33.54-2.53.06-5.31-1.5-4.34Zm8.8-553.46c-1.35,5.53-1.22,7.92,1,12.65,5.88,2.81,3.55-15.42-1-12.66ZM34.64,344.58c-.58.74-.44,3.5.31,3.74C36.2,348.73,35.69,343.24,34.64,344.58Zm-2.38-45c-.13-1.56-1.33-4.1-1.2-4.78.09-.48,1.73-2,1.85-2,.29-.09.29,3.8,0,6.62,0,.33-.56.5-.61.15Zm.55,6.67c-1.4-.86-.56-4.65.6-3.47,1,1,.59,4.22-.6,3.47Zm8,8.79c-.4-.14-.34-1.8,0-2.16.91-.84,1.13,2.56,0,2.16Zm.61,4.87c-1.14-.76-.54-3.74.45-2.71.82.85.46,3.33-.45,2.72ZM589.22,511.09c-.1-.4-.5,0-.66.1s-.1.42,0,.4C588.78,511.55,589.31,511.47,589.22,511.09Zm.78,29.37-1.52.63c-.58.24-.08,1.17-.39,1.83-.05.12-1.54-.47-1.55-.32l1.16,2.63.33-.07c.33-.08.1-1.07.28-1.55s.91-.2,1.18-.62c.12-.2-.7-.8-.65-1.07s.72,0,.7-.12Zm-3.16,6.29a1,1,0,0,0-.37-.41c-.08-.07-.26.21-.26.06,0-.61.18-1.91,0-1.53l-2.91,3.4.54,2.18-.16.09-2,4.41c-.16.36.6-.12.88.15s-.1.89.07.86c.56-.1.2-.06.5-.55.07-.11.3.08.27-.06a4.32,4.32,0,0,1-.4-1.66c0-.14.21.06.26-.05s-.12-.39,0-.43c.51-.26,1.2.26,1.6-.36a24.14,24.14,0,0,0,1.65-3c.26-.58,0-1.49.09-2.2,0-.15.24.09.26-.06A1.87,1.87,0,0,0,586.84,546.75ZM607.72,28.43l-1.38.34c-.66.16-1.09,1.78-.84,2.89.17.75.44,1,.9,1.11,1,.15,1.7-.49,2-1.77C608.8,29.53,608.26,28.3,607.72,28.43ZM516.11,645.27v0h0Zm.23-.24c.06.33.44-.79.67-.5.35.44.88,2,.44,2.08l-1.2.27.06.61c0,.14.21-.19.25-.06.55,1.82.24,4.09.78,5.94.23.79,1.57,1.24,1.5.35l-.23-2.8c0-.35-.05-.61-.09-1L517,631.17l-1.62-2,.25,2.09c0,.14-.26-.09-.26.06,0,1.2.3,2.37.32,3.58,0,.14-.25-.09-.25.06a13.43,13.43,0,0,0,.24,2.68c0,.13.21-.19.25-.06.62,2.12,0,5.22.41,7.49ZM603.58,4.17l-.61.45.2.67c0,.13.21.06.25-.06s-.09-.32,0-.45.26.09.25-.06Zm-85,646.74-.09-1C518.49,649.46,518.64,651.26,518.61,650.91Zm-3.3-29.06,2.51-.62-.28-1a.63.63,0,0,0-.78-.42.62.62,0,0,0-.32.23c-.49.52-.09-.17-.5.55-.05.1.12.37,0,.42-.3.21-1,.94-.67.87ZM43.42,239l.08,0a.73.73,0,0,0,.62-.49c.14-.36.15-1.34-.1-1.29l-.58.13C43.1,237.45,43.11,239.12,43.42,239ZM572.84,567.91l2.7-.67c.2,0,.28-.77.13-1-.35-.55-.44-1-.9-1.1-1-.16-1.44.79-2,1.75C572.57,567.17,572.66,568,572.84,567.91Zm-60,54.22c0,.12.24.08.27-.06a1.57,1.57,0,0,0-.07-.86c0-.12-.24-.08-.27.06a1.68,1.68,0,0,0,.07.86Zm38.36-40.65a1.4,1.4,0,0,0,.79-.43c0-.24-.21-.39-.62-.38a1.5,1.5,0,0,0-.8.43C550.51,581.34,550.77,581.49,551.18,581.48Zm7.5-3.86,7.41-4.1-1.34-.17a7.41,7.41,0,0,0-3.47,1.53c-1.26,1-.36,0-1.27,1-.13.15.53,0,.32.19-.82.56-2.56,2-1.65,1.49ZM56.9,149.15c-1.48,5.13,2.68,7.92,11.95,7.18C73.78,155.93,57.7,146.36,56.9,149.15ZM595.48,550.6c-2.47-1.07,1.17-3.25,2.48-1.37.19.28-2.07,1.55-2.48,1.37Zm-2.58-1.54c-4.85-2.91,3.31-5.27,2.48-1.37-.08.38-2.13,1.58-2.48,1.37ZM28.6,589.33c-1.73.83-4.09.1-2.67-.89,3.45-2.42,7.48-1.41,2.67.89ZM26,587.78c-3.42,1-6.23-3.39-1.53-4.49,4.12-1,6.41,3.05,1.53,4.49Zm6.34,2.2a21.27,21.27,0,0,1,4.69-.7c2.12,0,3,.86,4.14,1.5.1.06-.81.33-.75.41.31.46,2.19.23,1.69,1s-2.4,1.56-3.76,2.08c-.56.21-.21-.43-.67-.39s-1.53.74-1.84.64c-2-.63-2.92-1.93-4.74-2.68-.12,0-.57.43-.75.41-.56,0-1.42-.11-1-.57a7.4,7.4,0,0,1,3-1.66Zm14.9-440.7c-1.87-1.7,1.28-4,2.48-1.37.13.31-2.2,1.63-2.48,1.38Zm554,348.58c1.65-.86,2.32-1.56,2.32-2.13l-.9.19c-.2.05-.28-.09-.49,0-1,.49-2.78,1.23-2.3,1.41ZM591,492c0-.17.7-.47,1.08-.6s.35.1.61.07c.08,0,.2-.14.27-.14s.08.14.22.14.22-.16.27-.15c.34.11.94.07,1,.29,0,0-.26.11-.26.15s.34.22.18.44-.58.28-.8.44.21,0,.11.07c-.28.16-.76.43-.91.38C591.7,492.75,590.93,492.55,591,492Zm-2,7.34c-.06.05,0,.1.12.07a1.86,1.86,0,0,0,.53-.3c.07-.06,0-.11-.11-.08a1.62,1.62,0,0,0-.54.31Zm14.09-5.08c.26,0,.59-.05.61.07s-.38.28-.54.29-.31-.1-.34-.21.19-.15.27-.15Zm-5.2-2.68a2.22,2.22,0,0,1,1.95-.67c1,.05.58.58.22,1.1a1.7,1.7,0,0,1-.92.37C598.19,492.3,597.19,492.3,597.85,491.56Zm-4.9-3.11c-.39-.6.2-1.16,1.51-1.92a1,1,0,0,1,.76-.15c.44,0,.79.15.69.44a5.21,5.21,0,0,1-1,1.25,2,2,0,0,1-1,.67,1.67,1.67,0,0,1-1.22-.14s.29-.12.27-.15Zm9.29-1.75c-.78-.2-.92-.45-.49-.95a2.89,2.89,0,0,1,1-.66c.1,0,0,.1.12.07a5.7,5.7,0,0,1,.92-.37.57.57,0,0,1,.57.36s-.28.11-.27.15c.05.5-.12.39-.51.95a1.72,1.72,0,0,1-.8.45c-.54.08-.24.07-.5,0ZM595,494.89c-1.1-.1-1.08-.2-1.18-.15-.56.27-1,.62-1.61.89-.1.05,0-.09-.11-.07a3.22,3.22,0,0,1-1.15.22c-.71-.18-.62-.23-.15-.73a4.9,4.9,0,0,1,1.73-.81c.4-.12.33.24.73.14a16.18,16.18,0,0,1,2.67-.53c1.31-.18,1,.5-.93,1Zm-6.35.07a1.55,1.55,0,0,1,1.06-.92c.46-.09.72.1.57.36s-.13.1-.43.37a2.72,2.72,0,0,1-.8.44c-.1,0,0-.09-.11-.07l-.27.15c.09-.05.18-.1,0-.33Zm21.26-94.77c.88,8.19-.07,7.79-1,3.3-.08-.36-.29.23-.46.09-.69-.58-1.71-.47-2.26-2.12-1.07-3.2.18-2.38,1.1-4.34.1-.2.52.27.45-.1-.18-1-.79-1.84-1-2.89-.06-.35.37.14.45-.09.15-.39,0-1.34.19-1.58.35-.42,1.71-.15,2.54,7.73Zm3.45,17.89c.37-1.11-.33-3.65-1-5-.4-.83-1-.18-1.29.26a4.62,4.62,0,0,0-1,2.27,2.67,2.67,0,0,0,.8,1.9C611.71,418,613,419.18,613.35,418.08Zm-6.11-31.78a36.94,36.94,0,0,0-1.19-6.17c-.2-.8-.66-1.36-.81-2.17-.07-.3.4.17.36-.14-.23-1.86-.36-4.1-1.08-5.6-.41-.86-.79.83-1.17.46s0-1.26-.27-1.49c-.5-.5-1-.31-1.45-.22-.07,0,.14.41.09.5s-.34-.08-.45.09a.64.64,0,0,0,.09.5c.16.13.3-.37.45-.09s.05,1.17.26,1.49.75-.32,1,.32a11,11,0,0,1,.72,4c0,.68-1-.05-.82.68a40.09,40.09,0,0,0,2.7,7.18c.13.3.28-.2.45-.1.46.28,1.15,1.42,1.12.79Zm-3.42-17.77A137.65,137.65,0,0,0,601,353.59c-.2-.76-.77-.23-1,.2-.62,1.21-1.19,1.47-.74,3.76.07.35.3-.32.45-.1s0,.79.18,1,.39-.45.45-.1a14.64,14.64,0,0,1,.26,4.07c-.07.64-.63.22-.82.69-.08.21.25.75.19,1s-.45-.23-.46.1c0,.6.38,1.38.35,2,0,.32-.34-.09-.45.09a.73.73,0,0,0,.09.5c.17.12.3-.35.45-.1.56,1,.3.74,1.18,1.3.07,0,0,.5.09.5.63,0,1.18-.41,1.81-.36.07,0,0,.46.09.49.26.14.81.49.73-.07Zm-3.43-17.85c-1.38-8.06-2.89-16.14-4.65-24.13-.1-.5-.67-.58-.67-.11a25.91,25.91,0,0,0,.34,4.57c.16.22.33-.4.46-.09a5.23,5.23,0,0,1,.36,2c0,.33-.42-.21-.46.1s.32,1.06.27,1.49-.54-.27-.45.09c1.2,5.25,1.56,11.65,4.3,16.12C600.05,351,600.45,351.07,600.39,350.68Zm-6.53-33.91a16.73,16.73,0,0,0-.92-4.79c-.09-.34-.38-.2-.45,0a7.84,7.84,0,0,0,.35,4.57c.38.89,1,.92,1,.17Zm32.85,175.5V494a15.57,15.57,0,0,1-2.28,1.68,2.18,2.18,0,0,0-1-.78,3.2,3.2,0,0,0-.69-.19c1.31-.06,3.39-.88,4-2.42Zm0-8v6.14l-.07-.18c-.4-1,0-2.95-1.2-2.95-1.54,0-2.76,1.66-3.21,3-.26.75,1.5,1.15,1.51,1.94,0,.39-.42.61-.85.83-.41-1.88-2.83-.31-2.24-3.72.66-3.79-.57-1.2-1.53-.1-1.66,1.87-6.13-4.62-1.22-3.53,1.68.37,3,.45,4.69.82s-.36-.95-.65-1.93l4.4-.24v-.18l.26.08Zm0-50.29v45.57c-.66.16-1.29.35-1.38.87-.15.77.72,1.38,1.38,2v.77a5.46,5.46,0,0,0-4.59-.05c.45-1.69,1.22-2.75-.81-2.3-4.63,1-.43,2.8-2.11,3.31-.9.26-1.83,1.15-2.69.8s-.65-1.55-1-2.33c-.2-.47,0,.06-.13-.54-.15-1-.85-1.49,0-1.44.62,0,1-.08,1.61-.05,2.12.14-.85,1.88.3,1.68,1.66-.27,3-1.61.94-2-4.15-.81,2.9-1.65-.35-2.86-1-.37-3.46-.53-3.27-1.5.29-1.46,2.56-1.9,3.84-2.84.84-.62-.21-2.3.25-1.69,1.49,2,4.59,4.82,2.14.79-.68-1.1.69-1,.69-2.15,0-1-1.13-1.31-1.12-2.31s.32-1.24-.3-.83c-.9.6-1.59,1.63-2.7,1.78-.72.11-1,.61-1.53.22s.44-1.5.52-1.54c.49-.23.11-.3.9-.54,0,0,2,.22,1.71-.4a18,18,0,0,1-2.12-6.09c-.16-1.3,1-2.25.88-3.56,0-.64-1.5.94-2.07.55-1.18-.77-.88-2.79-2.2-3.37-.75-.34-.3,1.47-.46,2.2-.3,1.5-1.07,0-2-.5-.64-.64-1.9-1.47,0-1.38a1,1,0,0,0,.57.3c.59.05.81-.64.88-1.16.12-.81.42-1.77-.41-2.16a1.39,1.39,0,0,0-1,0v-1.16a1.63,1.63,0,0,0,1.16.25c1.44-.08,1.24-1.9-.07-1.38a2.61,2.61,0,0,0-1.09.69c1.87-4.58-1.07-5.89-5.21-7.69-1.55-.67-5-1.1-10-1.93-8.92-1.47-31.41-5.68-47.28-7.12-2.26-.21-11.82-3.2-14.33-5.64,0-.1,10.88,5,14.74,5,6.42,0,15.62,0,19.12.34,11.9,1.06,30.44,4,33.22,3.6,5.26-.81,11.18-1.54,11.31-2.25.39-2.24,1-3.14,1.47-3.55a7.35,7.35,0,0,0-.63-4.11c-.15-.27-.3.33-.45.09a11.33,11.33,0,0,1-2-5.78c-.05-.71.64,0,.9-.19.06-.05-.15-.47-.09-.49.6-.17,1.48-1.41,1.89,0a60.47,60.47,0,0,1,1.47,6.19.49.49,0,0,0,.2-.53.6.6,0,0,0-.06-.19,9.31,9.31,0,0,0,1.92-1.25c1.1-.92-.05.09-.62-.73,0,0-.05-.12-.07-.14a8.87,8.87,0,0,0-1.17-1.68,14.47,14.47,0,0,0,.4-1.47c.22,0,.44,0,.65,0s.24,0,.2-.09a1.81,1.81,0,0,0-.69-.76c.33-1.75.57-3.84.84-5.68a.92.92,0,0,0,.65-.08c.43-.24,0-.91-.42-1.32,0-.18.06-.35.1-.52s.07-.35.1-.52l.07.08a13.75,13.75,0,0,0,6.65,3.8,11.79,11.79,0,0,0-2.25,8.58c-.74-.15-7,4.3-4.17,4.33.8,0,1.82.52,2.41,0,.42-.33-1.15-.7-1-1.17.35-1.12,1.8-1.7,2.56-2.63a1.92,1.92,0,0,0,.23-.35,4.54,4.54,0,0,0,1.29,2.73,4.66,4.66,0,0,1-1.25.7,1.31,1.31,0,0,0-.28,0,1.9,1.9,0,0,0-1.63,1.69c-.11.94,1.09,1.21,2.08,1,.79-.18,1.46-.66,1.32-1.36a1.52,1.52,0,0,0-1.08-1.26c.4-.11.87-.27,1.31-.44a2.28,2.28,0,0,0,.52.18c.69.15,2.09-.19,2.07.44-.2,6-3.86,2.67-.35,4.79a2.44,2.44,0,0,1,.85.68,1.25,1.25,0,0,0-.59,1.15,1.23,1.23,0,0,0,0,.47c.26-.2.52-.4.8-.58Zm0-12.52v1.12c-.57-.23-.66-.65,0-1.12Zm2.5-82.31-.62,23.13-1.88,50.63a3.57,3.57,0,0,0-1-.36,11.77,11.77,0,0,1-2.48-.52c-.49-.19.84-1.19.36-1.39-.77-.34-1.68.68-2.49.46-.48-.13.49-1.78,0-1.71-1.06.14-3.12.51-3.79,1.1.17-.89.35-1.78.53-2.68a1.35,1.35,0,0,0,1.2-.31c.41-.32,1.16-.47,1.22-1a1.44,1.44,0,0,0-.95-1.35,1.58,1.58,0,0,0-1,.17c.08-.44.17-.89.26-1.33a2.19,2.19,0,0,0,1.14-2.45c-.16-.69-2.77-.87-2-1.16,1.47-.59,5,1.47,4.82,0s-2.93-.75-4.64-.95A11,11,0,0,0,619,399c.45-.21-.08-1-1-1.86l0,0c.23-.4-.24-.66-.85-.75-2-1.85-4.56-3.85-2.94-3.15.89.38,1.78,1.54,2.67,1.16s.47-1.75.7-2.62c1.22-4.54,6.82-1.54,5.69-6.27-.4-1.66-1,4.52-2.92.3-.67-1.43-2-2.74-2-4.28,0-.68,1.31-.71,2-1.07,1.84-1-1.53-.38-2.44-.92s-1.43-1.65-2.32-1.4-.81,1.57-1.21,2.36c-1,1.89-.59-1.26-1.54-3a2.24,2.24,0,0,0-.56-1.85c-.3-.3-.62-.12-1,.22-.13-.12-.78-.24-.91-.35-2.6-1.73-1.56-3.44,0-5.16.31-.06,1.16-.12,1.14-.34a2.22,2.22,0,0,0-.63-1.3v-.52l.26-.09c.61.29,1.1.41,1.14,0a2.06,2.06,0,0,0,0-.43c.5-.2,1-.41,1.6-.66a1.54,1.54,0,0,0,.56,1c1,.94,2.41-.32,1.24-1.21-.83-.63-1.55-.52-1.75-.09-.85-.2-2.66-.76-.73-1.82,1.42-.79,3.39-1.1,4.25-2.37.73-1.05-.89-2.67-.1-3.69,1.58-2,4.14.72,4.12.45,1.15,1.54.39.17,1.75-1.72.54-.74-2-.73-2.31-.23-.14-.63-.59-1.32-.7-1.93-.34-2,2.44.06,4-2.87.72-1.36.87-10.57,1.58-11.92.32-.59,3.07-2.88,3.34-1.44ZM615,52.7c1.6-6.85,2.42-6.39,2-2.57,0,.31.35-.15.48,0,.5.58,1.54.63,1.59,2.06.09,2.78-.9,1.94-2.4,3.42-.16.15-.43-.3-.48,0-.13.88.23,1.63.11,2.51,0,.3-.33-.17-.48,0s-.38,1.1-.67,1.27C614.66,59.69,613.39,59.29,615,52.7Zm5.89-44.64c-.62,3.51-1.5,7.22-1.4,10.57,0,1,1.15.56,1.71,0,2.3-2.49,1.58-6.35,2.86-9.72.1-.27-.41.26-.47,0-.32-1.21-.36-1.35-2.19-1.22a.49.49,0,0,0-.51.39ZM619.1,21.19c-.73,4.94-1.93,10-2,14.82,0,1.19,1.23.29,1.87.24.07,0,0-.39.06-.42.33-.15.79.56.95,0a7.55,7.55,0,0,0-.2-5c-.08-.22-.41.25-.48,0-.71-2.67,2.43-5.67,2.08-7.6-.31-1.65-1.6-1.28-2.07-2.05a.14.14,0,0,0-.19-.05.14.14,0,0,0-.07.1ZM617,37.52c-.7.86-.78,3-.57,4.24.15.73.9.28,1.36,0A5.09,5.09,0,0,0,619.41,40a1.75,1.75,0,0,0-.22-1.67C618.54,37.81,617.65,36.67,617,37.52Zm-3.56,27a24.93,24.93,0,0,0-.7,5.24c0,.68.24,1.21.15,1.9,0,.25-.34-.2-.4,0-.33,1.57-.88,3.42-.63,4.76.15.76,1-.57,1.3-.2.16.2-.34,1-.18,1.25.33.49.88.4,1.36.39.07,0,0-.36.07-.42s.31.12.47,0a.52.52,0,0,0,.06-.42c-.12-.13-.42.26-.48,0s.3-1,.19-1.26-.83.16-.89-.4a7.89,7.89,0,0,1,.5-3.37c.23-.56,1,.18,1-.44a27,27,0,0,0-.5-6.28c0-.27-.34.12-.48,0C613.88,65,613.55,64,613.39,64.48Zm-2,15.08a93.25,93.25,0,0,0-1.68,12.68c0,.65.69.29,1,0,1-.9,1.61-1,1.86-3,0-.3-.39.22-.48,0s.21-.65.13-.84-.52.32-.48,0a11.41,11.41,0,0,1,1-3.38c.26-.51.69-.09,1-.45.15-.16,0-.65.12-.84s.37.26.48,0c.2-.49,0-1.19.25-1.69.11-.26.32.13.47,0a.48.48,0,0,0,.07-.42c-.13-.12-.41.25-.48,0-.26-.86-.07-.65-.76-1.24-.06,0,.13-.4.06-.41-.61-.13-1.29.16-1.9,0-.07,0,.12-.38.06-.42-.22-.15-.65-.51-.74,0Zm-2,15.15c-1.07,6.81-2,13.66-2.71,20.47a.33.33,0,0,0,.64.19,19.27,19.27,0,0,0,1-3.8c-.09-.2-.45.28-.48,0a3.61,3.61,0,0,1,.24-1.69c.12-.26.35.23.48,0s0-.92.19-1.26.45.29.47,0c.4-4.49,2-9.79.63-13.85-.08-.25-.45-.39-.5-.05Zm-4.83-24a11.41,11.41,0,0,0-.53,4.06c0,.29.31.22.46,0a6,6,0,0,0,1-3.8c-.1-.78-.7-.9-1-.28Zm23.29,476.06L615,558.33v4.23l-5,10.7-2.5,7.6h-2.84l-.36,2.53-9.7,15.46,10.77-15.18.35-1.69,4.28-.28,1.07-7.88,4.63-11,.71-4.23L630,547.07ZM34.51,170.65c.71,2.66,2.43,5.84,4.49,7.31,2.39,1.63,2.84-.14,1.07-4.35a41.2,41.2,0,0,0-1.78-3.81,10.1,10.1,0,0,0-2.24.44A14,14,0,0,1,34.51,170.65Z"/></g></svg>