<svg id="Layer_1" data-name="Layer 1" xmlns="http://www.w3.org/2000/svg" viewBox="0 0 102.51 102.98"><defs><style>.cls-1{fill:#e72735;}</style></defs><g id="Group_555" data-name="Group 555"><path id="Path_2504" data-name="Path 2504" class="cls-1" d="M100.45,26c.74,7.85,1.22,44.93-1.09,53.62-3.09,11.37-10.51,18.1-22,19.94-4.3.69-15.91,1.11-27.51,1.11-11.87,0-23.73-.44-27.71-1.47C10.81,96.31,4.06,88.94,2.27,77.49.93,69.07.79,30,3.21,21.5,6.38,10.45,13.76,4,24.94,2.12,30,1.29,39.93,1,49.94,1c9.3,0,18.7.25,24.34.56C81.13,1.92,87.4,4.12,92.48,9A26.27,26.27,0,0,1,100.45,26ZM90.86,75.85c1.43-8.78,1.43-40.77.61-49-.9-8.77-6.26-14.53-14.93-15.9C72.24,10.32,61.9,10,51.6,10c-9.93,0-19.81.27-24.16.74-8.7,1-14.54,6.37-15.93,15C10.08,35,10.1,69.23,11.17,76.12c1.1,7.17,5.15,12.09,12.3,14.1,3.87,1.08,15.46,1.47,26.82,1.47,10.46,0,20.73-.33,24.6-.75,8.77-1,14.58-6.37,16-15.1"/><path id="Path_2505" data-name="Path 2505" class="cls-1" d="M53.14,25.28A25.34,25.34,0,0,1,78.5,50.61v.26A25.82,25.82,0,0,1,52.72,76.42,25.32,25.32,0,0,1,27.36,51.14v-.31A25.77,25.77,0,0,1,53.14,25.28Zm-.37,42.09A16.71,16.71,0,0,0,69.45,51a16.38,16.38,0,0,0-16-16.7h-.36A16.71,16.71,0,0,0,36.37,50.67a16.41,16.41,0,0,0,16.1,16.7h.3"/></g></svg>