<svg id="Layer_1" data-name="Layer 1" xmlns="http://www.w3.org/2000/svg" viewBox="0 0 463.38 106.32"><defs><style>.cls-1,.cls-2{fill:#2d2d2d;}.cls-2{fill-rule:evenodd;}</style></defs><g id="Group_521" data-name="Group 521"><path id="Path_213" data-name="Path 213" class="cls-1" d="M186.07,84.9c-2.21,0-3.53-1.31-3.54-4.69l-.05-30.81c0-14.82-11.64-20.53-28.65-20.49a54.93,54.93,0,0,0-29.33,8.27l0,17.32c6.74-6.92,16.42-11.33,24.93-11.35,9.24,0,12.19,5,11.75,11.28C132.9,63.28,121,66.53,121.05,82.7l-24.42,0-.1-52.83L75.26,30l.11,67.51,56-.12A20.45,20.45,0,0,0,140,99.22c7.34,0,14.08-2.08,22.29-7.67,1.48,5.42,4.86,7.62,11.91,7.61,5.72,0,14.08-2.67,19.94-6.2l0-11.89C189.14,84.6,187.53,84.9,186.07,84.9Zm-22.55-4.24c-3.5,3.24-7.76,5.15-11.73,5.17a7,7,0,0,1-6.9-7.19c0-6.75,6-9.69,18.61-14.27Z"/><path id="Path_214" data-name="Path 214" class="cls-2" d="M242.37,33.43a45.13,45.13,0,0,0-21.87-4.94c-16.72,0-28,8.41-28,20.87,0,22.17,33.64,20.34,33.65,30.17,0,3.09-3.95,5-10.25,5-8.08,0-15-2.76-21.89-5.68l0,15c2.93,1.61,13.35,5,24.22,5,17.61,0,27.57-8,27.54-22.07,0-22.6-33.64-22.83-33.65-30.31,0-4.7,4.83-5.29,7.62-5.3,4.25,0,13.35,1.74,22.6,7.44Z"/><rect id="Rectangle_10" data-name="Rectangle 10" class="cls-1" x="249.86" y="29.38" width="21.27" height="67.65" transform="translate(-0.11 0.46) rotate(-0.1)"/><path id="Path_215" data-name="Path 215" class="cls-2" d="M301.79,29.14l-21.28,0L280.65,97l21.28,0-.07-33.3h.3L328.49,96.9l26.11,0L327,62.71l26.35-33.5-24.94.05-26.2,33.51h-.3Z"/><path id="Path_216" data-name="Path 216" class="cls-2" d="M20.87,29.94,0,30.1.13,97.74,21,97.56l0-33.22h.29L47.49,97.5l26.05,0L46,63.42,72.24,30l-24.88,0L21.23,63.46h-.29Z"/><path id="Path_217" data-name="Path 217" class="cls-1" d="M395.64,42.43l-19.57,0L376,71.12c0,6.65,3.57,10.93,9.73,10.91,4.11,0,7.93-1,13.28-4V93.54c-7,3.12-12.17,4.31-18.32,4.32-13.14,0-24.5-6.46-24.54-25.53l.05-29.83-13.3,0L376.21,0,376,29l14,0,9,0,11.7,0,13.18,36.68,13.17-36.73,20.59,0-28.22,68-10.84,0Z"/></g></svg>