<svg id="Layer_1" data-name="Layer 1" xmlns="http://www.w3.org/2000/svg" xmlns:xlink="http://www.w3.org/1999/xlink" viewBox="0 0 478.99 330.82"><defs><style>.cls-1{fill:url(#linear-gradient);}.cls-2{fill:url(#linear-gradient-2);}.cls-3{fill:#f2f2f3;}.cls-4{fill:url(#radial-gradient);}.cls-5{fill:#cccccb;}.cls-6{fill:url(#linear-gradient-3);}.cls-7{fill:url(#linear-gradient-4);}.cls-8{fill:url(#radial-gradient-2);}</style><linearGradient id="linear-gradient" x1="-0.19" y1="1142.37" x2="0.81" y2="1142.37" gradientTransform="matrix(490.42, 0, 0, -314.34, 74.58, 359260.64)" gradientUnits="userSpaceOnUse"><stop offset="0" stop-color="#e6e6e6"/><stop offset="0.5" stop-color="#fff"/><stop offset="0.98" stop-color="#e6e6e6"/></linearGradient><linearGradient id="linear-gradient-2" x1="-0.19" y1="1142.37" x2="0.81" y2="1142.37" gradientTransform="matrix(490.42, 0, 0, -314.33, 74.58, 359257)" xlink:href="#linear-gradient"/><radialGradient id="radial-gradient" cx="-3.46" cy="1146.07" r="0.46" gradientTransform="matrix(117.35, 0, 0, -117.35, 793.59, 134664.62)" gradientUnits="userSpaceOnUse"><stop offset="0" stop-color="#fff"/><stop offset="1" stop-color="#b3b4b4"/></radialGradient><linearGradient id="linear-gradient-3" x1="-0.19" y1="1142.37" x2="0.81" y2="1142.37" gradientTransform="matrix(490.42, 0, 0, -314.34, 74.58, 359258.64)" xlink:href="#linear-gradient"/><linearGradient id="linear-gradient-4" x1="-0.19" y1="1142.37" x2="0.81" y2="1142.37" gradientTransform="matrix(490.42, 0, 0, -314.33, 74.58, 359255)" xlink:href="#linear-gradient"/><radialGradient id="radial-gradient-2" cx="-3.46" cy="1146.07" r="0.46" gradientTransform="matrix(117.35, 0, 0, -117.35, 793.59, 134662.62)" xlink:href="#radial-gradient"/></defs><g id="Group_508" data-name="Group 508"><path id="Path_158" data-name="Path 158" class="cls-1" d="M-13.27,73.48l1.8-.74c3.63-1.41,8.78-1.21,12.09,2.43L8.16,84.4C10.55,87.7,9.36,91,5.06,93l-1.81.75c-4.56,1.68-9.31.79-12.11-2.27l-7.53-9.23c-.1-.14-.16-.27-.25-.41v28.37q20.7-9.69,41.12-17.49h0l83.29,102A639.13,639.13,0,0,0,10.34,242l-27-33.05v16.39l18,22q-9,5.51-18,11.4v14.63a6.91,6.91,0,0,1,1.72,1.32L-7.39,284c2.39,3.37,1.16,7.49-3.21,10.74L-12.43,296a14.07,14.07,0,0,1-4.21,1.82v32.06c78.56-58.24,159.31-95.1,233.38-111.59,110.45-24.59,206-3.91,257,58.6l-37-45.32a162.2,162.2,0,0,0-14.24-15.3l-83.28-102a162,162,0,0,1,14.23,15.29L348.21,123q-6.76-8.28-13.55-16.55c-1-1.22-1.55-1.9-1.91-2.38l.23.26L316.52,84.18c-51-62.5-146.58-83.18-257-58.6A525.09,525.09,0,0,0-16.64,49V76.09A8.57,8.57,0,0,1-13.27,73.48ZM20.65,274.35l-1.83,1.13c-4.62,2.62-9.42,2.36-12.23-.66L-.94,265.6c-2.38-3.35-1.11-7.42,3.24-10.36l1.83-1.13c3.57-2.1,8.92-2.74,12.22.82l7.53,9.22c2.39,3.34,1.15,7.25-3.23,10.19ZM51.91,256.2l-1.83,1c-4.61,2.31-9.41,1.83-12.21-1.2l-7.53-9.22c-2.39-3.33-1.12-7.19,3.22-9.81.61-.34,1.22-.68,1.83-1,3.57-1.86,8.91-2.22,12.21,1.35l7.53,9.22c2.39,3.33,1.16,7-3.22,9.66Zm31.17-16-1.83.88c-4.6,2-9.38,1.31-12.18-1.74l-7.53-9.23c-2.38-3.31-1.13-7,3.2-9.27l1.82-.87c3.54-1.61,8.86-1.7,12.16,1.9l7.53,9.22c2.39,3.31,1.18,6.8-3.17,9.11ZM114,226.46l-1.81.75c-4.55,1.68-9.31.79-12.11-2.28l-7.53-9.22c-2.39-3.3-1.16-6.73,3.13-8.74l1.8-.74c3.52-1.37,8.8-1.19,12.1,2.43l7.52,9.22c2.4,3.3,1.21,6.59-3.1,8.58Zm30.6-11.61-1.78.62c-4.5,1.37-9.22.27-12-2.81l-7.53-9.23c-2.39-3.28-1.2-6.5,3-8.2l1.78-.62c3.47-1.12,8.69-.67,12,3l7.53,9.23c2.4,3.28,1.26,6.36-3,8Zm30.13-9.47c-.59.16-1.17.32-1.76.5a12.27,12.27,0,0,1-11.89-3.34l-7.53-9.23c-2.4-3.27-1.25-6.28,2.9-7.67l1.76-.5a12.22,12.22,0,0,1,11.85,3.5l7.52,9.22c2.41,3.26,1.31,6.14-2.85,7.51Zm30.44-7.53-2.17.47a13.09,13.09,0,0,1-12.19-3.77l-7.53-9.22c-2.44-3.32-1.22-6.1,3.2-7.25l2.17-.47c4.18-.81,10.21,0,13.58,3.67l7.53,9.22c2.33,3.25.57,6.06-4.6,7.34ZM179.77,173a514.93,514.93,0,0,0-63.23,18.53l-83.3-102A514.93,514.93,0,0,1,96.47,70.9q19-4.23,37.41-6.68l83.29,102q-18.36,2.44-37.41,6.68ZM144.09,63c37-4,71.67-2.45,102.67,4.44l83.28,102c-31-6.9-65.63-8.42-102.66-4.43Zm97.4,128.7-2.1.27c-5.3.52-10.54-1.15-13.36-4.25l-7.53-9.22c-2.33-3.21-.57-5.93,4.38-6.76l2.1-.27c4-.43,9.9.79,13.25,4.5l7.53,9.23c2.35,3.21.71,5.7-4.27,6.5Zm34.92-2.79-2,.07c-5.1,0-10.2-2-13-5.08l-7.53-9.22c-2.35-3.2-.73-5.58,4-5.93l2-.08c3.85-.06,9.52,1.59,12.87,5.33l7.53,9.22c2.36,3.19.87,5.37-3.88,5.68Zm33.27.54-1.9-.12c-4.85-.45-9.79-2.77-12.58-5.9l-7.53-9.22c-2.35-3.18-.91-5.23,3.6-5.11l1.9.12a20.22,20.22,0,0,1,12.42,6.15l7.53,9.22c2.37,3.15,1.05,5-3.43,4.86Zm31.38,3.85-1.78-.32a23.09,23.09,0,0,1-12.09-6.71L319.66,177c-2.38-3.16-1.13-4.88,3.1-4.3l1.79.32a23,23,0,0,1,11.92,7l7.53,9.22.42.56c.32.46,2.94,4.44-3.36,3.5Zm29.24,7.13-1.65-.51a27.86,27.86,0,0,1-11.54-7.53l-7.52-9.22a9.89,9.89,0,0,1-.76-1.07c-.86-1.46-1.14-3.62,3.3-2.42l1.66.51a27.89,27.89,0,0,1,11.35,7.77l7.53,9.22a12.85,12.85,0,0,1,.76,1.06c.54.86,1.9,3.6-3.13,2.18Zm26.86,10.37-1.52-.7a36.39,36.39,0,0,1-10.92-8.32l-7.53-9.23a8.05,8.05,0,0,1-1.23-1.92c-.3-.77-.6-2.38,3.17-.76l1.51.7a36.45,36.45,0,0,1,10.72,8.56l7.53,9.22a9.64,9.64,0,0,1,1.26,1.9C400.63,211.3,400.49,212.26,397.16,210.78Zm44.78,27.06,15.38,18.84q-6.84-8.37-13.7-16.73c-.9-1.1-1.55-1.9-1.91-2.38l.23.27ZM422.85,218.3a6.6,6.6,0,0,1,2.14,1.56l1.17,1.07a123.62,123.62,0,0,1,9.28,10.14L443,240.3c1.6,2,1.67,2.18,1.79,2.51-.2,0-.34,0-2.08-1.64l-1.17-1.08a114.08,114.08,0,0,1-9.52-9.9L424.46,221c-1.82-2.25-1.72-2.46-1.61-2.66Zm1.13,6.82c.29,1.14-1.82-.22-2.62-.74l-1.34-.89a54.23,54.23,0,0,1-10.26-9.11l-7.53-9.23a7.6,7.6,0,0,1-1.51-2.46q-.21-1.29,2.78.57l1.34.88a55.29,55.29,0,0,1,10,9.36l7.53,9.22a9.5,9.5,0,0,1,1.58,2.4ZM416.78,211c-21.48-18.44-48-31.67-78.33-39.55L255.16,69.44C285.47,77.32,312,90.56,333.49,109ZM313.88,84.81A6.53,6.53,0,0,1,316,86.37l1.17,1.07a123.62,123.62,0,0,1,9.28,10.14l7.53,9.23c1.6,2,1.67,2.18,1.79,2.51-.21,0-.34,0-2.09-1.64l-1.17-1.08A115.64,115.64,0,0,1,323,96.7l-7.53-9.22c-1.81-2.26-1.7-2.47-1.61-2.67Zm-19.35-15,1.35.89a55,55,0,0,1,10,9.36l7.53,9.23a9.38,9.38,0,0,1,1.57,2.4c.3,1.13-1.82-.23-2.62-.75L311.05,90A54.52,54.52,0,0,1,300.8,80.9l-7.53-9.23a7.58,7.58,0,0,1-1.51-2.47q-.21-1.31,2.78.56ZM270.16,56.35l1.52.7a36.64,36.64,0,0,1,10.72,8.57l7.53,9.23a9.57,9.57,0,0,1,1.26,1.89c.47,1.07.34,2-3,.55l-1.51-.7a36.11,36.11,0,0,1-10.92-8.31l-7.54-9.23A8.32,8.32,0,0,1,267,57.12c-.29-.77-.59-2.38,3.17-.77Zm-27-10.18,1.65.51a27.93,27.93,0,0,1,11.36,7.76l7.53,9.23a12.85,12.85,0,0,1,.76,1.06c.54.87,1.89,3.6-3.13,2.19q-.82-.27-1.65-.51a27.86,27.86,0,0,1-11.53-7.53l-7.53-9.22a9.89,9.89,0,0,1-.76-1.07c-.86-1.46-1.14-3.62,3.3-2.42ZM213.8,39.23l1.78.32a23.08,23.08,0,0,1,11.93,7L235,55.74c.13.17.3.38.42.55.32.46,2.93,4.44-3.36,3.49l-1.79-.31a23.1,23.1,0,0,1-12.08-6.71l-7.53-9.23c-2.38-3.16-1.13-4.89,3.1-4.3Zm-31.5-3.65,1.9.12a20.22,20.22,0,0,1,12.42,6.15l7.54,9.23c2.36,3.16,1,5-3.44,4.86l-1.9-.12c-4.86-.46-9.79-2.77-12.58-5.9l-7.53-9.23c-2.35-3.18-.91-5.23,3.59-5.11Zm-33.38-.35,2-.07c3.86-.06,9.52,1.58,12.87,5.33l7.54,9.23c2.35,3.18.86,5.36-3.89,5.68l-2,.07c-5.08,0-10.19-2-13-5.08l-7.53-9.23c-2.34-3.19-.73-5.58,4-5.93Zm-35,3L116,38c4-.44,9.9.78,13.26,4.5l7.53,9.22c2.35,3.22.71,5.72-4.27,6.51l-2.1.27c-5.3.52-10.54-1.15-13.36-4.25L109.53,45c-2.32-3.21-.56-5.93,4.38-6.75ZM77.52,44.58l2.17-.46c4.19-.82,10.21,0,13.58,3.67L100.8,57c2.34,3.25.58,6.06-4.59,7.35L94,64.82a13,13,0,0,1-12.18-3.76l-7.53-9.23C71.88,48.51,73.11,45.73,77.52,44.58Zm-30,7.56,1.76-.5a12.2,12.2,0,0,1,11.84,3.5l7.54,9.23c2.4,3.26,1.3,6.14-2.86,7.51l-1.76.5A12.24,12.24,0,0,1,52.13,69L44.6,59.81c-2.4-3.26-1.26-6.28,2.9-7.67Zm-30.15,9.6,1.78-.62c3.46-1.12,8.69-.67,12,3l7.53,9.23c2.4,3.28,1.25,6.36-3,8L33.87,82c-4.5,1.38-9.22.28-12-2.8l-7.53-9.23c-2.4-3.29-1.21-6.5,3-8.21Z"/><g id="Group_504" data-name="Group 504"><path id="Path_160" data-name="Path 160" class="cls-2" d="M-13.27,74.46l1.8-.74c3.63-1.41,8.78-1.2,12.09,2.43l7.54,9.23c2.39,3.3,1.2,6.58-3.1,8.57l-1.81.75c-4.56,1.68-9.31.79-12.11-2.27l-7.53-9.23c-.1-.14-.16-.28-.25-.41v28.37q20.7-9.69,41.12-17.49h0l83.29,102A639.08,639.08,0,0,0,10.34,243l-27-33v16.39l18,22.05q-9,5.5-18,11.4v14.62a7.16,7.16,0,0,1,1.72,1.32l7.53,9.23c2.39,3.36,1.16,7.48-3.21,10.74l-1.83,1.26a14.1,14.1,0,0,1-4.21,1.83v32.05c78.56-58.23,159.31-95.1,233.38-111.59,110.45-24.58,206-3.9,257,58.6l-26-31.9,9.58,11.74q-6.85-8.38-13.7-16.73c-.9-1.11-1.55-1.92-1.91-2.39l.22.25-5.14-6.29a158.62,158.62,0,0,0-14.25-15.3l-83.28-102a162,162,0,0,1,14.23,15.29L348.21,124l-13.55-16.54c-1-1.22-1.55-1.9-1.91-2.38l.23.26L316.52,85.17c-51-62.5-146.58-83.18-257-58.6A523.85,523.85,0,0,0-16.64,50v27.1A8.48,8.48,0,0,1-13.27,74.46ZM20.65,275.32l-1.83,1.14c-4.62,2.62-9.42,2.36-12.23-.65l-7.53-9.23c-2.38-3.35-1.11-7.41,3.24-10.36l1.83-1.13c3.57-2.1,8.92-2.74,12.22.82l7.53,9.22C26.27,268.48,25,272.39,20.65,275.32Zm31.26-18.14-1.83,1c-4.61,2.3-9.41,1.84-12.21-1.2l-7.53-9.22c-2.39-3.33-1.12-7.19,3.22-9.81l1.83-1c3.57-1.85,8.91-2.22,12.21,1.36l7.53,9.23C57.52,250.86,56.29,254.56,51.91,257.18Zm31.17-16-1.83.88c-4.6,2-9.38,1.31-12.18-1.74l-7.53-9.22c-2.38-3.32-1.13-7,3.2-9.28l1.82-.87c3.54-1.61,8.86-1.7,12.16,1.9l7.53,9.22C88.64,235.42,87.43,238.92,83.08,241.22ZM114,227.44l-1.81.76c-4.55,1.68-9.31.78-12.11-2.28l-7.53-9.23c-2.39-3.3-1.16-6.73,3.13-8.73l1.8-.75c3.52-1.36,8.8-1.19,12.1,2.43l7.52,9.23c2.4,3.3,1.21,6.58-3.1,8.57Zm30.6-11.61-1.78.62c-4.5,1.37-9.22.27-12-2.81l-7.53-9.22c-2.39-3.29-1.2-6.51,3-8.2l1.78-.63c3.47-1.12,8.69-.67,12,3l7.53,9.22c2.4,3.28,1.26,6.37-3,8.05Zm30.13-9.47-1.76.5a12.27,12.27,0,0,1-11.89-3.34l-7.53-9.23c-2.4-3.27-1.26-6.28,2.9-7.67l1.76-.5a12.2,12.2,0,0,1,11.84,3.5l7.53,9.22c2.41,3.27,1.31,6.15-2.85,7.52Zm30.44-7.53-2.17.47a13.09,13.09,0,0,1-12.19-3.77l-7.53-9.22c-2.44-3.32-1.22-6.1,3.2-7.25l2.17-.47c4.18-.81,10.21,0,13.58,3.67l7.53,9.22c2.33,3.25.57,6.07-4.6,7.35Zm-25.42-24.91a516.69,516.69,0,0,0-63.23,18.53l-83.29-102A514.93,514.93,0,0,1,96.47,71.88q19-4.23,37.41-6.68l83.29,102Q198.81,169.7,179.76,173.92ZM144.09,64c37-4,71.67-2.46,102.67,4.43l83.28,102c-31-6.9-65.63-8.43-102.66-4.44Zm97.4,128.7-2.1.27c-5.3.51-10.54-1.16-13.36-4.26l-7.53-9.22c-2.33-3.22-.57-5.93,4.38-6.76l2.1-.27c4-.44,9.9.79,13.25,4.5l7.53,9.22c2.35,3.22.71,5.72-4.27,6.52Zm34.92-2.8-2,.07c-5.1,0-10.2-2-13-5.08l-7.53-9.23c-2.35-3.19-.73-5.57,4-5.93l2-.07c3.85-.06,9.52,1.58,12.87,5.33l7.53,9.22c2.36,3.19.87,5.38-3.88,5.69Zm33.27.54c-.63,0-1.26-.09-1.9-.12-4.85-.45-9.79-2.77-12.58-5.91l-7.53-9.22c-2.35-3.18-.91-5.23,3.6-5.11l1.9.12a20.22,20.22,0,0,1,12.42,6.15l7.53,9.22c2.37,3.17,1.05,5-3.43,4.88Zm31.38,3.85-1.78-.32a23.11,23.11,0,0,1-12.09-6.72L319.66,178c-2.38-3.15-1.14-4.88,3.1-4.29l1.78.31a23,23,0,0,1,11.93,7l7.53,9.22c.12.17.3.38.42.55.32.46,2.94,4.44-3.36,3.5Zm29.24,7.12-1.65-.5a28.05,28.05,0,0,1-11.54-7.53l-7.52-9.22a13,13,0,0,1-.76-1.07c-.86-1.46-1.14-3.62,3.3-2.42l1.66.51a28,28,0,0,1,11.35,7.76l7.53,9.23a11.35,11.35,0,0,1,.76,1.06c.54.87,1.9,3.61-3.13,2.19Zm26.86,10.39-1.52-.7a36.42,36.42,0,0,1-10.92-8.33l-7.53-9.22A8.47,8.47,0,0,1,376,191.6c-.3-.77-.6-2.39,3.17-.77l1.51.7a36.45,36.45,0,0,1,10.72,8.56l7.53,9.23a9.57,9.57,0,0,1,1.26,1.89C400.63,212.28,400.49,213.25,397.16,211.77Zm25.69,7.52a6.42,6.42,0,0,1,2.14,1.55l1.17,1.08a122,122,0,0,1,9.28,10.14l7.53,9.22c1.6,2,1.67,2.18,1.79,2.51-.2,0-.34,0-2.08-1.63l-1.17-1.09a112.66,112.66,0,0,1-9.52-9.9L424.46,222c-1.82-2.26-1.72-2.46-1.61-2.66Zm1.13,6.82c.29,1.13-1.82-.23-2.62-.74l-1.34-.89a54,54,0,0,1-10.26-9.12l-7.53-9.23a7.43,7.43,0,0,1-1.51-2.46q-.21-1.29,2.78.57l1.34.89a55.24,55.24,0,0,1,10,9.35l7.53,9.23a9.16,9.16,0,0,1,1.58,2.4ZM416.78,212c-21.48-18.44-48-31.68-78.33-39.56l-83.29-102C285.47,78.31,312,91.54,333.49,110ZM313.88,85.8A6.36,6.36,0,0,1,316,87.35l1.17,1.08a120.43,120.43,0,0,1,9.28,10.14L334,107.8c1.6,2,1.67,2.17,1.79,2.5-.21,0-.34,0-2.09-1.64l-1.17-1.08a115.64,115.64,0,0,1-9.52-9.9l-7.53-9.23c-1.81-2.25-1.7-2.46-1.61-2.65Zm-19.35-15,1.35.89a55.24,55.24,0,0,1,10,9.35l7.53,9.23a9.74,9.74,0,0,1,1.57,2.4c.3,1.13-1.82-.23-2.62-.75L311.05,91a54.52,54.52,0,0,1-10.25-9.11l-7.53-9.23a7.58,7.58,0,0,1-1.51-2.47q-.21-1.29,2.78.57ZM270.16,57.34l1.52.7A36.61,36.61,0,0,1,282.4,66.6l7.53,9.23a9.88,9.88,0,0,1,1.26,1.89c.47,1.07.34,2-3,.56l-1.51-.7a36.31,36.31,0,0,1-10.92-8.32L268.22,60A8.26,8.26,0,0,1,267,58.11c-.29-.77-.59-2.38,3.17-.77Zm-27-10.19,1.65.51a27.86,27.86,0,0,1,11.36,7.77l7.53,9.23a12.7,12.7,0,0,1,.76,1c.54.88,1.89,3.6-3.13,2.19l-1.65-.51a27.84,27.84,0,0,1-11.53-7.52l-7.53-9.23a9.77,9.77,0,0,1-.76-1.06c-.86-1.47-1.14-3.63,3.3-2.43ZM213.8,40.22l1.78.32a23,23,0,0,1,11.93,7L235,56.72l.42.56c.32.45,2.93,4.43-3.36,3.49l-1.79-.31a23.24,23.24,0,0,1-12.08-6.71l-7.53-9.24c-2.38-3.16-1.13-4.89,3.1-4.29Zm-31.5-3.66,1.9.12a20.33,20.33,0,0,1,12.42,6.15l7.54,9.23c2.36,3.16,1,5-3.44,4.86l-1.9-.12C194,56.35,189,54,186.24,50.9l-7.53-9.23c-2.35-3.17-.91-5.23,3.59-5.11Zm-33.38-.34,2-.07c3.86-.06,9.52,1.58,12.87,5.32l7.54,9.23c2.35,3.19.86,5.37-3.89,5.68l-2,.07c-5.08,0-10.19-2-13-5.07l-7.53-9.23c-2.34-3.2-.73-5.58,4-5.93Zm-35,3,2.1-.27c4-.43,9.9.79,13.26,4.5l7.53,9.23c2.35,3.22.71,5.71-4.27,6.51l-2.1.27c-5.3.51-10.54-1.15-13.36-4.25L109.53,46c-2.32-3.21-.56-5.93,4.38-6.76ZM77.52,45.57l2.17-.47c4.18-.81,10.21,0,13.58,3.67L100.8,58c2.34,3.24.58,6-4.59,7.34L94,65.8a13.08,13.08,0,0,1-12.19-3.75l-7.53-9.24c-2.44-3.31-1.21-6.09,3.2-7.24Zm-30,7.56,1.75-.5a12.24,12.24,0,0,1,11.85,3.5l7.53,9.23c2.4,3.26,1.3,6.14-2.86,7.51l-1.76.5A12.27,12.27,0,0,1,52.12,70l-7.53-9.23c-2.39-3.28-1.25-6.29,2.91-7.68ZM17.34,62.72l1.78-.62c3.46-1.12,8.69-.67,12,3l7.54,9.22c2.4,3.29,1.25,6.37-3,8L33.86,83c-4.5,1.37-9.21.27-12-2.8l-7.53-9.23c-2.39-3.29-1.2-6.51,3-8.21Z"/></g><path id="Path_162" data-name="Path 162" class="cls-3" d="M436.8,231.53q-41.66-51-83.29-102h0l83.26,102Z"/><path id="Path_163" data-name="Path 163" class="cls-3" d="M-13.27,73.48l1.8-.75C-7,71.09-2.22,72.05.62,75.16l7.54,9.23c2.39,3.3,1.2,6.59-3.1,8.58-.61.24-1.21.49-1.81.75-4.56,1.68-9.31.79-12.11-2.27l-7.53-9.23c-.1-.14-.16-.28-.25-.41v28.37q20.7-9.69,41.12-17.5l83.29,102A639.13,639.13,0,0,0,10.34,242l-27-33.05v16.39l18,22q-9,5.51-18,11.4v14.63a6.91,6.91,0,0,1,1.72,1.32L-7.39,284c2.39,3.37,1.16,7.49-3.21,10.74L-12.43,296a14.07,14.07,0,0,1-4.21,1.82v3.59c73.93-52.15,149.3-85.54,218.78-101,110.45-24.58,206-3.9,257,58.6-.62-.77-1.25-1.53-1.88-2.3-2-2.5-4.1-5-6.15-7.48L443.62,240c-.9-1.11-1.55-1.9-1.91-2.39l.22.27-5.19-6.35a161.33,161.33,0,0,0-14.2-15.26l-83.28-102a162.2,162.2,0,0,1,14.24,15.3l-22.37-27.4c-51-62.5-146.58-83.18-257-58.6A534.9,534.9,0,0,0-16.64,72.79v3.3A8.48,8.48,0,0,1-13.27,73.48ZM20.65,274.34l-1.83,1.13c-4.62,2.62-9.42,2.37-12.23-.65L-.94,265.6c-2.38-3.35-1.11-7.42,3.24-10.37l1.83-1.13c4.58-2.57,9.37-2.25,12.22.82l7.53,9.23C26.27,267.49,25,271.4,20.65,274.34ZM51.91,256.2l-1.83,1c-4.61,2.3-9.41,1.82-12.21-1.2l-7.53-9.23c-2.39-3.33-1.12-7.18,3.22-9.81l1.83-1c4.58-2.26,9.37-1.72,12.21,1.36l7.53,9.22c2.39,3.33,1.16,7-3.22,9.66Zm31.17-16-1.83.88c-4.6,2-9.38,1.3-12.18-1.75l-7.53-9.22c-2.38-3.32-1.13-7,3.2-9.28l1.82-.87c4.54-1.95,9.32-1.2,12.16,1.9l7.53,9.23c2.39,3.31,1.18,6.8-3.17,9.11ZM114,226.46l-1.81.75c-4.55,1.68-9.31.78-12.11-2.28l-7.53-9.23c-2.39-3.3-1.16-6.72,3.13-8.73l1.8-.75c4.5-1.64,9.25-.68,12.1,2.43l7.52,9.23c2.4,3.3,1.21,6.59-3.1,8.58Zm30.6-11.62-1.78.62c-4.5,1.37-9.22.27-12-2.81l-7.53-9.22c-2.39-3.29-1.2-6.5,3-8.21l1.78-.62a11.65,11.65,0,0,1,12,3l7.53,9.22c2.4,3.29,1.26,6.37-3,8.05Zm30.13-9.47-1.76.5a12.25,12.25,0,0,1-11.89-3.34l-7.53-9.22c-2.4-3.27-1.25-6.28,2.9-7.67l1.76-.5a12.29,12.29,0,0,1,11.85,3.49l7.52,9.23c2.41,3.26,1.31,6.14-2.85,7.51Zm30.44-7.53-2.17.47a13.08,13.08,0,0,1-12.19-3.76l-7.53-9.23c-2.44-3.32-1.22-6.09,3.2-7.25l2.17-.46c5.35-1,10.68.5,13.58,3.67l7.53,9.22c2.33,3.25.57,6.06-4.6,7.34Zm-25.41-24.9a514.93,514.93,0,0,0-63.23,18.53l-83.3-102A516.74,516.74,0,0,1,96.47,70.89q19-4.23,37.41-6.68l83.29,102.05q-18.36,2.44-37.41,6.68ZM144.09,63c37-4,71.67-2.46,102.67,4.44l83.28,102c-31-6.9-65.63-8.43-102.66-4.44h0Zm97.4,128.7-2.1.27c-5.3.52-10.54-1.15-13.36-4.25l-7.53-9.22c-2.33-3.22-.57-5.93,4.38-6.76l2.1-.27c5.15-.47,10.35,1.3,13.25,4.5l7.53,9.22c2.35,3.22.71,5.72-4.27,6.51Zm34.92-2.79-2,.07c-5.1,0-10.2-2-13-5.08l-7.53-9.23c-2.35-3.19-.73-5.57,4-5.93l2-.07c4.94,0,10,2.1,12.87,5.33l7.53,9.22c2.36,3.19.87,5.37-3.88,5.69Zm33.27.54c-.63,0-1.26-.09-1.9-.12-4.85-.45-9.79-2.77-12.58-5.9l-7.53-9.23c-2.35-3.17-.91-5.23,3.6-5.11l1.9.13a20,20,0,0,1,12.42,6.14l7.53,9.23c2.37,3.15,1.05,5-3.43,4.86Zm32.12,4-.74-.11-1.78-.32a23.11,23.11,0,0,1-12.09-6.72L319.66,177c-2.38-3.16-1.13-4.89,3.1-4.3l1.79.32a23.24,23.24,0,0,1,11.92,7l7.53,9.22c3.57,4.7-1.6,4.23-2.2,4.17Zm30.35,7.42a11.73,11.73,0,0,1-1.85-.4l-1.65-.51a27.86,27.86,0,0,1-11.54-7.53l-7.52-9.22c-2.73-3.56-.5-4.06,1.23-3.8a11.86,11.86,0,0,1,1.31.31c.56.16,1.11.33,1.66.51a28.3,28.3,0,0,1,11.35,7.76l7.53,9.22c2.75,3.58.56,3.75-.52,3.66Zm27.09,10.7a8.8,8.8,0,0,1-2.09-.73l-1.51-.7a36,36,0,0,1-10.92-8.33l-7.53-9.22c-2.56-3.29-1-3.45-.19-3.37a7.51,7.51,0,0,1,2.12.68l1.51.7a37,37,0,0,1,10.73,8.57l7.53,9.22c2.3,2.95,1.46,3.36.35,3.18Zm23.61,6.79a6.42,6.42,0,0,1,2.13,1.55l1.18,1.08a127.29,127.29,0,0,1,9.28,10.14L443,240.3a15,15,0,0,1,1.77,2.42l-.14.07a14.19,14.19,0,0,1-1.92-1.62l-1.18-1.08a117.13,117.13,0,0,1-9.52-9.9L424.46,221c-1.82-2.25-1.72-2.46-1.61-2.66Zm.85,7.26a7.37,7.37,0,0,1-2.34-1.18l-1.34-.89a53.93,53.93,0,0,1-10.26-9.11l-7.53-9.23c-2.23-2.83-1.53-3.08-.91-3a8.34,8.34,0,0,1,2.18,1.07l1.34.89a56.32,56.32,0,0,1,10,9.36l7.53,9.22c.62.78,2.28,2.87,1.3,2.84ZM416.78,211c-21.48-18.44-48-31.67-78.33-39.55L255.16,69.44C285.47,77.32,312,90.56,333.49,109ZM333,104.35l15.38,18.84-6.17-7.5-7.54-9.23c-1-1.22-1.54-1.9-1.91-2.38ZM313.89,84.81A6.6,6.6,0,0,1,316,86.37l1.17,1.07a123.62,123.62,0,0,1,9.28,10.14l7.53,9.23a16.21,16.21,0,0,1,1.78,2.42l-.15.07a13.5,13.5,0,0,1-1.92-1.62l-1.17-1.07a115.52,115.52,0,0,1-9.52-9.9l-7.54-9.23c-1.81-2.26-1.7-2.47-1.61-2.67ZM292.36,68.69a8.07,8.07,0,0,1,2.18,1.08c.45.29.9.58,1.34.88a56.32,56.32,0,0,1,10,9.36l7.54,9.23c.62.78,2.27,2.86,1.29,2.83a7.27,7.27,0,0,1-2.34-1.18L311.05,90a54.48,54.48,0,0,1-10.25-9.11l-7.53-9.23c-2.23-2.83-1.53-3.08-.91-3ZM268,55.67a8,8,0,0,1,2.13.69l1.51.7a36.9,36.9,0,0,1,10.72,8.56l7.54,9.23c2.3,2.93,1.45,3.35.34,3.17a8.8,8.8,0,0,1-2.09-.73l-1.51-.7a36.36,36.36,0,0,1-10.92-8.31l-7.53-9.23c-2.56-3.3-1-3.46-.19-3.38Zm-26.17-9.81c.44.08.87.19,1.31.31l1.65.51a28.3,28.3,0,0,1,11.35,7.76l7.53,9.23c2.75,3.58.56,3.74-.52,3.65a11.61,11.61,0,0,1-1.84-.4l-1.65-.51a28,28,0,0,1-11.54-7.52l-7.53-9.23c-2.72-3.56-.51-4.06,1.23-3.8ZM213.8,39.23l1.79.32a23.31,23.31,0,0,1,11.92,7l7.54,9.23c3.56,4.7-1.6,4.23-2.2,4.16l-.74-.11-1.79-.32a23.06,23.06,0,0,1-12.08-6.71l-7.53-9.23c-2.39-3.16-1.14-4.89,3.09-4.3Zm-31.5-3.65,1.9.12a20.09,20.09,0,0,1,12.43,6.15l7.53,9.23c2.37,3.16,1.05,5-3.44,4.86l-1.9-.12c-4.86-.45-9.79-2.77-12.58-5.9l-7.53-9.23c-2.35-3.18-.91-5.23,3.59-5.11Zm-33.38-.35,2-.07c4.93,0,10,2.1,12.87,5.33l7.53,9.23c2.35,3.18.86,5.36-3.89,5.68l-2,.07c-5.09,0-10.19-2-13-5.08l-7.53-9.23c-2.34-3.19-.73-5.57,4-5.93Zm-35,3L116,38c5.15-.47,10.36,1.3,13.25,4.5l7.54,9.22c2.34,3.22.71,5.72-4.27,6.51l-2.1.27h0c-5.3.52-10.55-1.15-13.36-4.25L109.53,45c-2.32-3.21-.56-5.93,4.38-6.75ZM77.52,44.58l2.17-.46c5.35-.94,10.68.5,13.58,3.67L100.8,57c2.34,3.25.58,6.06-4.59,7.35L94,64.82a13.2,13.2,0,0,1-12.18-3.76l-7.53-9.23c-2.45-3.32-1.22-6.1,3.19-7.25Zm-30,7.56,1.76-.5a12.27,12.27,0,0,1,11.84,3.5l7.54,9.23c2.4,3.26,1.3,6.14-2.87,7.51l-1.76.5A12.23,12.23,0,0,1,52.13,69l-7.54-9.23c-2.39-3.26-1.25-6.28,2.91-7.67Zm-30.16,9.6,1.79-.62a11.62,11.62,0,0,1,12,3l7.53,9.23c2.4,3.28,1.25,6.36-3,8L33.86,82c-4.5,1.38-9.21.28-12-2.8l-7.53-9.23c-2.4-3.29-1.21-6.5,3-8.21Z"/><path id="Path_164" data-name="Path 164" class="cls-3" d="M436.8,232.52,353.51,130.47l-.09-.1,83.27,102Z"/><path id="Path_166" data-name="Path 166" class="cls-3" d="M-13.27,74.46l1.8-.74C-7,72.08-2.22,73,.62,76.15l7.54,9.23c2.39,3.3,1.2,6.58-3.1,8.57l-1.81.75c-4.56,1.68-9.31.79-12.11-2.27l-7.53-9.23c-.1-.14-.16-.28-.25-.41v28.37q20.7-9.69,41.12-17.5l83.29,102.05A638.19,638.19,0,0,0,10.34,243l-27-33v16.39l18,22.05q-9,5.5-18,11.4v14.62a7.36,7.36,0,0,1,1.72,1.32l7.53,9.23c2.39,3.36,1.16,7.48-3.21,10.74l-1.83,1.26a14.07,14.07,0,0,1-4.21,1.82v3.6c73.93-52.15,149.3-85.54,218.78-101,110.45-24.59,206-3.9,257,58.6l-2.05-2.52-6-7.26L443.62,241c-.9-1.11-1.55-1.91-1.91-2.39l.16.19c-1.73-2.12-3.46-4.23-5.18-6.35a161.21,161.21,0,0,0-14.15-15.18l-83.28-102a160.32,160.32,0,0,1,14.16,15.2l-22.29-27.31c-51-62.5-146.58-83.19-257-58.6A534,534,0,0,0-16.64,73.78v3.3A8.5,8.5,0,0,1-13.27,74.46ZM20.65,275.32l-1.83,1.14c-4.62,2.62-9.42,2.36-12.23-.65l-7.53-9.23c-2.38-3.35-1.11-7.41,3.24-10.36l1.83-1.13c4.58-2.58,9.37-2.25,12.22.82l7.53,9.22C26.27,268.48,25,272.39,20.65,275.32Zm31.26-18.14-1.83,1c-4.61,2.3-9.41,1.84-12.21-1.2l-7.53-9.22c-2.39-3.33-1.12-7.19,3.22-9.81l1.83-1c4.58-2.26,9.37-1.73,12.21,1.36l7.53,9.23c2.39,3.33,1.16,7-3.22,9.65Zm31.17-16-1.83.88c-4.6,2-9.38,1.31-12.18-1.74l-7.53-9.22c-2.38-3.32-1.13-7,3.2-9.28l1.82-.87c4.54-2,9.32-1.2,12.16,1.9l7.53,9.22c2.39,3.31,1.18,6.81-3.17,9.11ZM114,227.44l-1.81.76c-4.55,1.68-9.31.78-12.11-2.28l-7.53-9.23c-2.39-3.3-1.16-6.73,3.13-8.73l1.8-.75c4.5-1.64,9.25-.69,12.1,2.43l7.52,9.23c2.4,3.3,1.21,6.58-3.1,8.57Zm30.6-11.61-1.78.62c-4.5,1.37-9.22.27-12-2.81l-7.53-9.22c-2.39-3.29-1.2-6.51,3-8.2l1.78-.63a11.65,11.65,0,0,1,12,3l7.53,9.22c2.4,3.28,1.26,6.37-3,8.05Zm30.13-9.47-1.76.5a12.27,12.27,0,0,1-11.89-3.34l-7.53-9.23c-2.4-3.27-1.25-6.28,2.9-7.67l1.76-.5a12.32,12.32,0,0,1,11.85,3.5l7.52,9.22c2.41,3.27,1.31,6.15-2.85,7.52Zm30.44-7.53-2.17.47a13.09,13.09,0,0,1-12.19-3.77l-7.53-9.22c-2.44-3.32-1.22-6.1,3.2-7.25l2.17-.47c5.35-.94,10.68.5,13.58,3.67l7.53,9.22c2.33,3.25.57,6.07-4.6,7.35Zm-25.42-24.91a516.69,516.69,0,0,0-63.23,18.53l-83.29-102A514.93,514.93,0,0,1,96.47,71.88q19-4.23,37.41-6.68l83.29,102Q198.81,169.7,179.76,173.92ZM144.09,64c37-4,71.67-2.46,102.67,4.43l83.28,102c-31-6.9-65.63-8.43-102.66-4.44h0Zm97.4,128.7-2.1.27c-5.3.51-10.54-1.16-13.36-4.26l-7.53-9.22c-2.33-3.22-.57-5.93,4.38-6.76l2.1-.27c5.15-.47,10.35,1.3,13.25,4.5l7.53,9.22c2.35,3.22.71,5.72-4.27,6.52Zm34.92-2.8-2,.07c-5.1,0-10.2-2-13-5.08l-7.53-9.23c-2.35-3.19-.73-5.57,4-5.93l2-.07c4.94,0,10,2.1,12.87,5.33l7.53,9.22c2.36,3.2.87,5.38-3.88,5.69Zm33.27.54c-.63,0-1.26-.09-1.9-.12-4.85-.45-9.79-2.77-12.58-5.91l-7.53-9.22c-2.35-3.18-.91-5.23,3.6-5.11l1.9.12a20.07,20.07,0,0,1,12.42,6.15l7.53,9.22c2.37,3.17,1.05,5-3.43,4.88Zm32.12,4-.74-.11-1.78-.32a23.18,23.18,0,0,1-12.09-6.72L319.66,178c-2.38-3.16-1.13-4.89,3.1-4.29l1.79.31a23.31,23.31,0,0,1,11.92,7L344,190.2c3.57,4.71-1.6,4.24-2.2,4.17Zm30.35,7.42a11.73,11.73,0,0,1-1.85-.4l-1.65-.51a28,28,0,0,1-11.54-7.53l-7.52-9.22c-2.73-3.56-.5-4.06,1.23-3.8a11.86,11.86,0,0,1,1.31.31l1.66.5a28.42,28.42,0,0,1,11.35,7.77l7.53,9.22c2.75,3.59.56,3.76-.52,3.66Zm27.09,10.7a9.26,9.26,0,0,1-2.09-.73l-1.51-.7a36.3,36.3,0,0,1-10.92-8.33l-7.53-9.23c-2.56-3.29-1-3.45-.19-3.37a7.86,7.86,0,0,1,2.12.69l1.51.7a37,37,0,0,1,10.73,8.56l7.53,9.23c2.3,2.95,1.46,3.36.35,3.19Zm23.61,6.79a6.29,6.29,0,0,1,2.13,1.55c.4.35.79.72,1.18,1.08A127.16,127.16,0,0,1,435.44,232l7.53,9.23a15.48,15.48,0,0,1,1.77,2.42l-.14.07a14.12,14.12,0,0,1-1.92-1.61l-1.18-1.09a114.13,114.13,0,0,1-9.52-9.9L424.46,222c-1.82-2.26-1.72-2.46-1.61-2.66Zm.85,7.25a7.56,7.56,0,0,1-2.34-1.17l-1.34-.9a53.93,53.93,0,0,1-10.26-9.11l-7.53-9.23c-2.23-2.83-1.53-3.07-.91-3a7.76,7.76,0,0,1,2.18,1.07l1.34.88a56.32,56.32,0,0,1,10,9.36l7.53,9.23c.62.79,2.28,2.87,1.3,2.85ZM416.78,212c-21.48-18.45-48-31.68-78.33-39.56l-83.29-102C285.47,78.31,312,91.54,333.49,110ZM333,105.34l15.38,18.84c-2.05-2.51-4.12-5-6.17-7.5l-7.54-9.23c-1-1.23-1.54-1.9-1.91-2.39A3.22,3.22,0,0,1,333,105.34ZM313.89,85.8A6.42,6.42,0,0,1,316,87.35l1.17,1.08a127.29,127.29,0,0,1,9.28,10.14L334,107.8a15,15,0,0,1,1.78,2.41.51.51,0,0,1-.15.07,14.12,14.12,0,0,1-1.92-1.61l-1.17-1.08a114.08,114.08,0,0,1-9.52-9.9l-7.54-9.23c-1.81-2.26-1.7-2.47-1.61-2.66ZM292.36,69.68a8.34,8.34,0,0,1,2.18,1.07l1.34.89a56.64,56.64,0,0,1,10,9.35l7.54,9.23c.62.79,2.27,2.87,1.29,2.84a7.1,7.1,0,0,1-2.34-1.19L311.05,91a54.48,54.48,0,0,1-10.25-9.11l-7.53-9.23c-2.23-2.84-1.53-3.08-.91-3ZM268,56.66a7.51,7.51,0,0,1,2.12.68l1.52.7A37.2,37.2,0,0,1,282.4,66.6l7.53,9.23c2.3,2.94,1.46,3.35.35,3.18a8.93,8.93,0,0,1-2.09-.73l-1.51-.7a36.55,36.55,0,0,1-10.92-8.32L268.22,60C265.67,56.74,267.25,56.57,268,56.66Zm-26.18-9.82c.4.06.92.21,1.31.31l1.66.51a28.32,28.32,0,0,1,11.35,7.77l7.53,9.23c2.75,3.57.55,3.74-.52,3.64a10.6,10.6,0,0,1-1.84-.4l-1.66-.51a27.9,27.9,0,0,1-11.53-7.52l-7.53-9.23c-2.72-3.56-.51-4.06,1.23-3.8ZM213.8,40.22l1.78.31a23.3,23.3,0,0,1,11.93,7l7.54,9.23c3.56,4.7-1.6,4.23-2.2,4.16-.23,0-.52-.07-.74-.11l-1.79-.32a23.06,23.06,0,0,1-12.08-6.71l-7.53-9.23c-2.39-3.16-1.14-4.89,3.09-4.29Zm-31.5-3.66,1.9.12a20.09,20.09,0,0,1,12.43,6.15l7.53,9.23c2.37,3.16,1.05,5-3.44,4.86l-1.9-.12C194,56.35,189,54,186.24,50.9l-7.53-9.23c-2.35-3.17-.91-5.23,3.59-5.11Zm-33.38-.35,2-.06c4.94,0,10,2.1,12.88,5.32l7.53,9.23c2.35,3.19.86,5.36-3.89,5.68l-2,.07c-5.09,0-10.2-2-13-5.07l-7.53-9.23c-2.34-3.2-.73-5.58,4-5.93Zm-35,3,2.1-.27c5.15-.46,10.36,1.3,13.25,4.5l7.53,9.23c2.35,3.22.72,5.71-4.26,6.51l-2.1.27h0c-5.3.51-10.55-1.15-13.36-4.25L109.53,46c-2.32-3.21-.56-5.93,4.38-6.76ZM77.52,45.57l2.17-.47c5.35-.94,10.68.5,13.58,3.67L100.8,58c2.34,3.24.58,6-4.59,7.34L94,65.8a13.22,13.22,0,0,1-12.18-3.75l-7.53-9.24c-2.45-3.31-1.22-6.09,3.19-7.24Zm-30,7.56,1.76-.5a12.27,12.27,0,0,1,11.84,3.5l7.53,9.23c2.4,3.26,1.3,6.14-2.86,7.51l-1.76.5A12.23,12.23,0,0,1,52.13,70L44.59,60.8c-2.39-3.27-1.25-6.28,2.91-7.67ZM17.34,62.72l1.79-.62a11.67,11.67,0,0,1,12,3l7.53,9.23c2.4,3.29,1.25,6.37-3,8L33.86,83c-4.5,1.37-9.21.27-12-2.8l-7.54-9.23c-2.39-3.29-1.2-6.51,3-8.21Z"/><path id="Path_172" data-name="Path 172" class="cls-4" d="M436.8,231.53a162.41,162.41,0,0,0-14.26-15.3l-83.29-102a162.53,162.53,0,0,1,14.26,15.31q41.64,51,83.29,102"/><path id="Path_183" data-name="Path 183" class="cls-5" d="M138.23,227.61a2,2,0,0,0-1.48,1.88h0c-1.81-1-4.18-.19-4.21,1.51l0,0-.72-.79-1.1.43c.47.52.74.82,1.17,1.35l3,3.67c.42-.15.83-.31,1.24-.48l-2.48-3c-.88-1.11.12-2.25,1.43-2.14a2.52,2.52,0,0,1,1.69,1l2.48,3,1.22-.47-2.55-3.13c-.9-1.17.28-2.13,1.48-2a2.89,2.89,0,0,1,1.85,1.12l2.33,2.86,1.23-.45-2.43-3c-1.55-1.76-3.07-1.7-4.07-1.33"/><path id="Path_184" data-name="Path 184" class="cls-5" d="M149.14,229.57c-2.54.77-4.88-1.94-4.07-3.25,1.07-1.72,4.65-.62,5.12,1.57a1.4,1.4,0,0,1-1,1.67h0m-3.66-4.62c-3.71,1.5-1.38,4.44.57,5.24a5.21,5.21,0,0,0,3.63.08h0c3.68-1.47,1.41-4.38-.53-5.21a5,5,0,0,0-3.68-.1"/><path id="Path_185" data-name="Path 185" class="cls-5" d="M156,221.43l-1.3.44c1.28,4.34,1.28,4.34,1.45,4.78l0,0c-.44-.33-.81-.59-1.62-1.12l-3.66-2.35-1.34.46,6.74,4.14,1.2-.41-1.43-6"/><path id="Path_186" data-name="Path 186" class="cls-5" d="M158.43,220.62l-1.24.41,4.12,5.05,1.24-.42-4.12-5m-2.34-1.9c-.76.28-.51.89.06,1.13a1.19,1.19,0,0,0,.87.05h0c.8-.31.43-.93-.07-1.15a1.21,1.21,0,0,0-.88,0"/><path id="Path_187" data-name="Path 187" class="cls-5" d="M162.87,221.72c-1.06-1.84.93-2.46,2.11-2.16a3,3,0,0,1,1.51,1l-3.62,1.17m.26-2.8c-3.38,1.25-1.24,4.21.72,5.08a5.8,5.8,0,0,0,5.75-.9l-.75-.57s-3.09,2.41-5.45-.15l4.8-1.53a4.48,4.48,0,0,0-5.07-1.94"/><path id="Path_188" data-name="Path 188" class="cls-5" d="M176.09,220.67c-1.4.38-2.43-.76-2-1.45a4,4,0,0,1,2.07-1.08l.72.88c.44.55.26,1.33-.8,1.65m-3.42-4.7a3.94,3.94,0,0,0-1.89,1.12l.78.52c.41-.51,2.51-1.94,4-.2l.09.1c-4.66,1.39-2.62,3.28-1.82,3.71,1.55.84,3.82.18,4-1.15h0l.63.6,1.11-.33a12.19,12.19,0,0,1-1.09-1.18L177,217.26a3.77,3.77,0,0,0-4.28-1.29"/><path id="Path_189" data-name="Path 189" class="cls-5" d="M180.27,213.75a1.27,1.27,0,0,0-1,1.45,1.33,1.33,0,0,0,0,.19l0,0-.86-1-1.08.31c.42.46.77.87,1.34,1.56l2.82,3.48,1.23-.36-2.2-2.69c-.24-.3-1.35-1.83.84-2.19l-.7-.86a2.29,2.29,0,0,0-.36.07"/><path id="Path_190" data-name="Path 190" class="cls-5" d="M182.75,211.71l-1,.61.76.93-1,.3.57.7,1.05-.3,2.25,2.76a3,3,0,0,0,4.09.85l.09-.06-.63-.69a1.66,1.66,0,0,1-2.32-.37l-.06-.09-2.22-2.73,1.76-.48-.57-.7c-.59.15-1.18.32-1.76.48l-1-1.22"/><path id="Path_191" data-name="Path 191" class="cls-5" d="M189.33,210.81l.59.72,7.13.65h0l-3.8,3.44.58.72,4.42-4.12-.48-.58-8.46-.84"/><path id="Path_192" data-name="Path 192" class="cls-5" d="M197.59,208.72l.59.71,7.1.76,0,0-3.77,3.33.59.72,4.38-4-.48-.59-8.42-1"/><path id="Path_193" data-name="Path 193" class="cls-5" d="M205.8,206.79l.59.72,8.15.63,0,0-4.82,3.45.58.72,5.67-4.14-.48-.59-9.71-.81"/><path id="Path_194" data-name="Path 194" class="cls-5" d="M224,203.5c-1.22.26-1.89.75-2,1.45h0l-.76-.8-1.34.25c.39.42.69.76,1.18,1.36l3,3.68,1.52-.29-2.49-3c-.86-1.09.44-2,2-1.81a3.17,3.17,0,0,1,2.14,1.2l2.38,2.91,1.51-.27-2.46-3a4.88,4.88,0,0,0-4.68-1.62"/><path id="Path_195" data-name="Path 195" class="cls-5" d="M232,204.53c-1-1.8,1.39-2.17,2.72-1.77a3.41,3.41,0,0,1,1.62,1.06l-4.34.71m.66-2.54c-3.93.79-2,3.45-.52,4.37,2.7,1.73,6.2.82,7.47.12l-.79-.61c-.15.08-3.93,1.9-6.3-.67l5.76-.93a5.54,5.54,0,0,0-5.62-2.28"/><path id="Path_196" data-name="Path 196" class="cls-5" d="M244.79,205.14c-3.12.33-5.06-2.29-4.19-3.24s3.36-.7,4.43.59l.74.91c.76.95.08,1.6-1,1.74m-3.85-4.41c-3.47.62-2.14,3-.45,4.15,2.43,1.62,6.07,1.27,6.32-.18h0l.45.55c2.1,2.78-3.56,2.14-3.62,2.14l-.28,0c.06.23.15.53.21.76.09,0,7.85.76,5.12-3.06l-.31-.41-2.4-2.94c-.56-.68-.81-1-1.06-1.38l-1.3.17.56.76h0a5.41,5.41,0,0,0-3.24-.51"/><path id="Path_197" data-name="Path 197" class="cls-5" d="M253.19,204.2c-1.64.16-2.57-.9-2.21-1.44.18-.27.78-.63,2.61-.82l.72.88c.44.54.13,1.22-1.12,1.38m-3.36-4.65a5.19,5.19,0,0,0-2.32.77l.85.57c.53-.42,3.12-1.43,4.6.31l.09.11c-5.76.67-3,2.78-2.9,2.86,1.68,1.27,4.73.89,5.08-.3h.06l.65.62c.43-.06.87-.1,1.31-.15a12.41,12.41,0,0,1-1.1-1.2l-1.54-1.89a5,5,0,0,0-4.77-1.71"/><path id="Path_198" data-name="Path 198" class="cls-5" d="M256.05,197.65l-1.19.43.76.93-1.25.14.57.7,1.25-.13,2.24,2.75a4,4,0,0,0,4.72,1.23l-.64-.69a2.18,2.18,0,0,1-2.68-.72l-2.22-2.73,2.08-.2-.57-.7-2.08.2-1-1.21"/><path id="Path_199" data-name="Path 199" class="cls-5" d="M262.2,198.37l-1.45.13,4.12,5.05,1.45-.13-4.12-5m-2.45-2c-.81.1-.65.56-.28.84a1.86,1.86,0,0,0,1.21.34h0c.81-.1.64-.57.27-.86a1.89,1.89,0,0,0-1.22-.32"/><path id="Path_200" data-name="Path 200" class="cls-5" d="M271.08,197.68l-1.5.1c1,3.91,1,3.91,1.18,4.3h-.06c-.43-.35-.85-.67-1.7-1.26l-3.86-2.7-1.54.13,7.14,4.8,1.37-.1-1-5.26"/><path id="Path_201" data-name="Path 201" class="cls-5" d="M274.74,199.57c-.91-1.56.83-1.81,2.06-1.51a4,4,0,0,1,2.07,1.28l-4.13.23m.54-2.27c-3.39.3-2.1,2.58-.66,3.73a8.1,8.1,0,0,0,7.48,1.08l-.79-.63s-3.68,1.36-6.05-1.25l5.48-.28a6.24,6.24,0,0,0-5.46-2.65"/><path id="Path_202" data-name="Path 202" class="cls-5" d="M284.62,194.51c-1,0-2.47.38-.95,2.31l.2.24-1.07,0,.57.7,1.07,0,3.55,4.35,1.4,0-3.55-4.35,1.85-.05-.57-.7-1.87.05-.22-.27c-.92-1.17-.61-1.66.92-1.47l.38.06-.4-.71a5.76,5.76,0,0,0-1.31-.12"/><path id="Path_203" data-name="Path 203" class="cls-5" d="M289.79,196.93l-1.39,0,4.12,5.05,1.39,0-4.12-5m-2.43-2.1c-.76,0-.6.46-.31.71a1.91,1.91,0,0,0,1.25.46h0c.76,0,.59-.46.3-.72a1.85,1.85,0,0,0-1.25-.45"/><path id="Path_204" data-name="Path 204" class="cls-5" d="M291.55,194.54h-1.38l6,7.41h1.39l-6.05-7.41"/><path id="Path_205" data-name="Path 205" class="cls-5" d="M304,196.92c-1.09,0-1.65.3-1.67.94h0c-1.88-1.32-4.45-1.4-4.58-.14h-.05l-.73-.82h-1.2c.44.51.75.85,1.18,1.37l3,3.69h1.34l-2.48-3c-.68-.88-.16-1.5,1.09-1.32a3.81,3.81,0,0,1,2.32,1.38l2.47,3,1.33,0-2.55-3.13c-.7-.92,0-1.37,1.09-1.2a4.33,4.33,0,0,1,2.49,1.57l2.33,2.86,1.33,0-2.43-3a5.88,5.88,0,0,0-4.26-2.27"/><path id="Path_158-2" data-name="Path 158-2" class="cls-6" d="M-13.27,71.48l1.8-.74c3.63-1.41,8.78-1.21,12.09,2.43L8.16,82.4C10.55,85.7,9.36,89,5.06,91l-1.81.75c-4.56,1.68-9.31.79-12.11-2.27l-7.53-9.23c-.1-.14-.16-.27-.25-.41v28.37q20.7-9.69,41.12-17.49h0l83.29,102A639.13,639.13,0,0,0,10.34,240l-27-33.05v16.39l18,22q-9,5.51-18,11.4v14.63a6.91,6.91,0,0,1,1.72,1.32L-7.39,282c2.39,3.37,1.16,7.49-3.21,10.74L-12.43,294a14.07,14.07,0,0,1-4.21,1.82v32.06c78.56-58.24,159.31-95.1,233.38-111.59,110.45-24.59,206-3.91,257,58.6l-37-45.32a162.2,162.2,0,0,0-14.24-15.3l-83.28-102a162,162,0,0,1,14.23,15.29L348.21,121q-6.76-8.28-13.55-16.55c-1-1.22-1.55-1.9-1.91-2.38l.23.26L316.52,82.18c-51-62.5-146.58-83.18-257-58.6A525.09,525.09,0,0,0-16.64,47V74.09A8.57,8.57,0,0,1-13.27,71.48ZM20.65,272.35l-1.83,1.13c-4.62,2.62-9.42,2.36-12.23-.66L-.94,263.6c-2.38-3.35-1.11-7.42,3.24-10.36l1.83-1.13c3.57-2.1,8.92-2.74,12.22.82l7.53,9.22c2.39,3.34,1.15,7.25-3.23,10.19ZM51.91,254.2l-1.83,1c-4.61,2.31-9.41,1.83-12.21-1.2l-7.53-9.22c-2.39-3.33-1.12-7.19,3.22-9.81.61-.34,1.22-.68,1.83-1,3.57-1.86,8.91-2.22,12.21,1.35l7.53,9.22c2.39,3.33,1.16,7-3.22,9.66Zm31.17-16-1.83.88c-4.6,2-9.38,1.31-12.18-1.74l-7.53-9.23c-2.38-3.31-1.13-7,3.2-9.27l1.82-.87c3.54-1.61,8.86-1.7,12.16,1.9l7.53,9.22c2.39,3.31,1.18,6.8-3.17,9.11ZM114,224.46l-1.81.75c-4.55,1.68-9.31.79-12.11-2.28l-7.53-9.22c-2.39-3.3-1.16-6.73,3.13-8.74l1.8-.74c3.52-1.37,8.8-1.19,12.1,2.43l7.52,9.22c2.4,3.3,1.21,6.59-3.1,8.58Zm30.6-11.61-1.78.62c-4.5,1.37-9.22.27-12-2.81l-7.53-9.23c-2.39-3.28-1.2-6.5,3-8.2l1.78-.62c3.47-1.12,8.69-.67,12,3l7.53,9.23c2.4,3.28,1.26,6.36-3,8Zm30.13-9.47c-.59.16-1.17.32-1.76.5a12.27,12.27,0,0,1-11.89-3.34l-7.53-9.23c-2.4-3.27-1.25-6.28,2.9-7.67l1.76-.5a12.22,12.22,0,0,1,11.85,3.5l7.52,9.22c2.41,3.26,1.31,6.14-2.85,7.51Zm30.44-7.53-2.17.47a13.09,13.09,0,0,1-12.19-3.77l-7.53-9.22c-2.44-3.32-1.22-6.1,3.2-7.25l2.17-.47c4.18-.81,10.21,0,13.58,3.67l7.53,9.22c2.33,3.25.57,6.06-4.6,7.34ZM179.77,171a514.93,514.93,0,0,0-63.23,18.53l-83.3-102A514.93,514.93,0,0,1,96.47,68.9q19-4.23,37.41-6.68l83.29,102q-18.36,2.44-37.41,6.68ZM144.09,61c37-4,71.67-2.45,102.67,4.44l83.28,102c-31-6.9-65.63-8.42-102.66-4.43Zm97.4,128.7-2.1.27c-5.3.52-10.54-1.15-13.36-4.25l-7.53-9.22c-2.33-3.21-.57-5.93,4.38-6.76l2.1-.27c4-.43,9.9.79,13.25,4.5l7.53,9.23c2.35,3.21.71,5.7-4.27,6.5Zm34.92-2.79-2,.07c-5.1,0-10.2-2-13-5.08l-7.53-9.22c-2.35-3.2-.73-5.58,4-5.93l2-.08c3.85-.06,9.52,1.59,12.87,5.33l7.53,9.22c2.36,3.19.87,5.37-3.88,5.68Zm33.27.54-1.9-.12c-4.85-.45-9.79-2.77-12.58-5.9l-7.53-9.22c-2.35-3.18-.91-5.23,3.6-5.11l1.9.12a20.22,20.22,0,0,1,12.42,6.15l7.53,9.22c2.37,3.15,1.05,5-3.43,4.86Zm31.38,3.85-1.78-.32a23.09,23.09,0,0,1-12.09-6.71L319.66,175c-2.38-3.16-1.13-4.88,3.1-4.3l1.79.32a23,23,0,0,1,11.92,7l7.53,9.22.42.56c.32.46,2.94,4.44-3.36,3.5Zm29.24,7.13-1.65-.51a27.86,27.86,0,0,1-11.54-7.53l-7.52-9.22a9.89,9.89,0,0,1-.76-1.07c-.86-1.46-1.14-3.62,3.3-2.42l1.66.51a27.89,27.89,0,0,1,11.35,7.77l7.53,9.22a12.85,12.85,0,0,1,.76,1.06c.54.86,1.9,3.6-3.13,2.18Zm26.86,10.37-1.52-.7a36.39,36.39,0,0,1-10.92-8.32l-7.53-9.23a8.05,8.05,0,0,1-1.23-1.92c-.3-.77-.6-2.38,3.17-.76l1.51.7a36.45,36.45,0,0,1,10.72,8.56l7.53,9.22a9.64,9.64,0,0,1,1.26,1.9C400.63,209.3,400.49,210.26,397.16,208.78Zm44.78,27.06,15.38,18.84q-6.84-8.37-13.7-16.73c-.9-1.1-1.55-1.9-1.91-2.38l.23.27ZM422.85,216.3a6.6,6.6,0,0,1,2.14,1.56l1.17,1.07a123.62,123.62,0,0,1,9.28,10.14L443,238.3c1.6,2,1.67,2.18,1.79,2.51-.2,0-.34,0-2.08-1.64l-1.17-1.08a114.08,114.08,0,0,1-9.52-9.9L424.46,219c-1.82-2.25-1.72-2.46-1.61-2.66Zm1.13,6.82c.29,1.14-1.82-.22-2.62-.74l-1.34-.89a54.23,54.23,0,0,1-10.26-9.11l-7.53-9.23a7.6,7.6,0,0,1-1.51-2.46q-.21-1.29,2.78.57l1.34.88a55.29,55.29,0,0,1,10,9.36l7.53,9.22a9.5,9.5,0,0,1,1.58,2.4ZM416.78,209c-21.48-18.44-48-31.67-78.33-39.55L255.16,67.44C285.47,75.32,312,88.56,333.49,107ZM313.88,82.81A6.53,6.53,0,0,1,316,84.37l1.17,1.07a123.62,123.62,0,0,1,9.28,10.14l7.53,9.23c1.6,2,1.67,2.18,1.79,2.51-.21,0-.34,0-2.09-1.64l-1.17-1.08A115.64,115.64,0,0,1,323,94.7l-7.53-9.22c-1.81-2.26-1.7-2.47-1.61-2.67Zm-19.35-15,1.35.89a55,55,0,0,1,10,9.36l7.53,9.23a9.38,9.38,0,0,1,1.57,2.4c.3,1.13-1.82-.23-2.62-.75L311.05,88A54.52,54.52,0,0,1,300.8,78.9l-7.53-9.23a7.58,7.58,0,0,1-1.51-2.47q-.21-1.31,2.78.56ZM270.16,54.35l1.52.7a36.64,36.64,0,0,1,10.72,8.57l7.53,9.23a9.57,9.57,0,0,1,1.26,1.89c.47,1.07.34,2-3,.55l-1.51-.7a36.11,36.11,0,0,1-10.92-8.31l-7.54-9.23A8.32,8.32,0,0,1,267,55.12c-.29-.77-.59-2.38,3.17-.77Zm-27-10.18,1.65.51a27.93,27.93,0,0,1,11.36,7.76l7.53,9.23a12.85,12.85,0,0,1,.76,1.06c.54.87,1.89,3.6-3.13,2.19q-.82-.27-1.65-.51a27.86,27.86,0,0,1-11.53-7.53l-7.53-9.22a9.89,9.89,0,0,1-.76-1.07c-.86-1.46-1.14-3.62,3.3-2.42ZM213.8,37.23l1.78.32a23.08,23.08,0,0,1,11.93,7L235,53.74c.13.17.3.38.42.55.32.46,2.93,4.44-3.36,3.49l-1.79-.31a23.1,23.1,0,0,1-12.08-6.71l-7.53-9.23c-2.38-3.16-1.13-4.89,3.1-4.3Zm-31.5-3.65,1.9.12a20.22,20.22,0,0,1,12.42,6.15l7.54,9.23c2.36,3.16,1,5-3.44,4.86l-1.9-.12c-4.86-.46-9.79-2.77-12.58-5.9l-7.53-9.23c-2.35-3.18-.91-5.23,3.59-5.11Zm-33.38-.35,2-.07c3.86-.06,9.52,1.58,12.87,5.33l7.54,9.23c2.35,3.18.86,5.36-3.89,5.68l-2,.07c-5.08,0-10.19-2-13-5.08l-7.53-9.23c-2.34-3.19-.73-5.58,4-5.93Zm-35,3L116,36c4-.44,9.9.78,13.26,4.5l7.53,9.22c2.35,3.22.71,5.72-4.27,6.51l-2.1.27c-5.3.52-10.54-1.15-13.36-4.25L109.53,43c-2.32-3.21-.56-5.93,4.38-6.75ZM77.52,42.58l2.17-.46c4.19-.82,10.21,0,13.58,3.67L100.8,55c2.34,3.25.58,6.06-4.59,7.35L94,62.82a13,13,0,0,1-12.18-3.76l-7.53-9.23C71.88,46.51,73.11,43.73,77.52,42.58Zm-30,7.56,1.76-.5a12.2,12.2,0,0,1,11.84,3.5l7.54,9.23c2.4,3.26,1.3,6.14-2.86,7.51l-1.76.5A12.24,12.24,0,0,1,52.13,67L44.6,57.81c-2.4-3.26-1.26-6.28,2.9-7.67Zm-30.15,9.6,1.78-.62c3.46-1.12,8.69-.67,12,3l7.53,9.23c2.4,3.28,1.25,6.36-3,8L33.87,80c-4.5,1.38-9.22.28-12-2.8l-7.53-9.23c-2.4-3.29-1.21-6.5,3-8.21Z"/><path id="Path_160-2" data-name="Path 160-2" class="cls-7" d="M-13.27,72.46l1.8-.74c3.63-1.41,8.78-1.2,12.09,2.43l7.54,9.23c2.39,3.3,1.2,6.58-3.1,8.57l-1.81.75c-4.56,1.68-9.31.79-12.11-2.27l-7.53-9.23c-.1-.14-.16-.28-.25-.41v28.37q20.7-9.69,41.12-17.49h0l83.29,102A639.08,639.08,0,0,0,10.34,241l-27-33v16.39l18,22.05q-9,5.5-18,11.4v14.62a7.16,7.16,0,0,1,1.72,1.32l7.53,9.23c2.39,3.36,1.16,7.48-3.21,10.74l-1.83,1.26a14.1,14.1,0,0,1-4.21,1.83v32.05c78.56-58.23,159.31-95.1,233.38-111.59,110.45-24.58,206-3.9,257,58.6l-26-31.9,9.58,11.74q-6.85-8.38-13.7-16.73c-.9-1.11-1.55-1.92-1.91-2.39l.22.25-5.14-6.29a158.62,158.62,0,0,0-14.25-15.3l-83.28-102a162,162,0,0,1,14.23,15.29L348.21,122l-13.55-16.54c-1-1.22-1.55-1.9-1.91-2.38l.23.26L316.52,83.17c-51-62.5-146.58-83.18-257-58.6A523.85,523.85,0,0,0-16.64,48v27.1A8.48,8.48,0,0,1-13.27,72.46ZM20.65,273.32l-1.83,1.14c-4.62,2.62-9.42,2.36-12.23-.65l-7.53-9.23c-2.38-3.35-1.11-7.41,3.24-10.36l1.83-1.13c3.57-2.1,8.92-2.74,12.22.82l7.53,9.22C26.27,266.48,25,270.39,20.65,273.32Zm31.26-18.14-1.83,1c-4.61,2.3-9.41,1.84-12.21-1.2l-7.53-9.22c-2.39-3.33-1.12-7.19,3.22-9.81l1.83-1c3.57-1.85,8.91-2.22,12.21,1.36l7.53,9.23C57.52,248.86,56.29,252.56,51.91,255.18Zm31.17-16-1.83.88c-4.6,2-9.38,1.31-12.18-1.74l-7.53-9.22c-2.38-3.32-1.13-7,3.2-9.28l1.82-.87c3.54-1.61,8.86-1.7,12.16,1.9l7.53,9.22C88.64,233.42,87.43,236.92,83.08,239.22ZM114,225.44l-1.81.76c-4.55,1.68-9.31.78-12.11-2.28l-7.53-9.23c-2.39-3.3-1.16-6.73,3.13-8.73l1.8-.75c3.52-1.36,8.8-1.19,12.1,2.43l7.52,9.23c2.4,3.3,1.21,6.58-3.1,8.57Zm30.6-11.61-1.78.62c-4.5,1.37-9.22.27-12-2.81l-7.53-9.22c-2.39-3.29-1.2-6.51,3-8.2l1.78-.63c3.47-1.12,8.69-.67,12,3l7.53,9.22c2.4,3.28,1.26,6.37-3,8.05Zm30.13-9.47-1.76.5a12.27,12.27,0,0,1-11.89-3.34l-7.53-9.23c-2.4-3.27-1.26-6.28,2.9-7.67l1.76-.5a12.2,12.2,0,0,1,11.84,3.5l7.53,9.22c2.41,3.27,1.31,6.15-2.85,7.52Zm30.44-7.53-2.17.47a13.09,13.09,0,0,1-12.19-3.77l-7.53-9.22c-2.44-3.32-1.22-6.1,3.2-7.25l2.17-.47c4.18-.81,10.21,0,13.58,3.67l7.53,9.22c2.33,3.25.57,6.07-4.6,7.35Zm-25.42-24.91a516.69,516.69,0,0,0-63.23,18.53l-83.29-102A514.93,514.93,0,0,1,96.47,69.88q19-4.23,37.41-6.68l83.29,102Q198.81,167.7,179.76,171.92ZM144.09,62c37-4,71.67-2.46,102.67,4.43l83.28,102c-31-6.9-65.63-8.43-102.66-4.44Zm97.4,128.7-2.1.27c-5.3.51-10.54-1.16-13.36-4.26l-7.53-9.22c-2.33-3.22-.57-5.93,4.38-6.76l2.1-.27c4-.44,9.9.79,13.25,4.5l7.53,9.22c2.35,3.22.71,5.72-4.27,6.52Zm34.92-2.8-2,.07c-5.1,0-10.2-2-13-5.08l-7.53-9.23c-2.35-3.19-.73-5.57,4-5.93l2-.07c3.85-.06,9.52,1.58,12.87,5.33l7.53,9.22c2.36,3.19.87,5.38-3.88,5.69Zm33.27.54c-.63,0-1.26-.09-1.9-.12-4.85-.45-9.79-2.77-12.58-5.91l-7.53-9.22c-2.35-3.18-.91-5.23,3.6-5.11l1.9.12a20.22,20.22,0,0,1,12.42,6.15l7.53,9.22c2.37,3.17,1.05,5-3.43,4.88Zm31.38,3.85-1.78-.32a23.11,23.11,0,0,1-12.09-6.72L319.66,176c-2.38-3.15-1.14-4.88,3.1-4.29l1.78.31a23,23,0,0,1,11.93,7l7.53,9.22c.12.17.3.38.42.55.32.46,2.94,4.44-3.36,3.5Zm29.24,7.12-1.65-.5a28.05,28.05,0,0,1-11.54-7.53l-7.52-9.22a13,13,0,0,1-.76-1.07c-.86-1.46-1.14-3.62,3.3-2.42l1.66.51a28,28,0,0,1,11.35,7.76l7.53,9.23a11.35,11.35,0,0,1,.76,1.06c.54.87,1.9,3.61-3.13,2.19Zm26.86,10.39-1.52-.7a36.42,36.42,0,0,1-10.92-8.33l-7.53-9.22A8.47,8.47,0,0,1,376,189.6c-.3-.77-.6-2.39,3.17-.77l1.51.7a36.45,36.45,0,0,1,10.72,8.56l7.53,9.23a9.57,9.57,0,0,1,1.26,1.89C400.63,210.28,400.49,211.25,397.16,209.77Zm25.69,7.52a6.42,6.42,0,0,1,2.14,1.55l1.17,1.08a122,122,0,0,1,9.28,10.14l7.53,9.22c1.6,2,1.67,2.18,1.79,2.51-.2,0-.34,0-2.08-1.63l-1.17-1.09a112.66,112.66,0,0,1-9.52-9.9L424.46,220c-1.82-2.26-1.72-2.46-1.61-2.66Zm1.13,6.82c.29,1.13-1.82-.23-2.62-.74l-1.34-.89a54,54,0,0,1-10.26-9.12l-7.53-9.23a7.43,7.43,0,0,1-1.51-2.46q-.21-1.29,2.78.57l1.34.89a55.24,55.24,0,0,1,10,9.35l7.53,9.23a9.16,9.16,0,0,1,1.58,2.4ZM416.78,210c-21.48-18.44-48-31.68-78.33-39.56l-83.29-102C285.47,76.31,312,89.54,333.49,108ZM313.88,83.8A6.36,6.36,0,0,1,316,85.35l1.17,1.08a120.43,120.43,0,0,1,9.28,10.14L334,105.8c1.6,2,1.67,2.17,1.79,2.5-.21,0-.34,0-2.09-1.64l-1.17-1.08a115.64,115.64,0,0,1-9.52-9.9l-7.53-9.23c-1.81-2.25-1.7-2.46-1.61-2.65Zm-19.35-15,1.35.89a55.24,55.24,0,0,1,10,9.35l7.53,9.23a9.74,9.74,0,0,1,1.57,2.4c.3,1.13-1.82-.23-2.62-.75L311.05,89a54.52,54.52,0,0,1-10.25-9.11l-7.53-9.23a7.58,7.58,0,0,1-1.51-2.47q-.21-1.29,2.78.57ZM270.16,55.34l1.52.7A36.61,36.61,0,0,1,282.4,64.6l7.53,9.23a9.88,9.88,0,0,1,1.26,1.89c.47,1.07.34,2-3,.56l-1.51-.7a36.31,36.31,0,0,1-10.92-8.32L268.22,58A8.26,8.26,0,0,1,267,56.11c-.29-.77-.59-2.38,3.17-.77Zm-27-10.19,1.65.51a27.86,27.86,0,0,1,11.36,7.77l7.53,9.23a12.7,12.7,0,0,1,.76,1.05c.54.88,1.89,3.6-3.13,2.19l-1.65-.51a27.84,27.84,0,0,1-11.53-7.52l-7.53-9.23a9.77,9.77,0,0,1-.76-1.06c-.86-1.47-1.14-3.63,3.3-2.43ZM213.8,38.22l1.78.32a23,23,0,0,1,11.93,7L235,54.72l.42.56c.32.45,2.93,4.43-3.36,3.49l-1.79-.31a23.24,23.24,0,0,1-12.08-6.71l-7.53-9.24c-2.38-3.16-1.13-4.89,3.1-4.29Zm-31.5-3.66,1.9.12a20.33,20.33,0,0,1,12.42,6.15l7.54,9.23c2.36,3.16,1,5-3.44,4.86l-1.9-.12C194,54.35,189,52,186.24,48.9l-7.53-9.23c-2.35-3.17-.91-5.23,3.59-5.11Zm-33.38-.34,2-.07c3.86-.06,9.52,1.58,12.87,5.32l7.54,9.23c2.35,3.19.86,5.37-3.89,5.68l-2,.07c-5.08,0-10.19-2-13-5.07l-7.53-9.23c-2.34-3.2-.73-5.58,4-5.93Zm-35,3,2.1-.27c4-.43,9.9.79,13.26,4.5l7.53,9.23c2.35,3.22.71,5.71-4.27,6.51l-2.1.27c-5.3.51-10.54-1.15-13.36-4.25L109.53,44c-2.32-3.21-.56-5.93,4.38-6.76ZM77.52,43.57l2.17-.47c4.18-.81,10.21,0,13.58,3.67L100.8,56c2.34,3.24.58,6-4.59,7.34L94,63.8a13.08,13.08,0,0,1-12.19-3.75l-7.53-9.24c-2.44-3.31-1.21-6.09,3.2-7.24Zm-30,7.56,1.75-.5a12.24,12.24,0,0,1,11.85,3.5l7.53,9.23c2.4,3.26,1.3,6.14-2.86,7.51l-1.76.5A12.27,12.27,0,0,1,52.12,68l-7.53-9.23c-2.39-3.28-1.25-6.29,2.91-7.68ZM17.34,60.72l1.78-.62c3.46-1.12,8.69-.67,12,3l7.54,9.22c2.4,3.29,1.25,6.37-3,8L33.86,81c-4.5,1.37-9.21.27-12-2.8l-7.53-9.23c-2.39-3.29-1.2-6.51,3-8.21Z"/><path id="Path_162-2" data-name="Path 162-2" class="cls-3" d="M436.8,229.53q-41.66-51-83.29-102h0l83.26,102Z"/><path id="Path_163-2" data-name="Path 163-2" class="cls-3" d="M-13.27,71.48l1.8-.75C-7,69.09-2.22,70.05.62,73.16l7.54,9.23c2.39,3.3,1.2,6.59-3.1,8.58-.61.24-1.21.49-1.81.75-4.56,1.68-9.31.79-12.11-2.27l-7.53-9.23c-.1-.14-.16-.28-.25-.41v28.37q20.7-9.69,41.12-17.5l83.29,102A639.13,639.13,0,0,0,10.34,240l-27-33.05v16.39l18,22q-9,5.51-18,11.4v14.63a6.91,6.91,0,0,1,1.72,1.32L-7.39,282c2.39,3.37,1.16,7.49-3.21,10.74L-12.43,294a14.07,14.07,0,0,1-4.21,1.82v3.59c73.93-52.15,149.3-85.54,218.78-101,110.45-24.58,206-3.9,257,58.6-.62-.77-1.25-1.53-1.88-2.3-2-2.5-4.1-5-6.15-7.48L443.62,238c-.9-1.11-1.55-1.9-1.91-2.39l.22.27-5.19-6.35a161.33,161.33,0,0,0-14.2-15.26l-83.28-102a162.2,162.2,0,0,1,14.24,15.3l-22.37-27.4c-51-62.5-146.58-83.18-257-58.6A534.9,534.9,0,0,0-16.64,70.79v3.3A8.48,8.48,0,0,1-13.27,71.48ZM20.65,272.34l-1.83,1.13c-4.62,2.62-9.42,2.37-12.23-.65L-.94,263.6c-2.38-3.35-1.11-7.42,3.24-10.37l1.83-1.13c4.58-2.57,9.37-2.25,12.22.82l7.53,9.23C26.27,265.49,25,269.4,20.65,272.34ZM51.91,254.2l-1.83,1c-4.61,2.3-9.41,1.82-12.21-1.2l-7.53-9.23c-2.39-3.33-1.12-7.18,3.22-9.81l1.83-1c4.58-2.26,9.37-1.72,12.21,1.36l7.53,9.22c2.39,3.33,1.16,7-3.22,9.66Zm31.17-16-1.83.88c-4.6,2-9.38,1.3-12.18-1.75l-7.53-9.22c-2.38-3.32-1.13-7,3.2-9.28l1.82-.87c4.54-1.95,9.32-1.2,12.16,1.9l7.53,9.23c2.39,3.31,1.18,6.8-3.17,9.11ZM114,224.46l-1.81.75c-4.55,1.68-9.31.78-12.11-2.28l-7.53-9.23c-2.39-3.3-1.16-6.72,3.13-8.73l1.8-.75c4.5-1.64,9.25-.68,12.1,2.43l7.52,9.23c2.4,3.3,1.21,6.59-3.1,8.58Zm30.6-11.62-1.78.62c-4.5,1.37-9.22.27-12-2.81l-7.53-9.22c-2.39-3.29-1.2-6.5,3-8.21l1.78-.62a11.65,11.65,0,0,1,12,3l7.53,9.22c2.4,3.29,1.26,6.37-3,8.05Zm30.13-9.47-1.76.5a12.25,12.25,0,0,1-11.89-3.34l-7.53-9.22c-2.4-3.27-1.25-6.28,2.9-7.67l1.76-.5a12.29,12.29,0,0,1,11.85,3.49l7.52,9.23c2.41,3.26,1.31,6.14-2.85,7.51Zm30.44-7.53-2.17.47a13.08,13.08,0,0,1-12.19-3.76l-7.53-9.23c-2.44-3.32-1.22-6.09,3.2-7.25l2.17-.46c5.35-1,10.68.5,13.58,3.67l7.53,9.22c2.33,3.25.57,6.06-4.6,7.34Zm-25.41-24.9a514.93,514.93,0,0,0-63.23,18.53l-83.3-102A516.74,516.74,0,0,1,96.47,68.89q19-4.23,37.41-6.68l83.29,102q-18.36,2.44-37.41,6.68ZM144.09,61c37-4,71.67-2.46,102.67,4.44l83.28,102c-31-6.9-65.63-8.43-102.66-4.44h0Zm97.4,128.7-2.1.27c-5.3.52-10.54-1.15-13.36-4.25l-7.53-9.22c-2.33-3.22-.57-5.93,4.38-6.76l2.1-.27c5.15-.47,10.35,1.3,13.25,4.5l7.53,9.22c2.35,3.22.71,5.72-4.27,6.51Zm34.92-2.79-2,.07c-5.1,0-10.2-2-13-5.08l-7.53-9.23c-2.35-3.19-.73-5.57,4-5.93l2-.07c4.94,0,10,2.1,12.87,5.33l7.53,9.22c2.36,3.19.87,5.37-3.88,5.69Zm33.27.54c-.63,0-1.26-.09-1.9-.12-4.85-.45-9.79-2.77-12.58-5.9l-7.53-9.23c-2.35-3.17-.91-5.23,3.6-5.11l1.9.13a20,20,0,0,1,12.42,6.14l7.53,9.23c2.37,3.15,1.05,5-3.43,4.86Zm32.12,4-.74-.11-1.78-.32a23.11,23.11,0,0,1-12.09-6.72L319.66,175c-2.38-3.16-1.13-4.89,3.1-4.3l1.79.32a23.24,23.24,0,0,1,11.92,7l7.53,9.22c3.57,4.7-1.6,4.23-2.2,4.17Zm30.35,7.42a11.73,11.73,0,0,1-1.85-.4l-1.65-.51a27.86,27.86,0,0,1-11.54-7.53l-7.52-9.22c-2.73-3.56-.5-4.06,1.23-3.8a11.86,11.86,0,0,1,1.31.31c.56.16,1.11.33,1.66.51a28.3,28.3,0,0,1,11.35,7.76l7.53,9.22c2.75,3.58.56,3.75-.52,3.66Zm27.09,10.7a8.8,8.8,0,0,1-2.09-.73l-1.51-.7a36,36,0,0,1-10.92-8.33l-7.53-9.22c-2.56-3.29-1-3.45-.19-3.37a7.51,7.51,0,0,1,2.12.68l1.51.7a37,37,0,0,1,10.73,8.57l7.53,9.22c2.3,2.95,1.46,3.36.35,3.18Zm23.61,6.79a6.42,6.42,0,0,1,2.13,1.55l1.18,1.08a127.29,127.29,0,0,1,9.28,10.14L443,238.3a15,15,0,0,1,1.77,2.42l-.14.07a14.19,14.19,0,0,1-1.92-1.62l-1.18-1.08a117.13,117.13,0,0,1-9.52-9.9L424.46,219c-1.82-2.25-1.72-2.46-1.61-2.66Zm.85,7.26a7.37,7.37,0,0,1-2.34-1.18l-1.34-.89a53.93,53.93,0,0,1-10.26-9.11l-7.53-9.23c-2.23-2.83-1.53-3.08-.91-3a8.34,8.34,0,0,1,2.18,1.07l1.34.89a56.32,56.32,0,0,1,10,9.36l7.53,9.22c.62.78,2.28,2.87,1.3,2.84ZM416.78,209c-21.48-18.44-48-31.67-78.33-39.55L255.16,67.44C285.47,75.32,312,88.56,333.49,107ZM333,102.35l15.38,18.84-6.17-7.5-7.54-9.23c-1-1.22-1.54-1.9-1.91-2.38ZM313.89,82.81A6.6,6.6,0,0,1,316,84.37l1.17,1.07a123.62,123.62,0,0,1,9.28,10.14l7.53,9.23a16.21,16.21,0,0,1,1.78,2.42l-.15.07a13.5,13.5,0,0,1-1.92-1.62l-1.17-1.07a115.52,115.52,0,0,1-9.52-9.9l-7.54-9.23c-1.81-2.26-1.7-2.47-1.61-2.67ZM292.36,66.69a8.07,8.07,0,0,1,2.18,1.08c.45.29.9.58,1.34.88a56.32,56.32,0,0,1,10,9.36l7.54,9.23c.62.78,2.27,2.86,1.29,2.83a7.27,7.27,0,0,1-2.34-1.18L311.05,88a54.48,54.48,0,0,1-10.25-9.11l-7.53-9.23c-2.23-2.83-1.53-3.08-.91-3ZM268,53.67a8,8,0,0,1,2.13.69l1.51.7a36.9,36.9,0,0,1,10.72,8.56l7.54,9.23c2.3,2.93,1.45,3.35.34,3.17a8.8,8.8,0,0,1-2.09-.73l-1.51-.7a36.36,36.36,0,0,1-10.92-8.31l-7.53-9.23c-2.56-3.3-1-3.46-.19-3.38Zm-26.17-9.81c.44.08.87.19,1.31.31l1.65.51a28.3,28.3,0,0,1,11.35,7.76l7.53,9.23c2.75,3.58.56,3.74-.52,3.65a11.61,11.61,0,0,1-1.84-.4l-1.65-.51a28,28,0,0,1-11.54-7.52l-7.53-9.23c-2.72-3.56-.51-4.06,1.23-3.8ZM213.8,37.23l1.79.32a23.31,23.31,0,0,1,11.92,7l7.54,9.23c3.56,4.7-1.6,4.23-2.2,4.16l-.74-.11-1.79-.32a23.06,23.06,0,0,1-12.08-6.71l-7.53-9.23c-2.39-3.16-1.14-4.89,3.09-4.3Zm-31.5-3.65,1.9.12a20.09,20.09,0,0,1,12.43,6.15l7.53,9.23c2.37,3.16,1.05,5-3.44,4.86l-1.9-.12c-4.86-.45-9.79-2.77-12.58-5.9l-7.53-9.23c-2.35-3.18-.91-5.23,3.59-5.11Zm-33.38-.35,2-.07c4.93,0,10,2.1,12.87,5.33l7.53,9.23c2.35,3.18.86,5.36-3.89,5.68l-2,.07c-5.09,0-10.19-2-13-5.08l-7.53-9.23c-2.34-3.19-.73-5.57,4-5.93Zm-35,3L116,36c5.15-.47,10.36,1.3,13.25,4.5l7.54,9.22c2.34,3.22.71,5.72-4.27,6.51l-2.1.27h0c-5.3.52-10.55-1.15-13.36-4.25L109.53,43c-2.32-3.21-.56-5.93,4.38-6.75ZM77.52,42.58l2.17-.46c5.35-.94,10.68.5,13.58,3.67L100.8,55c2.34,3.25.58,6.06-4.59,7.35L94,62.82a13.2,13.2,0,0,1-12.18-3.76l-7.53-9.23c-2.45-3.32-1.22-6.1,3.19-7.25Zm-30,7.56,1.76-.5a12.27,12.27,0,0,1,11.84,3.5l7.54,9.23c2.4,3.26,1.3,6.14-2.87,7.51l-1.76.5A12.23,12.23,0,0,1,52.13,67l-7.54-9.23c-2.39-3.26-1.25-6.28,2.91-7.67Zm-30.16,9.6,1.79-.62a11.62,11.62,0,0,1,12,3l7.53,9.23c2.4,3.28,1.25,6.36-3,8L33.86,80c-4.5,1.38-9.21.28-12-2.8l-7.53-9.23c-2.4-3.29-1.21-6.5,3-8.21Z"/><path id="Path_164-2" data-name="Path 164-2" class="cls-3" d="M436.8,230.52,353.51,128.47l-.09-.1,83.27,102Z"/><path id="Path_166-2" data-name="Path 166-2" class="cls-3" d="M-13.27,72.46l1.8-.74C-7,70.08-2.22,71,.62,74.15l7.54,9.23c2.39,3.3,1.2,6.58-3.1,8.57l-1.81.75c-4.56,1.68-9.31.79-12.11-2.27l-7.53-9.23c-.1-.14-.16-.28-.25-.41v28.37q20.7-9.69,41.12-17.5l83.29,102.05A638.19,638.19,0,0,0,10.34,241l-27-33v16.39l18,22.05q-9,5.5-18,11.4v14.62a7.36,7.36,0,0,1,1.72,1.32l7.53,9.23c2.39,3.36,1.16,7.48-3.21,10.74l-1.83,1.26a14.07,14.07,0,0,1-4.21,1.82v3.6c73.93-52.15,149.3-85.54,218.78-101,110.45-24.59,206-3.9,257,58.6l-2.05-2.52-6-7.26L443.62,239c-.9-1.11-1.55-1.91-1.91-2.39l.16.19c-1.73-2.12-3.46-4.23-5.18-6.35a161.21,161.21,0,0,0-14.15-15.18l-83.28-102a160.32,160.32,0,0,1,14.16,15.2l-22.29-27.31c-51-62.5-146.58-83.19-257-58.6A534,534,0,0,0-16.64,71.78v3.3A8.5,8.5,0,0,1-13.27,72.46ZM20.65,273.32l-1.83,1.14c-4.62,2.62-9.42,2.36-12.23-.65l-7.53-9.23c-2.38-3.35-1.11-7.41,3.24-10.36l1.83-1.13c4.58-2.58,9.37-2.25,12.22.82l7.53,9.22C26.27,266.48,25,270.39,20.65,273.32Zm31.26-18.14-1.83,1c-4.61,2.3-9.41,1.84-12.21-1.2l-7.53-9.22c-2.39-3.33-1.12-7.19,3.22-9.81l1.83-1c4.58-2.26,9.37-1.73,12.21,1.36l7.53,9.23c2.39,3.33,1.16,7-3.22,9.65Zm31.17-16-1.83.88c-4.6,2-9.38,1.31-12.18-1.74l-7.53-9.22c-2.38-3.32-1.13-7,3.2-9.28l1.82-.87c4.54-2,9.32-1.2,12.16,1.9l7.53,9.22c2.39,3.31,1.18,6.81-3.17,9.11ZM114,225.44l-1.81.76c-4.55,1.68-9.31.78-12.11-2.28l-7.53-9.23c-2.39-3.3-1.16-6.73,3.13-8.73l1.8-.75c4.5-1.64,9.25-.69,12.1,2.43l7.52,9.23c2.4,3.3,1.21,6.58-3.1,8.57Zm30.6-11.61-1.78.62c-4.5,1.37-9.22.27-12-2.81l-7.53-9.22c-2.39-3.29-1.2-6.51,3-8.2l1.78-.63a11.65,11.65,0,0,1,12,3l7.53,9.22c2.4,3.28,1.26,6.37-3,8.05Zm30.13-9.47-1.76.5a12.27,12.27,0,0,1-11.89-3.34l-7.53-9.23c-2.4-3.27-1.25-6.28,2.9-7.67l1.76-.5a12.32,12.32,0,0,1,11.85,3.5l7.52,9.22c2.41,3.27,1.31,6.15-2.85,7.52Zm30.44-7.53-2.17.47a13.09,13.09,0,0,1-12.19-3.77l-7.53-9.22c-2.44-3.32-1.22-6.1,3.2-7.25l2.17-.47c5.35-.94,10.68.5,13.58,3.67l7.53,9.22c2.33,3.25.57,6.07-4.6,7.35Zm-25.42-24.91a516.69,516.69,0,0,0-63.23,18.53l-83.29-102A514.93,514.93,0,0,1,96.47,69.88q19-4.23,37.41-6.68l83.29,102Q198.81,167.7,179.76,171.92ZM144.09,62c37-4,71.67-2.46,102.67,4.43l83.28,102c-31-6.9-65.63-8.43-102.66-4.44h0Zm97.4,128.7-2.1.27c-5.3.51-10.54-1.16-13.36-4.26l-7.53-9.22c-2.33-3.22-.57-5.93,4.38-6.76l2.1-.27c5.15-.47,10.35,1.3,13.25,4.5l7.53,9.22c2.35,3.22.71,5.72-4.27,6.52Zm34.92-2.8-2,.07c-5.1,0-10.2-2-13-5.08l-7.53-9.23c-2.35-3.19-.73-5.57,4-5.93l2-.07c4.94,0,10,2.1,12.87,5.33l7.53,9.22c2.36,3.2.87,5.38-3.88,5.69Zm33.27.54c-.63,0-1.26-.09-1.9-.12-4.85-.45-9.79-2.77-12.58-5.91l-7.53-9.22c-2.35-3.18-.91-5.23,3.6-5.11l1.9.12a20.07,20.07,0,0,1,12.42,6.15l7.53,9.22c2.37,3.17,1.05,5-3.43,4.88Zm32.12,4-.74-.11-1.78-.32a23.18,23.18,0,0,1-12.09-6.72L319.66,176c-2.38-3.16-1.13-4.89,3.1-4.29l1.79.31a23.31,23.31,0,0,1,11.92,7L344,188.2c3.57,4.71-1.6,4.24-2.2,4.17Zm30.35,7.42a11.73,11.73,0,0,1-1.85-.4l-1.65-.51a28,28,0,0,1-11.54-7.53l-7.52-9.22c-2.73-3.56-.5-4.06,1.23-3.8a11.86,11.86,0,0,1,1.31.31l1.66.5a28.42,28.42,0,0,1,11.35,7.77l7.53,9.22c2.75,3.59.56,3.76-.52,3.66Zm27.09,10.7a9.26,9.26,0,0,1-2.09-.73l-1.51-.7a36.3,36.3,0,0,1-10.92-8.33l-7.53-9.23c-2.56-3.29-1-3.45-.19-3.37a7.86,7.86,0,0,1,2.12.69l1.51.7a37,37,0,0,1,10.73,8.56l7.53,9.23c2.3,2.95,1.46,3.36.35,3.19Zm23.61,6.79a6.29,6.29,0,0,1,2.13,1.55c.4.35.79.72,1.18,1.08A127.16,127.16,0,0,1,435.44,230l7.53,9.23a15.48,15.48,0,0,1,1.77,2.42l-.14.07a14.12,14.12,0,0,1-1.92-1.61l-1.18-1.09a114.13,114.13,0,0,1-9.52-9.9L424.46,220c-1.82-2.26-1.72-2.46-1.61-2.66Zm.85,7.25a7.56,7.56,0,0,1-2.34-1.17l-1.34-.9a53.93,53.93,0,0,1-10.26-9.11l-7.53-9.23c-2.23-2.83-1.53-3.07-.91-3a7.76,7.76,0,0,1,2.18,1.07l1.34.88a56.32,56.32,0,0,1,10,9.36l7.53,9.23c.62.79,2.28,2.87,1.3,2.85ZM416.78,210c-21.48-18.45-48-31.68-78.33-39.56l-83.29-102C285.47,76.31,312,89.54,333.49,108ZM333,103.34l15.38,18.84c-2.05-2.51-4.12-5-6.17-7.5l-7.54-9.23c-1-1.23-1.54-1.9-1.91-2.39A3.22,3.22,0,0,1,333,103.34ZM313.89,83.8A6.42,6.42,0,0,1,316,85.35l1.17,1.08a127.29,127.29,0,0,1,9.28,10.14L334,105.8a15,15,0,0,1,1.78,2.41.51.51,0,0,1-.15.07,14.12,14.12,0,0,1-1.92-1.61l-1.17-1.08a114.08,114.08,0,0,1-9.52-9.9l-7.54-9.23c-1.81-2.26-1.7-2.47-1.61-2.66ZM292.36,67.68a8.34,8.34,0,0,1,2.18,1.07l1.34.89a56.64,56.64,0,0,1,10,9.35l7.54,9.23c.62.79,2.27,2.87,1.29,2.84a7.1,7.1,0,0,1-2.34-1.19L311.05,89a54.48,54.48,0,0,1-10.25-9.11l-7.53-9.23c-2.23-2.84-1.53-3.08-.91-3ZM268,54.66a7.51,7.51,0,0,1,2.12.68l1.52.7A37.2,37.2,0,0,1,282.4,64.6l7.53,9.23c2.3,2.94,1.46,3.35.35,3.18a8.93,8.93,0,0,1-2.09-.73l-1.51-.7a36.55,36.55,0,0,1-10.92-8.32L268.22,58C265.67,54.74,267.25,54.57,268,54.66Zm-26.18-9.82c.4.06.92.21,1.31.31l1.66.51a28.32,28.32,0,0,1,11.35,7.77l7.53,9.23c2.75,3.57.55,3.74-.52,3.64a10.6,10.6,0,0,1-1.84-.4l-1.66-.51a27.9,27.9,0,0,1-11.53-7.52l-7.53-9.23c-2.72-3.56-.51-4.06,1.23-3.8ZM213.8,38.22l1.78.31a23.3,23.3,0,0,1,11.93,7l7.54,9.23c3.56,4.7-1.6,4.23-2.2,4.16-.23,0-.52-.07-.74-.11l-1.79-.32a23.06,23.06,0,0,1-12.08-6.71l-7.53-9.23c-2.39-3.16-1.14-4.89,3.09-4.29Zm-31.5-3.66,1.9.12a20.09,20.09,0,0,1,12.43,6.15l7.53,9.23c2.37,3.16,1.05,5-3.44,4.86l-1.9-.12C194,54.35,189,52,186.24,48.9l-7.53-9.23c-2.35-3.17-.91-5.23,3.59-5.11Zm-33.38-.35,2-.06c4.94,0,10,2.1,12.88,5.32l7.53,9.23c2.35,3.19.86,5.36-3.89,5.68l-2,.07c-5.09,0-10.2-2-13-5.07l-7.53-9.23c-2.34-3.2-.73-5.58,4-5.93Zm-35,3,2.1-.27c5.15-.46,10.36,1.3,13.25,4.5l7.53,9.23c2.35,3.22.72,5.71-4.26,6.51l-2.1.27h0c-5.3.51-10.55-1.15-13.36-4.25L109.53,44c-2.32-3.21-.56-5.93,4.38-6.76ZM77.52,43.57l2.17-.47c5.35-.94,10.68.5,13.58,3.67L100.8,56c2.34,3.24.58,6-4.59,7.34L94,63.8a13.22,13.22,0,0,1-12.18-3.75l-7.53-9.24c-2.45-3.31-1.22-6.09,3.19-7.24Zm-30,7.56,1.76-.5a12.27,12.27,0,0,1,11.84,3.5l7.53,9.23c2.4,3.26,1.3,6.14-2.86,7.51l-1.76.5A12.23,12.23,0,0,1,52.13,68L44.59,58.8c-2.39-3.27-1.25-6.28,2.91-7.67ZM17.34,60.72l1.79-.62a11.67,11.67,0,0,1,12,3l7.53,9.23c2.4,3.29,1.25,6.37-3,8L33.86,81c-4.5,1.37-9.21.27-12-2.8l-7.54-9.23c-2.39-3.29-1.2-6.51,3-8.21Z"/><path id="Path_172-2" data-name="Path 172-2" class="cls-8" d="M436.8,229.53a162.41,162.41,0,0,0-14.26-15.3l-83.29-102a162.53,162.53,0,0,1,14.26,15.31q41.64,51,83.29,102"/><path id="Path_183-2" data-name="Path 183-2" class="cls-5" d="M138.23,225.61a2,2,0,0,0-1.48,1.88h0c-1.81-1-4.18-.19-4.21,1.51l0,0-.72-.79-1.1.43c.47.52.74.82,1.17,1.35l3,3.67c.42-.15.83-.31,1.24-.48l-2.48-3c-.88-1.11.12-2.25,1.43-2.14a2.52,2.52,0,0,1,1.69,1l2.48,3,1.22-.47-2.55-3.13c-.9-1.17.28-2.13,1.48-2a2.89,2.89,0,0,1,1.85,1.12l2.33,2.86,1.23-.45-2.43-3c-1.55-1.76-3.07-1.7-4.07-1.33"/><path id="Path_184-2" data-name="Path 184-2" class="cls-5" d="M149.14,227.57c-2.54.77-4.88-1.94-4.07-3.25,1.07-1.72,4.65-.62,5.12,1.57a1.4,1.4,0,0,1-1,1.67h0m-3.66-4.62c-3.71,1.5-1.38,4.44.57,5.24a5.21,5.21,0,0,0,3.63.08h0c3.68-1.47,1.41-4.38-.53-5.21a5,5,0,0,0-3.68-.1"/><path id="Path_185-2" data-name="Path 185-2" class="cls-5" d="M156,219.43l-1.3.44c1.28,4.34,1.28,4.34,1.45,4.78l0,0c-.44-.33-.81-.59-1.62-1.12l-3.66-2.35-1.34.46,6.74,4.14,1.2-.41-1.43-6"/><path id="Path_186-2" data-name="Path 186-2" class="cls-5" d="M158.43,218.62l-1.24.41,4.12,5.05,1.24-.42-4.12-5m-2.34-1.9c-.76.28-.51.89.06,1.13a1.19,1.19,0,0,0,.87.05h0c.8-.31.43-.93-.07-1.15a1.21,1.21,0,0,0-.88,0"/><path id="Path_187-2" data-name="Path 187-2" class="cls-5" d="M162.87,219.72c-1.06-1.84.93-2.46,2.11-2.16a3,3,0,0,1,1.51,1l-3.62,1.17m.26-2.8c-3.38,1.25-1.24,4.21.72,5.08a5.8,5.8,0,0,0,5.75-.9l-.75-.57s-3.09,2.41-5.45-.15l4.8-1.53a4.48,4.48,0,0,0-5.07-1.94"/><path id="Path_188-2" data-name="Path 188-2" class="cls-5" d="M176.09,218.67c-1.4.38-2.43-.76-2-1.45a4,4,0,0,1,2.07-1.08l.72.88c.44.55.26,1.33-.8,1.65m-3.42-4.7a3.94,3.94,0,0,0-1.89,1.12l.78.52c.41-.51,2.51-1.94,4-.2l.09.1c-4.66,1.39-2.62,3.28-1.82,3.71,1.55.84,3.82.18,4-1.15h0l.63.6,1.11-.33a12.19,12.19,0,0,1-1.09-1.18L177,215.26a3.77,3.77,0,0,0-4.28-1.29"/><path id="Path_189-2" data-name="Path 189-2" class="cls-5" d="M180.27,211.75a1.27,1.27,0,0,0-1,1.45,1.33,1.33,0,0,0,0,.19l0,0-.86-1-1.08.31c.42.46.77.87,1.34,1.56l2.82,3.48,1.23-.36-2.2-2.69c-.24-.3-1.35-1.83.84-2.19l-.7-.86a2.29,2.29,0,0,0-.36.07"/><path id="Path_190-2" data-name="Path 190-2" class="cls-5" d="M182.75,209.71l-1,.61.76.93-1,.3.57.7,1.05-.3,2.25,2.76a3,3,0,0,0,4.09.85l.09-.06-.63-.69a1.66,1.66,0,0,1-2.32-.37l-.06-.09-2.22-2.73,1.76-.48-.57-.7c-.59.15-1.18.32-1.76.48l-1-1.22"/><path id="Path_191-2" data-name="Path 191-2" class="cls-5" d="M189.33,208.81l.59.72,7.13.65h0l-3.8,3.44.58.72,4.42-4.12-.48-.58-8.46-.84"/><path id="Path_192-2" data-name="Path 192-2" class="cls-5" d="M197.59,206.72l.59.71,7.1.76,0,0-3.77,3.33.59.72,4.38-4-.48-.59-8.42-1"/><path id="Path_193-2" data-name="Path 193-2" class="cls-5" d="M205.8,204.79l.59.72,8.15.63,0,0-4.82,3.45.58.72,5.67-4.14-.48-.59-9.71-.81"/><path id="Path_194-2" data-name="Path 194-2" class="cls-5" d="M224,201.5c-1.22.26-1.89.75-2,1.45h0l-.76-.8-1.34.25c.39.42.69.76,1.18,1.36l3,3.68,1.52-.29-2.49-3c-.86-1.09.44-2,2-1.81a3.17,3.17,0,0,1,2.14,1.2l2.38,2.91,1.51-.27-2.46-3a4.88,4.88,0,0,0-4.68-1.62"/><path id="Path_195-2" data-name="Path 195-2" class="cls-5" d="M232,202.53c-1-1.8,1.39-2.17,2.72-1.77a3.41,3.41,0,0,1,1.62,1.06l-4.34.71m.66-2.54c-3.93.79-2,3.45-.52,4.37,2.7,1.73,6.2.82,7.47.12l-.79-.61c-.15.08-3.93,1.9-6.3-.67l5.76-.93a5.54,5.54,0,0,0-5.62-2.28"/><path id="Path_196-2" data-name="Path 196-2" class="cls-5" d="M244.79,203.14c-3.12.33-5.06-2.29-4.19-3.24s3.36-.7,4.43.59l.74.91c.76.95.08,1.6-1,1.74m-3.85-4.41c-3.47.62-2.14,3-.45,4.15,2.43,1.62,6.07,1.27,6.32-.18h0l.45.55c2.1,2.78-3.56,2.14-3.62,2.14l-.28,0c.06.23.15.53.21.76.09,0,7.85.76,5.12-3.06l-.31-.41-2.4-2.94c-.56-.68-.81-1-1.06-1.38l-1.3.17.56.76h0a5.41,5.41,0,0,0-3.24-.51"/><path id="Path_197-2" data-name="Path 197-2" class="cls-5" d="M253.19,202.2c-1.64.16-2.57-.9-2.21-1.44.18-.27.78-.63,2.61-.82l.72.88c.44.54.13,1.22-1.12,1.38m-3.36-4.65a5.19,5.19,0,0,0-2.32.77l.85.57c.53-.42,3.12-1.43,4.6.31l.09.11c-5.76.67-3,2.78-2.9,2.86,1.68,1.27,4.73.89,5.08-.3h.06l.65.62c.43-.06.87-.1,1.31-.15a12.41,12.41,0,0,1-1.1-1.2l-1.54-1.89a5,5,0,0,0-4.77-1.71"/><path id="Path_198-2" data-name="Path 198-2" class="cls-5" d="M256.05,195.65l-1.19.43.76.93-1.25.14.57.7,1.25-.13,2.24,2.75a4,4,0,0,0,4.72,1.23l-.64-.69a2.18,2.18,0,0,1-2.68-.72l-2.22-2.73,2.08-.2-.57-.7-2.08.2-1-1.21"/><path id="Path_199-2" data-name="Path 199-2" class="cls-5" d="M262.2,196.37l-1.45.13,4.12,5.05,1.45-.13-4.12-5m-2.45-2c-.81.1-.65.56-.28.84a1.86,1.86,0,0,0,1.21.34h0c.81-.1.64-.57.27-.86a1.89,1.89,0,0,0-1.22-.32"/><path id="Path_200-2" data-name="Path 200-2" class="cls-5" d="M271.08,195.68l-1.5.1c1,3.91,1,3.91,1.18,4.3h-.06c-.43-.35-.85-.67-1.7-1.26l-3.86-2.7-1.54.13,7.14,4.8,1.37-.1-1-5.26"/><path id="Path_201-2" data-name="Path 201-2" class="cls-5" d="M274.74,197.57c-.91-1.56.83-1.81,2.06-1.51a4,4,0,0,1,2.07,1.28l-4.13.23m.54-2.27c-3.39.3-2.1,2.58-.66,3.73a8.1,8.1,0,0,0,7.48,1.08l-.79-.63s-3.68,1.36-6.05-1.25l5.48-.28a6.24,6.24,0,0,0-5.46-2.65"/><path id="Path_202-2" data-name="Path 202-2" class="cls-5" d="M284.62,192.51c-1,0-2.47.38-.95,2.31l.2.24-1.07,0,.57.7,1.07,0,3.55,4.35,1.4,0-3.55-4.35,1.85-.05-.57-.7-1.87.05-.22-.27c-.92-1.17-.61-1.66.92-1.47l.38.06-.4-.71a5.76,5.76,0,0,0-1.31-.12"/><path id="Path_203-2" data-name="Path 203-2" class="cls-5" d="M289.79,194.93l-1.39,0,4.12,5.05,1.39,0-4.12-5m-2.43-2.1c-.76,0-.6.46-.31.71a1.91,1.91,0,0,0,1.25.46h0c.76,0,.59-.46.3-.72a1.85,1.85,0,0,0-1.25-.45"/><path id="Path_204-2" data-name="Path 204-2" class="cls-5" d="M291.55,192.54h-1.38l6,7.41h1.39l-6.05-7.41"/><path id="Path_205-2" data-name="Path 205-2" class="cls-5" d="M304,194.92c-1.09,0-1.65.3-1.67.94h0c-1.88-1.32-4.45-1.4-4.58-.14h-.05l-.73-.82h-1.2c.44.51.75.85,1.18,1.37l3,3.69h1.34l-2.48-3c-.68-.88-.16-1.5,1.09-1.32a3.81,3.81,0,0,1,2.32,1.38l2.47,3,1.33,0-2.55-3.13c-.7-.92,0-1.37,1.09-1.2a4.33,4.33,0,0,1,2.49,1.57l2.33,2.86,1.33,0-2.43-3a5.88,5.88,0,0,0-4.26-2.27"/></g></svg>