<svg id="Layer_1" data-name="Layer 1" xmlns="http://www.w3.org/2000/svg" xmlns:xlink="http://www.w3.org/1999/xlink" viewBox="0 0 224.4 353.74"><defs><style>.cls-1{fill:url(#linear-gradient);}</style><linearGradient id="linear-gradient" x1="-5.13" y1="1426.68" x2="-4.13" y2="1426.68" gradientTransform="matrix(224.4, 0, 0, -353.15, 1151.19, 504013.34)" gradientUnits="userSpaceOnUse"><stop offset="0" stop-color="#e6e6e6"/><stop offset="0.5" stop-color="#fff"/><stop offset="0.98" stop-color="#e6e6e6"/></linearGradient></defs><g id="Group_546" data-name="Group 546"><path id="Path_137" data-name="Path 137" class="cls-1" d="M94.44,194.52l2.7,3.31,7,8.56C93.9,193.86,85.68,178.48,80,160l83.29,102c5.65,18.47,13.88,33.85,24.1,46.38l-41.65-51,78.63,96.32c-14.89-18.24-25.55-42.56-30.17-73.59-5.16-34.62-18-63.65-37-86.9L141.39,173.8l.73.91a16.28,16.28,0,0,1,1.59,2.12c-.45-.43-.45-.43-9.52-11.54-2.9-3.58-5.72-7.22-8.59-10.81l-.64-.8L120.3,148q3.24,4,6.24,8.17L43.25,54.1q-3-4.22-6.27-8.2l3.58,4.37L0,.59c19,23.25,31.81,52.28,37,86.9,4.63,31,15.28,55.35,30.18,73.6L85.37,183.4Zm111.83,137-12-14.72q4.59,5.59,9.14,11.2Zm-10.76-16.77c.29.54.58,1.07.88,1.6,1.3,2.38,1.33,2.61,1.36,3-.25-.05-.4-.08-2-2l-7.53-9.22a101.7,101.7,0,0,1-8.33-11.95c-.3-.53-.59-1.06-.88-1.59-1.45-2.75-1.23-3.06-1.06-3.29.47.06,1.09.7,2.08,1.88l7.53,9.22a98.64,98.64,0,0,1,8,12.43Zm-11.58-28.46a11.89,11.89,0,0,1,.63,3.59c-.18,1.69-1.89-.32-2.53-1.07l-7.53-9.22a46.25,46.25,0,0,1-7.09-13.54c-.2-.64-.38-1.3-.57-2a12.93,12.93,0,0,1-.53-3.33c.06-1,.5-2.39,2.85.32l7.53,9.23c3,3.89,5.47,10,6.67,14C183.55,285,183.73,285.64,183.93,286.29Zm-7.42-36.06.36,1.78a9.48,9.48,0,0,1,.18,2.49c-.1.93-.64,2.74-3.37-.4l-7.53-9.23a35.1,35.1,0,0,1-5.8-13.1c-.11-.6-.23-1.19-.35-1.78a10.56,10.56,0,0,1-.24-2.45c.09-1.29.7-2.23,3.12.59l7.53,9.22a35.39,35.39,0,0,1,6.1,12.88Zm-8-28.66c.2.52.4,1.05.58,1.59a8.42,8.42,0,0,1,.58,2.56c0,.72-.43,1.52-2.77-1.23l-7.53-9.22a50.4,50.4,0,0,1-6.79-12.35l-.58-1.59a8.06,8.06,0,0,1-.65-2.77c.2-1.13,1.91.9,2.55,1.66l7.53,9.23a51.64,51.64,0,0,1,7.08,12.12ZM139,173.22a11.6,11.6,0,0,1,2,2.17l7.53,9.23a104.36,104.36,0,0,1,8,11.35c.27.47.54.94.8,1.42a6.33,6.33,0,0,1,1,2.58l-.17.07a7.74,7.74,0,0,1-2.14-2.09l-7.53-9.22a97.53,97.53,0,0,1-7.72-11.58c-.26-.48-.53-1-.8-1.42a8.62,8.62,0,0,1-1.17-2.47Zm-8.09-10.59c13.16,20.43,22.18,44.53,26.3,72.21q1.37,9.14,3.41,17.5l-83.29-102q-2-8.37-3.41-17.5C69.83,105.11,60.8,81,47.65,60.58ZM16.65,21c-.26-.31-.5-.62-.76-.92L32.41,40.29l.75.93a19.1,19.1,0,0,1,1.59,2.11c-.45-.41-.45-.41-9.53-11.53C22.33,28.22,19.51,24.58,16.65,21ZM31.9,43.66c-.26-.48-.53-.95-.8-1.42a8.34,8.34,0,0,1-1.16-2.47l.13,0a11.29,11.29,0,0,1,2,2.17l7.54,9.23a105.67,105.67,0,0,1,8,11.35c.27.47.54.94.8,1.42a6.21,6.21,0,0,1,1,2.57l-.17.09a8,8,0,0,1-2.14-2.09l-7.53-9.23A97.53,97.53,0,0,1,31.9,43.66ZM43.56,69.43,43,67.84a8.06,8.06,0,0,1-.65-2.77c.2-1.14,1.91.9,2.55,1.66L52.42,76A51.43,51.43,0,0,1,59.5,88.07c.2.53.39,1.07.58,1.6a8.72,8.72,0,0,1,.58,2.57c0,.71-.44,1.51-2.77-1.23l-7.53-9.23a50.77,50.77,0,0,1-6.8-12.35Zm7.83,28.85c-.12-.6-.23-1.18-.35-1.78a10.56,10.56,0,0,1-.25-2.45c.09-1.29.7-2.23,3.12.59l7.53,9.23a35.29,35.29,0,0,1,6.11,12.87c.12.59.24,1.18.35,1.78a9.08,9.08,0,0,1,.19,2.49c-.1.93-.64,2.74-3.37-.4l-7.53-9.23a34.79,34.79,0,0,1-5.8-13.1ZM65.54,146.1a46.32,46.32,0,0,1-7.09-13.53l-.57-2a12.52,12.52,0,0,1-.53-3.33c0-1,.5-2.39,2.85.32l7.53,9.23c3,3.89,5.47,10,6.67,14l.57,2a12.55,12.55,0,0,1,.64,3.59c-.19,1.69-1.9-.31-2.54-1.07ZM70,161c-1.46-2.75-1.24-3.06-1.07-3.29.47.06,1.1.7,2.08,1.87l7.53,9.24a97.31,97.31,0,0,1,8,12.41c.29.54.58,1.08.88,1.6,1.31,2.38,1.33,2.6,1.36,3-.25-.06-.4-.09-2-2l-7.54-9.23a101.7,101.7,0,0,1-8.33-11.95L70,161Z"/></g></svg>