<svg id="Layer_1" data-name="Layer 1" xmlns="http://www.w3.org/2000/svg" viewBox="0 0 529.29 135.06"><defs><style>.cls-1{opacity:0.1;}.cls-2{fill:#1a1718;}</style></defs><g id="Group_548" data-name="Group 548"><g id="Group_543" data-name="Group 543" class="cls-1"><path id="Path_206" data-name="Path 206" class="cls-2" d="M418.65,7.12V46.81c3.85-7.62,11.34-13,22.9-13.11a23.83,23.83,0,0,1,24.1,23.58v46.84h-17V61.45c0-9.25-3.27-14.5-12.48-14.5s-17.52,5.94-17.52,19.61v37.56h-17v-97Z"/><path id="Path_207" data-name="Path 207" class="cls-2" d="M104.8,31C102.43,24.37,95.3,5.22,54,5.22c-7.39,0-44.76,0-44.76,28.78,0,14.66,12.41,24.3,34.6,27.34l23,3.16c13.73,1.85,20.86,5.81,20.86,12,0,8.32-12.67,13.33-28,13.33-25.35,0-32.48-10.16-35.91-17.16L5.65,78.37C7.89,85.63,17.93,106,59.12,106c25.62,0,47.27-8.45,47.27-31.16,0-16.11-12.68-24.42-34.2-27.72L49.48,43.64C30.47,40.74,28,36.91,28,32.82c0-8.85,12.8-12,25.48-12,22.84,0,30.63,7.39,33.67,16Z"/><path id="Path_208" data-name="Path 208" class="cls-2" d="M105.65,49.12h13V82.36A23.64,23.64,0,0,0,142,106c6.33,0,10.14-.48,18.62-1.58V90.05a65.57,65.57,0,0,1-14.28,2c-9.7,0-11.72-5.52-11.72-10.64V49.12h25v-14h-25v-23h-16v23h-13Z"/><path id="Path_209" data-name="Path 209" class="cls-2" d="M201.69,92c-14.66,0-23.11-9.11-23.11-24.16,0-16.64,10.56-23.5,23.11-23.5s23.1,6.86,23.1,23.5c0,15-8.45,24.16-23.1,24.16m0,14c19.41,0,39.74-9.64,39.74-37.9,0-19-11.49-37.76-39.74-37.76s-39.75,18.75-39.75,37.76c0,28.25,20.34,37.9,39.75,37.9"/><path id="Path_210" data-name="Path 210" class="cls-2" d="M246.65,104.12h16v-38c0-5.08.13-19.09,21-19.22a35.41,35.41,0,0,1,10,1.33V30.31a37.44,37.44,0,0,0-5.8-.27c-14.11,0-21.24,7.21-24.8,13.08h-.4v-10h-16Z"/><path id="Path_211" data-name="Path 211" class="cls-2" d="M301.65,123.2a43.64,43.64,0,0,0,14.26,2.11c12.94,0,23.24-5.28,29.57-18.61l36.84-76.58H364.37l-24,51.75-24-51.75H298.35l28.39,58.49c2.24,4.62,2.9,7.79,2.9,11.09,0,5.41-4.49,11.09-18,11.09a38.32,38.32,0,0,1-10-1.59Z"/><circle id="Ellipse_1" data-name="Ellipse 1" class="cls-2" cx="382.65" cy="96.12" r="9"/><path id="Path_212" data-name="Path 212" class="cls-2" d="M473.65,104.12h16V66.7c0-5,.13-18.77,21-18.9a35.75,35.75,0,0,1,10,1.31V31.52a38.72,38.72,0,0,0-5.8-.26c-14.11,0-21.24,7.09-24.8,12.86h-.4v-10h-16Z"/></g></g></svg>