<svg id="Layer_1" data-name="Layer 1" xmlns="http://www.w3.org/2000/svg" viewBox="0 0 122.83 86.45"><defs><style>.cls-1{fill:#e72735;}</style></defs><path id="Path_2508" data-name="Path 2508" class="cls-1" d="M118.76,12.39c4.34,11.47,4.17,53.24-1.06,64.29a14.75,14.75,0,0,1-6.61,6.66c-4.1,2.11-27.86,3.11-51.15,3.11-21.43,0-42.45-.85-47.37-2.45a14.13,14.13,0,0,1-9.28-9.07C-.64,63.84-1.51,17.39,6.35,8.23A15.22,15.22,0,0,1,16.54,2.85c9.34-1,27.36-1.5,45.13-1.5,22.13,0,43.87.77,48,2.26A14.35,14.35,0,0,1,118.76,12.39ZM46,62.23c12.61-6.56,25.17-13,37.87-19.59L46.31,23c-.1,13.12-.2,26.11-.3,39.27"/></svg>